<?xml version="1.0" standalone="no"?>
<!DOCTYPE svg PUBLIC "-//W3C//DTD SVG 1.1//EN" "http://www.w3.org/Graphics/SVG/1.1/DTD/svg11.dtd">
<svg version="1.1" xmlns="http://www.w3.org/2000/svg" viewBox="0 0 1090.9090270996094 681.3636283874512" width="3272.727081298828" height="2044.0908851623535"><!-- svg-source:excalidraw --><metadata></metadata><defs><style class="style-fonts">
      </style></defs><g transform="translate(25.909088134765625 42.27272415161133) rotate(0 4.31817626953125 299.5454521179199)" stroke="none"><path fill="#1e1e1e" d="M 3.28,0 Q 3.28,0 3.35,3.52 3.42,7.05 3.43,10.77 3.45,14.49 3.38,18.56 3.32,22.62 3.27,26.70 3.22,30.78 3.14,35.00 3.07,39.22 3.01,43.49 2.95,47.77 2.90,52.20 2.86,56.63 2.83,61.52 2.79,66.40 2.77,72.14 2.75,77.88 2.73,83.45 2.71,89.03 2.70,95.32 2.69,101.61 2.68,108.59 2.67,115.58 2.66,123.51 2.66,131.45 2.65,140.57 2.65,149.69 2.64,160.89 2.64,172.08 2.64,182.85 2.63,193.62 2.63,204.21 2.63,214.80 2.63,225.05 2.63,235.30 2.63,245.66 2.63,256.03 2.63,267.50 2.63,278.96 2.62,289.19 2.62,299.42 2.62,308.73 2.62,318.05 2.75,327.34 2.88,336.64 3.20,345.67 3.52,354.70 3.65,363.93 3.79,373.16 4.36,384.22 4.94,395.27 5.19,405.64 5.44,416.02 5.80,426.14 6.17,436.27 6.33,446.88 6.48,457.49 6.55,468.41 6.61,479.32 6.77,491.13 6.93,502.94 7.00,513.59 7.07,524.25 7.36,534.49 7.65,544.73 8.03,553.79 8.41,562.84 8.97,570.05 9.52,577.25 9.76,583.00 10.00,588.74 10.57,591.55 11.14,594.36 11.63,596.51 12.12,598.66 12.09,599.23 12.07,599.79 11.87,600.32 11.66,600.85 11.30,601.29 10.94,601.73 10.46,602.03 9.98,602.33 9.42,602.46 8.87,602.59 8.30,602.54 7.74,602.48 7.22,602.25 6.70,602.02 6.28,601.63 5.87,601.25 5.59,600.75 5.32,600.25 5.22,599.69 5.12,599.13 5.20,598.57 5.29,598.01 5.55,597.51 5.81,597.00 6.21,596.60 6.62,596.21 7.13,595.96 7.65,595.72 8.21,595.65 8.77,595.58 9.33,595.69 9.89,595.81 10.38,596.09 10.87,596.38 11.24,596.81 11.61,597.23 11.83,597.76 12.05,598.28 12.09,598.85 12.13,599.42 11.98,599.97 11.84,600.52 11.53,600.99 11.21,601.47 10.77,601.82 10.32,602.16 9.78,602.35 9.25,602.54 8.68,602.55 8.11,602.56 7.57,602.38 7.03,602.21 6.57,601.87 6.12,601.53 5.79,601.07 5.47,600.60 5.31,600.06 5.15,599.51 5.15,599.51 5.15,599.51 5.10,597.31 5.06,595.11 4.90,592.03 4.75,588.96 4.52,583.31 4.28,577.66 3.72,570.36 3.17,563.06 2.78,553.97 2.40,544.88 2.10,534.58 1.81,524.28 1.75,513.64 1.68,503.01 1.52,491.18 1.36,479.35 1.30,468.46 1.23,457.57 1.07,447.01 0.92,436.46 0.55,426.30 0.19,416.14 -0.05,405.84 -0.29,395.54 -0.88,384.39 -1.46,373.24 -1.59,364.06 -1.73,354.88 -2.04,345.80 -2.36,336.71 -2.49,327.38 -2.62,318.05 -2.62,308.73 -2.62,299.42 -2.62,289.19 -2.63,278.96 -2.63,267.50 -2.63,256.03 -2.63,245.66 -2.63,235.30 -2.63,225.05 -2.63,214.80 -2.63,204.21 -2.63,193.62 -2.64,182.85 -2.64,172.08 -2.64,160.89 -2.65,149.69 -2.65,140.57 -2.66,131.45 -2.66,123.51 -2.67,115.58 -2.68,108.59 -2.69,101.61 -2.70,95.32 -2.71,89.03 -2.73,83.45 -2.75,77.88 -2.77,72.14 -2.79,66.40 -2.83,61.52 -2.86,56.63 -2.90,52.20 -2.95,47.77 -3.01,43.49 -3.07,39.22 -3.14,35.00 -3.22,30.78 -3.27,26.70 -3.32,22.62 -3.38,18.56 -3.45,14.49 -3.43,10.77 -3.42,7.05 -3.35,3.52 -3.28,0 -3.23,-0.39 -3.18,-0.78 -3.04,-1.15 -2.90,-1.52 -2.68,-1.85 -2.45,-2.17 -2.16,-2.43 -1.86,-2.70 -1.51,-2.88 -1.16,-3.06 -0.77,-3.16 -0.39,-3.25 0.00,-3.25 0.39,-3.25 0.77,-3.16 1.16,-3.06 1.51,-2.88 1.86,-2.70 2.16,-2.43 2.45,-2.17 2.68,-1.85 2.90,-1.52 3.04,-1.15 3.18,-0.78 3.23,-0.39 3.28,0.00 3.28,0.00 L 3.28,0 Z"></path></g><g transform="translate(1051.3636169433594 36.818180084228516) rotate(0 0.68182373046875 314.7727241516113)" stroke="none"><path fill="#1e1e1e" d="M 3.56,0 Q 3.56,0 3.69,2.87 3.83,5.75 3.94,8.54 4.06,11.33 4.01,14.99 3.96,18.66 3.90,22.44 3.84,26.22 3.78,30.05 3.72,33.88 3.64,37.86 3.56,41.84 3.57,46.49 3.57,51.14 3.53,56.04 3.49,60.94 3.45,66.68 3.41,72.42 3.37,78.13 3.33,83.83 3.29,91.62 3.26,99.40 3.24,108.46 3.21,117.51 3.19,126.98 3.18,136.45 3.16,146.88 3.15,157.31 3.14,168.67 3.13,180.02 3.12,194.39 3.11,208.76 3.11,222.57 3.10,236.39 3.10,249.97 3.10,263.55 3.09,277.30 3.09,291.04 3.09,303.94 3.09,316.84 3.09,332.12 3.08,347.40 3.08,361.61 3.08,375.81 3.08,389.30 3.08,402.79 3.08,416.23 3.08,429.67 3.08,442.70 3.08,455.73 3.08,470.03 3.08,484.32 3.08,497.19 3.08,510.06 3.08,521.54 3.08,533.02 3.08,544.17 3.08,555.33 3.08,565.82 3.08,576.31 3.08,585.34 3.08,594.37 3.08,602.26 3.08,610.15 3.08,614.94 3.08,619.73 3.32,622.41 3.56,625.10 4.14,626.97 4.72,628.85 4.75,629.41 4.77,629.96 4.61,630.49 4.46,631.03 4.14,631.48 3.82,631.94 3.37,632.27 2.92,632.60 2.39,632.77 1.87,632.94 1.31,632.93 0.75,632.92 0.23,632.74 -0.28,632.55 -0.72,632.21 -1.16,631.87 -1.46,631.40 -1.77,630.94 -1.91,630.40 -2.05,629.86 -2.01,629.31 -1.98,628.75 -1.76,628.24 -1.55,627.73 -1.18,627.31 -0.82,626.89 -0.34,626.61 0.13,626.33 0.68,626.22 1.22,626.11 1.77,626.18 2.33,626.24 2.83,626.48 3.33,626.73 3.73,627.11 4.12,627.50 4.38,628.00 4.63,628.49 4.71,629.04 4.79,629.59 4.70,630.14 4.60,630.68 4.33,631.17 4.06,631.66 3.65,632.03 3.24,632.41 2.74,632.64 2.23,632.86 1.68,632.92 1.12,632.97 0.58,632.84 0.04,632.71 -0.42,632.42 -0.89,632.13 -1.25,631.70 -1.60,631.27 -1.80,630.75 -2.00,630.23 -2.00,630.23 -2.00,630.23 -2.32,627.68 -2.65,625.12 -2.41,622.43 -2.17,619.73 -2.17,614.94 -2.17,610.15 -2.17,602.26 -2.17,594.37 -2.17,585.34 -2.17,576.31 -2.17,565.82 -2.17,555.33 -2.17,544.17 -2.17,533.02 -2.17,521.54 -2.17,510.06 -2.17,497.19 -2.17,484.32 -2.17,470.03 -2.17,455.73 -2.17,442.70 -2.17,429.67 -2.17,416.23 -2.17,402.79 -2.17,389.30 -2.17,375.81 -2.17,361.61 -2.17,347.40 -2.18,332.12 -2.18,316.84 -2.18,303.94 -2.18,291.04 -2.18,277.30 -2.19,263.55 -2.19,249.97 -2.20,236.39 -2.20,222.57 -2.21,208.76 -2.21,194.39 -2.22,180.02 -2.23,168.67 -2.24,157.31 -2.26,146.88 -2.27,136.45 -2.29,126.98 -2.31,117.52 -2.34,108.46 -2.37,99.40 -2.41,91.62 -2.45,83.84 -2.51,78.15 -2.57,72.45 -2.66,66.73 -2.75,61.01 -2.90,56.17 -3.05,51.33 -3.30,46.58 -3.56,41.84 -3.64,37.86 -3.72,33.88 -3.78,30.05 -3.84,26.22 -3.90,22.44 -3.96,18.66 -4.01,14.99 -4.06,11.33 -3.94,8.54 -3.83,5.75 -3.69,2.87 -3.56,0 -3.51,-0.42 -3.46,-0.85 -3.30,-1.25 -3.15,-1.65 -2.91,-2.01 -2.66,-2.36 -2.34,-2.64 -2.02,-2.93 -1.64,-3.13 -1.26,-3.33 -0.84,-3.43 -0.42,-3.53 0.00,-3.53 0.42,-3.53 0.84,-3.43 1.26,-3.33 1.64,-3.13 2.02,-2.93 2.34,-2.64 2.66,-2.36 2.91,-2.01 3.15,-1.65 3.30,-1.25 3.46,-0.85 3.51,-0.42 3.56,0.00 3.56,0.00 L 3.56,0 Z"></path></g><g transform="translate(25 38.6363639831543) rotate(0 514.9999847412109 -7.727272033691406)" stroke="none"><path fill="#1e1e1e" d="M -0.13,-4.50 Q -0.13,-4.50 4.18,-4.38 8.50,-4.26 13.01,-4.39 17.52,-4.52 22.16,-4.52 26.79,-4.52 29.13,-4.78 31.46,-5.03 35.18,-5.39 38.89,-5.75 42.20,-6.17 45.52,-6.60 48.91,-6.55 52.30,-6.51 56.47,-6.27 60.65,-6.03 65.56,-5.82 70.47,-5.61 75.91,-5.59 81.35,-5.56 86.84,-5.50 92.34,-5.44 99.11,-5.38 105.89,-5.32 111.91,-5.26 117.92,-5.21 124.14,-5.17 130.35,-5.13 136.39,-5.10 142.43,-5.07 147.87,-5.04 153.31,-5.02 157.85,-5.00 162.38,-4.99 166.53,-5.00 170.68,-5.01 174.67,-5.06 178.65,-5.10 182.57,-5.15 186.48,-5.20 190.89,-5.16 195.30,-5.12 200.31,-5.09 205.32,-5.06 210.45,-5.03 215.59,-5.01 220.64,-5.00 225.70,-4.98 231.25,-4.97 236.79,-4.96 241.11,-4.95 245.43,-4.94 250.01,-4.93 254.59,-4.93 258.89,-4.92 263.19,-4.92 268.28,-4.91 273.37,-4.91 279.20,-4.91 285.02,-4.91 290.50,-4.91 295.98,-4.90 301.58,-4.90 307.18,-4.90 312.30,-4.90 317.42,-4.90 323.26,-4.90 329.09,-4.90 334.97,-4.90 340.85,-4.90 347.14,-4.90 353.43,-4.90 358.71,-4.90 364.00,-4.90 368.73,-4.90 373.46,-4.90 378.08,-4.90 382.71,-4.90 386.89,-4.91 391.08,-4.93 394.69,-5.06 398.30,-5.18 402.57,-5.15 406.85,-5.11 412.07,-5.08 417.28,-5.05 422.90,-5.03 428.51,-5.01 434.82,-4.99 441.13,-4.98 448.90,-4.96 456.68,-4.95 465.21,-4.94 473.75,-4.94 483.51,-4.93 493.28,-4.93 502.14,-4.92 510.99,-4.92 518.68,-4.91 526.36,-4.91 533.55,-4.91 540.74,-4.91 546.93,-4.90 553.12,-4.90 558.49,-4.90 563.87,-4.90 568.50,-4.90 573.14,-4.90 576.42,-5.08 579.70,-5.26 582.40,-5.47 585.09,-5.67 587.81,-5.84 590.53,-6.00 593.90,-6.05 597.28,-6.09 601.46,-5.95 605.64,-5.81 611.33,-5.68 617.03,-5.56 622.85,-5.47 628.67,-5.38 634.80,-5.31 640.93,-5.25 647.20,-5.20 653.46,-5.15 659.59,-5.38 665.72,-5.60 671.70,-6.07 677.67,-6.55 683.04,-6.75 688.40,-6.95 693.17,-7.03 697.94,-7.10 702.19,-7.14 706.44,-7.17 710.99,-7.18 715.54,-7.19 719.70,-7.21 723.85,-7.23 728.36,-7.23 732.87,-7.22 738.19,-7.21 743.50,-7.21 749.07,-7.59 754.63,-7.97 761.90,-9.04 769.17,-10.11 775.51,-11.34 781.85,-12.57 787.70,-13.75 793.54,-14.92 798.82,-15.82 804.09,-16.72 808.91,-17.12 813.73,-17.51 818.01,-17.68 822.29,-17.85 825.41,-18.12 828.52,-18.40 831.03,-18.64 833.54,-18.88 837.86,-19.25 842.18,-19.62 844.69,-19.73 847.20,-19.85 850.49,-19.83 853.77,-19.82 858.83,-19.59 863.88,-19.36 869.17,-19.19 874.46,-19.02 880.10,-18.89 885.74,-18.76 891.15,-18.67 896.55,-18.58 901.20,-18.51 905.85,-18.44 910.57,-18.39 915.29,-18.34 919.78,-18.30 924.27,-18.27 928.92,-18.24 933.57,-18.22 937.12,-18.34 940.66,-18.47 943.48,-18.66 946.29,-18.86 949.71,-19.23 953.13,-19.59 956.28,-19.63 959.43,-19.67 964.43,-19.46 969.42,-19.25 974.42,-19.09 979.42,-18.93 984.03,-18.82 988.64,-18.70 992.56,-18.69 996.48,-18.69 999.19,-18.87 1001.90,-19.05 1005.71,-19.17 1009.52,-19.30 1011.81,-19.17 1014.10,-19.04 1016.59,-18.75 1019.08,-18.45 1021.73,-18.24 1024.38,-18.02 1027.69,-17.65 1031.00,-17.28 1031.84,-16.97 1032.69,-16.67 1033.39,-16.11 1034.10,-15.56 1034.59,-14.80 1035.08,-14.05 1035.30,-13.18 1035.53,-12.31 1035.46,-11.41 1035.40,-10.52 1035.05,-9.69 1034.70,-8.86 1034.10,-8.19 1033.51,-7.51 1032.73,-7.06 1031.95,-6.62 1031.07,-6.44 1030.19,-6.26 1029.30,-6.38 1028.41,-6.49 1027.60,-6.88 1026.79,-7.28 1026.15,-7.91 1025.51,-8.54 1025.10,-9.34 1024.70,-10.14 1024.57,-11.03 1024.44,-11.92 1024.60,-12.80 1024.77,-13.69 1025.20,-14.47 1025.64,-15.26 1026.30,-15.86 1026.97,-16.47 1027.79,-16.83 1028.61,-17.19 1029.51,-17.27 1030.40,-17.35 1031.28,-17.14 1032.15,-16.93 1032.91,-16.45 1033.67,-15.98 1034.24,-15.28 1034.81,-14.58 1035.12,-13.74 1035.44,-12.90 1035.47,-12.01 1035.50,-11.11 1035.25,-10.25 1034.99,-9.39 1034.47,-8.65 1033.95,-7.92 1033.23,-7.39 1032.50,-6.86 1031.64,-6.59 1030.79,-6.32 1029.89,-6.33 1028.99,-6.35 1028.99,-6.35 1028.99,-6.35 1025.99,-7.07 1022.98,-7.78 1020.29,-8.38 1017.61,-8.98 1015.40,-9.41 1013.19,-9.84 1010.58,-10.20 1007.96,-10.56 1004.93,-11.20 1001.90,-11.85 999.19,-12.03 996.48,-12.21 992.56,-12.20 988.64,-12.20 984.03,-12.08 979.42,-11.97 974.42,-11.81 969.42,-11.65 964.43,-11.44 959.43,-11.23 956.28,-11.27 953.13,-11.30 949.71,-11.67 946.29,-12.04 943.48,-12.24 940.66,-12.43 937.12,-12.56 933.57,-12.68 928.92,-12.66 924.27,-12.63 919.78,-12.59 915.29,-12.56 910.57,-12.51 905.85,-12.46 901.20,-12.39 896.55,-12.32 891.15,-12.23 885.74,-12.14 880.10,-12.01 874.46,-11.88 869.17,-11.71 863.89,-11.54 858.83,-11.30 853.78,-11.07 850.49,-11.06 847.21,-11.05 844.71,-11.16 842.20,-11.26 837.91,-11.60 833.62,-11.93 831.14,-12.12 828.66,-12.30 825.58,-12.43 822.49,-12.57 818.32,-12.42 814.16,-12.26 809.57,-11.90 804.97,-11.53 799.78,-10.64 794.59,-9.75 788.72,-8.57 782.86,-7.38 776.40,-6.12 769.94,-4.87 762.47,-3.77 755.00,-2.67 749.25,-2.27 743.50,-1.87 738.19,-1.86 732.88,-1.85 728.37,-1.84 723.86,-1.83 719.71,-1.84 715.56,-1.85 711.02,-1.82 706.49,-1.80 702.26,-1.75 698.04,-1.71 693.33,-1.61 688.62,-1.50 683.38,-1.27 678.13,-1.04 672.05,-0.51 665.96,0.01 659.71,0.31 653.46,0.61 647.20,0.65 640.93,0.70 634.80,0.77 628.67,0.83 622.85,0.92 617.03,1.02 611.33,1.14 605.64,1.26 601.46,1.40 597.28,1.55 593.90,1.50 590.53,1.46 587.81,1.29 585.09,1.13 582.40,0.92 579.70,0.72 576.42,0.54 573.14,0.35 568.50,0.35 563.87,0.36 558.49,0.36 553.12,0.36 546.93,0.36 540.74,0.36 533.55,0.36 526.36,0.37 518.68,0.37 510.99,0.37 502.14,0.38 493.28,0.38 483.51,0.39 473.75,0.39 465.21,0.40 456.68,0.41 448.90,0.42 441.13,0.43 434.82,0.44 428.51,0.46 422.90,0.48 417.28,0.50 412.07,0.53 406.85,0.56 402.57,0.60 398.30,0.64 394.69,0.51 391.08,0.38 386.89,0.36 382.71,0.35 378.08,0.35 373.46,0.35 368.73,0.35 364.00,0.35 358.71,0.35 353.43,0.35 347.14,0.35 340.85,0.35 334.97,0.35 329.09,0.35 323.26,0.35 317.42,0.35 312.30,0.35 307.18,0.36 301.58,0.36 295.98,0.36 290.50,0.36 285.02,0.36 279.20,0.36 273.37,0.37 268.28,0.37 263.19,0.37 258.89,0.38 254.59,0.38 250.01,0.39 245.43,0.39 241.11,0.40 236.79,0.41 231.25,0.42 225.70,0.43 220.64,0.45 215.59,0.47 210.45,0.49 205.32,0.51 200.31,0.54 195.30,0.57 190.89,0.61 186.48,0.66 182.57,0.61 178.65,0.56 174.67,0.51 170.68,0.47 166.53,0.45 162.38,0.44 157.85,0.46 153.32,0.48 147.87,0.50 142.43,0.53 136.39,0.56 130.36,0.60 124.14,0.65 117.93,0.70 111.92,0.77 105.91,0.84 99.16,0.95 92.40,1.06 86.96,1.23 81.52,1.41 76.00,1.70 70.47,1.99 65.57,2.21 60.67,2.42 56.52,2.68 52.37,2.94 49.08,3.04 45.79,3.13 42.37,3.09 38.95,3.05 35.30,2.76 31.64,2.47 29.32,2.33 26.99,2.20 22.51,2.46 18.03,2.73 13.38,3.24 8.74,3.74 4.44,4.12 0.13,4.50 -0.40,4.45 -0.94,4.40 -1.45,4.22 -1.97,4.04 -2.42,3.75 -2.88,3.45 -3.25,3.06 -3.62,2.66 -3.89,2.19 -4.16,1.72 -4.30,1.20 -4.45,0.67 -4.46,0.13 -4.48,-0.40 -4.37,-0.93 -4.25,-1.46 -4.01,-1.95 -3.78,-2.44 -3.43,-2.86 -3.08,-3.27 -2.64,-3.60 -2.21,-3.92 -1.71,-4.13 -1.20,-4.33 -0.67,-4.42 -0.13,-4.50 -0.13,-4.50 L -0.13,-4.50 Z"></path></g><g transform="translate(35 644.9999809265137) rotate(0 513.4090423583984 -15)" stroke="none"><path fill="#1e1e1e" d="M 0,-3.16 Q 0,-3.16 3.78,-3.19 7.57,-3.23 13.76,-3.14 19.94,-3.06 29.24,-3.00 38.53,-2.94 51.24,-2.90 63.94,-2.85 78.75,-2.82 93.56,-2.79 108.94,-3.42 124.32,-4.05 141.84,-5.09 159.36,-6.14 173.94,-7.62 188.53,-9.10 200.19,-10.76 211.85,-12.43 221.04,-13.53 230.23,-14.64 238.08,-15.37 245.93,-16.10 252.95,-16.54 259.96,-16.98 267.29,-17.17 274.62,-17.36 282.70,-17.43 290.78,-17.51 300.23,-17.55 309.67,-17.58 321.79,-17.59 333.90,-17.61 346.18,-18.13 358.47,-18.66 371.45,-18.88 384.44,-19.11 399.76,-19.21 415.08,-19.30 428.65,-19.34 442.21,-19.38 455.03,-19.40 467.86,-19.42 479.32,-19.42 490.78,-19.43 502.71,-19.43 514.64,-19.44 525.06,-19.44 535.49,-19.44 544.23,-19.44 552.98,-19.44 561.01,-19.44 569.04,-19.44 575.27,-19.70 581.50,-19.96 590.61,-20.07 599.73,-20.18 609.35,-20.23 618.96,-20.28 628.67,-20.30 638.37,-20.32 650.97,-20.59 663.56,-20.86 672.59,-20.97 681.63,-21.09 690.13,-21.40 698.64,-21.71 705.95,-21.84 713.26,-21.97 719.77,-22.03 726.28,-22.08 732.18,-22.11 738.09,-22.13 744.23,-22.27 750.37,-22.41 755.35,-22.47 760.34,-22.53 765.60,-22.56 770.86,-22.58 777.54,-22.59 784.22,-22.61 790.42,-22.74 796.63,-22.88 802.96,-22.93 809.28,-22.99 816.54,-23.02 823.81,-23.04 829.97,-23.31 836.14,-23.58 841.63,-23.96 847.11,-24.33 852.91,-24.49 858.70,-24.66 864.27,-24.86 869.84,-25.05 875.44,-25.40 881.05,-25.74 886.99,-26.02 892.93,-26.30 897.86,-26.80 902.79,-27.31 907.40,-27.79 912.00,-28.26 915.99,-28.55 919.97,-28.83 923.85,-29.11 927.72,-29.39 931.73,-29.63 935.73,-29.87 938.91,-30.37 942.08,-30.86 945.67,-31.11 949.25,-31.35 953.65,-31.31 958.06,-31.27 961.62,-31.37 965.18,-31.48 969.18,-31.46 973.18,-31.44 977.10,-31.43 981.02,-31.43 984.25,-31.55 987.49,-31.67 990.17,-31.83 992.85,-31.99 996.39,-32.31 999.94,-32.63 1004.10,-32.96 1008.27,-33.30 1010.59,-33.43 1012.92,-33.56 1015.07,-33.88 1017.22,-34.20 1021.50,-34.74 1025.78,-35.28 1026.65,-35.30 1027.52,-35.33 1028.35,-35.08 1029.18,-34.83 1029.89,-34.32 1030.60,-33.82 1031.11,-33.11 1031.62,-32.41 1031.88,-31.58 1032.14,-30.74 1032.12,-29.87 1032.10,-29.00 1031.81,-28.18 1031.51,-27.37 1030.97,-26.68 1030.42,-26.00 1029.69,-25.53 1028.96,-25.06 1028.12,-24.85 1027.27,-24.63 1026.40,-24.70 1025.54,-24.77 1024.73,-25.11 1023.93,-25.45 1023.28,-26.03 1022.63,-26.61 1022.20,-27.36 1021.77,-28.12 1021.60,-28.97 1021.43,-29.83 1021.55,-30.69 1021.66,-31.55 1022.04,-32.34 1022.43,-33.12 1023.04,-33.74 1023.65,-34.35 1024.43,-34.74 1025.21,-35.13 1026.07,-35.26 1026.94,-35.38 1027.79,-35.22 1028.65,-35.06 1029.41,-34.63 1030.17,-34.20 1030.75,-33.56 1031.34,-32.91 1031.68,-32.11 1032.03,-31.32 1032.11,-30.45 1032.18,-29.58 1031.97,-28.73 1031.77,-27.89 1031.30,-27.15 1030.83,-26.42 1030.16,-25.87 1029.48,-25.32 1028.67,-25.02 1027.85,-24.71 1027.85,-24.71 1027.85,-24.71 1023.14,-24.38 1018.43,-24.04 1015.80,-23.79 1013.17,-23.53 1011.01,-23.56 1008.85,-23.58 1004.39,-23.65 999.94,-23.73 996.40,-24.04 992.85,-24.36 990.17,-24.52 987.49,-24.68 984.26,-24.79 981.03,-24.91 977.11,-24.90 973.20,-24.88 969.21,-24.84 965.23,-24.80 961.69,-24.84 958.15,-24.89 953.85,-24.73 949.54,-24.56 946.16,-24.50 942.78,-24.44 939.42,-24.22 936.06,-24.01 932.05,-23.80 928.05,-23.60 924.15,-23.44 920.25,-23.29 916.40,-23.16 912.54,-23.04 907.93,-22.56 903.32,-22.08 898.25,-21.57 893.18,-21.05 887.27,-20.78 881.37,-20.50 875.70,-20.15 870.03,-19.80 864.44,-19.60 858.85,-19.41 853.16,-19.25 847.47,-19.09 841.92,-18.71 836.37,-18.33 830.10,-18.06 823.82,-17.79 816.58,-17.76 809.33,-17.74 803.04,-17.68 796.75,-17.62 790.48,-17.49 784.22,-17.35 777.55,-17.34 770.88,-17.33 765.64,-17.31 760.40,-17.28 755.44,-17.22 750.49,-17.16 744.30,-17.02 738.11,-16.88 732.22,-16.85 726.33,-16.83 719.84,-16.78 713.36,-16.72 706.10,-16.59 698.83,-16.46 690.26,-16.15 681.69,-15.84 672.68,-15.72 663.67,-15.61 651.03,-15.34 638.39,-15.07 628.69,-15.05 618.99,-15.03 609.39,-14.98 599.79,-14.93 590.76,-14.82 581.72,-14.71 575.38,-14.45 569.04,-14.19 561.01,-14.19 552.98,-14.19 544.23,-14.18 535.49,-14.18 525.06,-14.18 514.64,-14.18 502.71,-14.18 490.78,-14.17 479.32,-14.17 467.86,-14.16 455.05,-14.14 442.23,-14.13 428.67,-14.08 415.11,-14.04 399.82,-13.95 384.53,-13.85 371.61,-13.63 358.69,-13.40 346.30,-12.87 333.91,-12.34 321.80,-12.33 309.69,-12.31 300.26,-12.28 290.83,-12.24 282.80,-12.16 274.76,-12.08 267.53,-11.89 260.30,-11.70 253.36,-11.26 246.42,-10.82 238.64,-10.09 230.87,-9.35 221.74,-8.24 212.61,-7.14 200.84,-5.44 189.08,-3.74 174.38,-2.23 159.69,-0.72 142.12,0.35 124.56,1.43 109.06,2.11 93.56,2.79 78.75,2.82 63.94,2.85 51.24,2.90 38.53,2.94 29.24,3.00 19.94,3.06 13.76,3.14 7.57,3.23 3.78,3.19 0,3.16 -0.37,3.11 -0.75,3.07 -1.11,2.93 -1.47,2.80 -1.78,2.58 -2.09,2.36 -2.35,2.08 -2.60,1.79 -2.78,1.45 -2.95,1.12 -3.04,0.75 -3.14,0.38 -3.14,-0.00 -3.14,-0.38 -3.04,-0.75 -2.95,-1.12 -2.78,-1.45 -2.60,-1.79 -2.35,-2.08 -2.09,-2.36 -1.78,-2.58 -1.46,-2.80 -1.11,-2.93 -0.75,-3.07 -0.37,-3.11 0.00,-3.16 0.00,-3.16 L 0,-3.16 Z"></path></g><g transform="translate(36.363616943359375 18.181819915771484) rotate(0 -12.727264404296875 13.863636016845703)" stroke="none"><path fill="#1e1e1e" d="M 3.84,3.61 Q 3.84,3.61 1.70,5.79 -0.42,7.97 -2.02,9.58 -3.62,11.20 -5.71,13.57 -7.81,15.95 -9.82,18.25 -11.83,20.55 -13.65,22.59 -15.48,24.62 -16.63,26.65 -17.78,28.68 -19.80,30.82 -21.82,32.95 -22.75,33.39 -23.68,33.84 -24.70,33.96 -25.72,34.08 -26.73,33.87 -27.74,33.66 -28.63,33.14 -29.52,32.62 -30.19,31.84 -30.87,31.07 -31.26,30.11 -31.65,29.16 -31.72,28.13 -31.79,27.11 -31.52,26.11 -31.26,25.12 -30.69,24.26 -30.12,23.40 -29.31,22.76 -28.50,22.13 -27.52,21.79 -26.55,21.45 -25.52,21.44 -24.49,21.43 -23.51,21.75 -22.53,22.06 -21.70,22.68 -20.88,23.29 -20.29,24.14 -19.70,24.98 -19.42,25.97 -19.13,26.96 -19.17,27.99 -19.22,29.02 -19.59,29.98 -19.96,30.94 -20.61,31.74 -21.27,32.53 -22.15,33.07 -23.03,33.61 -24.03,33.84 -25.03,34.08 -26.06,33.98 -27.08,33.88 -28.02,33.45 -28.96,33.03 -29.72,32.33 -30.47,31.63 -30.97,30.73 -31.46,29.82 -31.64,28.81 -31.82,27.79 -31.66,26.78 -31.51,25.76 -31.03,24.84 -30.56,23.93 -29.82,23.21 -29.08,22.49 -29.08,22.49 -29.08,22.49 -27.61,20.82 -26.14,19.15 -24.25,17.14 -22.37,15.12 -20.36,12.79 -18.36,10.46 -15.88,8.11 -13.41,5.77 -10.67,3.34 -7.93,0.90 -5.88,-1.35 -3.84,-3.61 -3.35,-4.02 -2.86,-4.42 -2.29,-4.70 -1.72,-4.98 -1.09,-5.11 -0.47,-5.25 0.15,-5.23 0.79,-5.21 1.40,-5.04 2.01,-4.87 2.57,-4.56 3.12,-4.24 3.58,-3.81 4.05,-3.37 4.39,-2.84 4.74,-2.30 4.94,-1.70 5.15,-1.10 5.21,-0.47 5.27,0.15 5.17,0.78 5.08,1.41 4.83,2.00 4.59,2.59 4.21,3.10 3.84,3.61 3.84,3.61 L 3.84,3.61 Z"></path></g><g transform="translate(35 18.636363983154297) rotate(0 -11.363632202148438 12.045455932617188)" stroke="none"><path fill="#1e1e1e" d="M 4.32,3.08 Q 4.32,3.08 3.04,4.94 1.77,6.79 0.43,9.03 -0.91,11.27 -2.51,13.77 -4.10,16.27 -6.70,18.81 -9.29,21.35 -10.98,22.92 -12.68,24.49 -15.26,26.41 -17.84,28.32 -18.64,28.99 -19.45,29.66 -20.42,30.04 -21.40,30.41 -22.44,30.46 -23.49,30.51 -24.49,30.22 -25.50,29.93 -26.36,29.33 -27.22,28.73 -27.84,27.89 -28.47,27.05 -28.79,26.06 -29.11,25.07 -29.10,24.02 -29.09,22.97 -28.75,21.99 -28.40,21.00 -27.76,20.17 -27.12,19.35 -26.25,18.77 -25.38,18.19 -24.36,17.92 -23.35,17.65 -22.31,17.72 -21.27,17.79 -20.30,18.18 -19.33,18.58 -18.54,19.27 -17.75,19.95 -17.22,20.85 -16.69,21.76 -16.48,22.78 -16.26,23.80 -16.39,24.84 -16.51,25.88 -16.96,26.83 -17.41,27.77 -18.14,28.52 -18.86,29.27 -19.79,29.75 -20.72,30.23 -21.76,30.39 -22.79,30.55 -23.82,30.37 -24.85,30.19 -25.77,29.69 -26.69,29.19 -27.40,28.42 -28.11,27.66 -28.54,26.70 -28.97,25.75 -29.07,24.71 -29.17,23.67 -28.94,22.65 -28.70,21.63 -28.15,20.74 -27.61,19.85 -27.61,19.85 -27.61,19.85 -24.85,17.70 -22.09,15.56 -19.73,13.83 -17.36,12.09 -15.45,10.50 -13.54,8.90 -11.78,6.70 -10.01,4.49 -8.50,2.51 -7.00,0.52 -5.66,-1.28 -4.32,-3.08 -3.89,-3.56 -3.45,-4.03 -2.92,-4.38 -2.39,-4.74 -1.79,-4.96 -1.18,-5.17 -0.55,-5.24 0.08,-5.31 0.72,-5.22 1.35,-5.13 1.95,-4.90 2.54,-4.66 3.06,-4.29 3.58,-3.92 4.00,-3.43 4.42,-2.94 4.71,-2.37 4.99,-1.80 5.14,-1.17 5.28,-0.55 5.27,0.08 5.26,0.72 5.10,1.34 4.93,1.96 4.63,2.52 4.32,3.08 4.32,3.08 L 4.32,3.08 Z"></path></g><g transform="translate(38.6363525390625 19.545455932617188) rotate(0 -14.31817626953125 14.318181991577148)" stroke="none"><path fill="#1e1e1e" d="M 4.69,2.50 Q 4.69,2.50 3.67,4.49 2.66,6.48 0.92,8.88 -0.81,11.27 -2.96,13.58 -5.11,15.90 -7.13,17.64 -9.15,19.39 -11.24,20.67 -13.33,21.95 -15.99,24.23 -18.66,26.51 -20.23,28.32 -21.80,30.12 -22.22,31.06 -22.65,32.00 -23.34,32.87 -24.04,33.74 -24.97,34.34 -25.91,34.94 -26.99,35.21 -28.06,35.48 -29.17,35.39 -30.28,35.30 -31.30,34.86 -32.32,34.43 -33.15,33.68 -33.98,32.94 -34.53,31.98 -35.08,31.01 -35.29,29.92 -35.50,28.83 -35.35,27.72 -35.20,26.62 -34.71,25.63 -34.22,24.63 -33.43,23.84 -32.65,23.06 -31.65,22.56 -30.66,22.07 -29.55,21.91 -28.45,21.76 -27.36,21.97 -26.27,22.18 -25.30,22.73 -24.33,23.27 -23.59,24.10 -22.85,24.92 -22.41,25.94 -21.97,26.97 -21.87,28.07 -21.78,29.18 -22.05,30.26 -22.32,31.34 -22.91,32.28 -23.51,33.21 -24.38,33.91 -25.24,34.61 -26.29,34.99 -27.33,35.38 -28.44,35.41 -29.55,35.44 -30.61,35.12 -31.68,34.79 -32.58,34.14 -33.48,33.49 -34.13,32.59 -34.78,31.69 -35.11,30.63 -35.44,29.57 -35.41,28.45 -35.38,27.34 -35.00,26.30 -34.62,25.26 -34.62,25.26 -34.62,25.26 -32.09,21.74 -29.56,18.22 -27.04,16.53 -24.52,14.85 -21.95,12.94 -19.39,11.03 -17.21,9.83 -15.03,8.62 -13.25,7.24 -11.46,5.86 -9.15,3.60 -6.84,1.35 -5.76,-0.57 -4.69,-2.50 -4.32,-3.03 -3.96,-3.55 -3.47,-3.97 -2.99,-4.40 -2.42,-4.69 -1.85,-4.98 -1.23,-5.13 -0.60,-5.28 0.03,-5.28 0.67,-5.27 1.29,-5.12 1.92,-4.96 2.48,-4.66 3.05,-4.36 3.53,-3.93 4.00,-3.50 4.36,-2.97 4.72,-2.44 4.95,-1.84 5.17,-1.23 5.24,-0.60 5.32,0.03 5.24,0.67 5.15,1.30 4.92,1.90 4.69,2.50 4.69,2.50 L 4.69,2.50 Z"></path></g><g transform="translate(21.81817626953125 635.4545097351074) rotate(0 12.045455932617188 17.954559326171875)" stroke="none"><path fill="#1e1e1e" d="M 3.04,-3.99 Q 3.04,-3.99 5.72,-1.82 8.40,0.35 10.22,1.77 12.05,3.18 14.18,4.54 16.31,5.90 18.57,7.89 20.84,9.89 23.36,11.55 25.88,13.22 27.82,14.95 29.76,16.68 30.86,17.46 31.95,18.23 32.42,18.79 32.89,19.34 33.21,19.99 33.53,20.64 33.68,21.35 33.84,22.06 33.82,22.78 33.80,23.50 33.61,24.20 33.42,24.90 33.07,25.53 32.72,26.17 32.22,26.70 31.73,27.23 31.13,27.62 30.52,28.02 29.84,28.26 29.15,28.50 28.43,28.57 27.71,28.64 26.99,28.53 26.28,28.43 25.61,28.16 24.94,27.88 24.35,27.46 23.76,27.03 20.14,25.02 16.52,23.01 12.45,21.05 8.39,19.09 4.87,17.53 1.35,15.96 -0.86,15.19 -3.08,14.42 -3.90,14.27 -4.73,14.12 -5.27,13.84 -5.80,13.55 -6.25,13.15 -6.71,12.74 -7.05,12.24 -7.39,11.74 -7.60,11.17 -7.81,10.60 -7.88,9.99 -7.95,9.39 -7.87,8.79 -7.80,8.18 -7.58,7.62 -7.36,7.05 -7.01,6.55 -6.66,6.05 -6.20,5.65 -5.75,5.25 -5.21,4.98 -4.67,4.70 -4.08,4.56 -3.49,4.41 -2.88,4.42 -2.27,4.42 -1.68,4.57 -1.09,4.72 0.30,6.79 1.70,8.86 4.94,10.31 8.19,11.77 8.95,12.13 9.72,12.50 10.23,12.94 10.74,13.39 11.13,13.95 11.52,14.51 11.76,15.14 12.00,15.77 12.09,16.45 12.17,17.12 12.09,17.80 12.02,18.47 11.78,19.11 11.54,19.74 11.16,20.30 10.77,20.86 10.27,21.31 9.76,21.77 9.16,22.08 8.56,22.40 7.90,22.57 7.24,22.73 6.56,22.73 5.89,22.74 5.23,22.58 4.57,22.42 3.96,22.10 3.36,21.79 2.11,19.98 0.86,18.17 -0.21,16.05 -1.29,13.92 -1.85,13.15 -2.41,12.37 -2.64,11.68 -2.87,10.99 -2.92,10.27 -2.98,9.54 -2.86,8.83 -2.74,8.11 -2.45,7.45 -2.16,6.78 -1.72,6.20 -1.29,5.62 -0.72,5.17 -0.16,4.71 0.49,4.40 1.14,4.09 1.86,3.95 2.57,3.81 3.29,3.84 4.02,3.87 4.71,4.08 5.41,4.28 6.04,4.65 6.66,5.01 7.18,5.52 7.70,6.02 8.09,6.64 8.47,7.25 9.55,9.16 10.63,11.06 12.70,14.32 14.77,17.58 17.42,20.73 20.06,23.89 22.72,26.40 25.38,28.92 27.20,30.03 29.02,31.14 29.44,31.52 29.86,31.91 30.17,32.38 30.49,32.86 30.68,33.39 30.87,33.93 30.93,34.50 30.99,35.06 30.91,35.63 30.83,36.19 30.61,36.72 30.40,37.25 30.07,37.71 29.74,38.17 29.30,38.54 28.87,38.91 28.36,39.16 27.85,39.42 27.29,39.54 26.74,39.67 26.17,39.66 25.60,39.64 25.05,39.50 24.50,39.35 24.00,39.08 23.50,38.80 22.60,36.45 21.69,34.09 20.05,32.50 18.41,30.92 16.73,28.73 15.05,26.54 13.61,24.83 12.16,23.12 10.88,22.21 9.60,21.30 9.24,20.75 8.88,20.21 8.66,19.59 8.44,18.98 8.37,18.33 8.30,17.68 8.39,17.03 8.48,16.39 8.73,15.78 8.97,15.17 9.35,14.64 9.73,14.11 10.23,13.69 10.73,13.26 11.31,12.97 11.89,12.68 12.53,12.53 13.17,12.39 13.82,12.40 14.47,12.41 15.11,12.58 15.74,12.75 16.31,13.06 16.88,13.38 17.36,13.82 17.84,14.26 18.47,16.62 19.09,18.97 19.61,19.72 20.12,20.47 20.23,21.15 20.34,21.83 20.28,22.51 20.23,23.20 20.01,23.85 19.79,24.50 19.42,25.08 19.05,25.66 18.56,26.14 18.06,26.61 17.47,26.95 16.87,27.30 16.21,27.49 15.55,27.68 14.87,27.70 14.18,27.73 13.51,27.59 12.83,27.45 12.21,27.16 11.59,26.86 11.06,26.43 10.53,25.99 10.12,25.44 9.71,24.89 9.44,24.26 9.17,23.63 7.33,22.01 5.50,20.38 3.93,18.70 2.36,17.02 0.60,15.66 -1.14,14.30 -1.81,13.63 -2.48,12.96 -2.90,12.11 -3.32,11.26 -3.45,10.32 -3.58,9.38 -3.40,8.45 -3.22,7.52 -2.76,6.70 -2.29,5.87 -1.58,5.24 -0.88,4.61 -0.01,4.23 0.85,3.86 1.80,3.78 2.74,3.70 3.66,3.93 4.58,4.16 5.38,4.67 6.18,5.18 6.77,5.92 7.37,6.66 7.69,7.55 8.02,8.43 8.05,9.38 8.07,10.33 7.79,11.24 7.52,12.14 6.96,12.91 6.41,13.68 5.64,14.23 4.87,14.79 3.97,15.07 3.06,15.34 2.11,15.32 1.17,15.29 0.28,14.97 -0.60,14.64 -1.34,14.05 -2.08,13.45 -2.59,12.65 -3.10,11.86 -3.33,10.94 -3.56,10.02 -3.48,9.07 -3.41,8.13 -3.03,7.26 -2.66,6.39 -2.03,5.68 -1.39,4.98 -0.57,4.51 0.25,4.04 1.18,3.86 2.11,3.68 3.05,3.81 3.99,3.94 4.84,4.36 5.68,4.78 5.68,4.78 5.68,4.78 8.21,6.93 10.74,9.09 12.51,10.93 14.27,12.78 15.76,14.80 17.24,16.83 18.68,18.65 20.12,20.47 20.23,21.15 20.34,21.83 20.28,22.51 20.23,23.20 20.01,23.85 19.79,24.50 19.42,25.08 19.05,25.66 18.56,26.14 18.06,26.61 17.47,26.95 16.87,27.30 16.21,27.49 15.55,27.68 14.87,27.70 14.18,27.73 13.51,27.59 12.83,27.45 12.21,27.16 11.59,26.86 11.06,26.43 10.53,25.99 10.12,25.44 9.71,24.89 9.44,24.26 9.17,23.63 9.38,22.46 9.60,21.30 9.24,20.75 8.88,20.21 8.66,19.60 8.44,18.98 8.37,18.33 8.30,17.68 8.39,17.03 8.48,16.39 8.73,15.78 8.97,15.17 9.35,14.64 9.73,14.11 10.23,13.69 10.73,13.26 11.31,12.97 11.89,12.68 12.53,12.53 13.17,12.39 13.82,12.40 14.47,12.41 15.11,12.58 15.74,12.75 16.31,13.06 16.88,13.38 17.36,13.82 17.84,14.26 19.03,15.46 20.22,16.66 21.62,18.50 23.02,20.34 24.96,22.80 26.91,25.27 27.97,28.20 29.02,31.14 29.44,31.52 29.86,31.91 30.17,32.38 30.49,32.86 30.68,33.39 30.87,33.93 30.93,34.50 30.99,35.06 30.91,35.63 30.83,36.19 30.61,36.72 30.40,37.25 30.07,37.71 29.74,38.17 29.30,38.54 28.87,38.91 28.36,39.16 27.85,39.42 27.29,39.54 26.74,39.67 26.17,39.66 25.60,39.64 25.05,39.50 24.50,39.35 24.00,39.08 23.50,38.80 21.60,37.11 19.70,35.43 16.58,32.90 13.46,30.36 9.90,27.18 6.33,24.00 3.61,20.95 0.89,17.90 -0.75,15.13 -2.41,12.37 -2.64,11.68 -2.87,10.99 -2.92,10.27 -2.98,9.54 -2.86,8.83 -2.74,8.11 -2.45,7.45 -2.16,6.78 -1.73,6.20 -1.29,5.62 -0.72,5.17 -0.16,4.71 0.49,4.40 1.14,4.09 1.86,3.95 2.57,3.81 3.29,3.84 4.02,3.87 4.71,4.08 5.41,4.28 6.03,4.65 6.66,5.01 7.18,5.52 7.70,6.02 8.09,6.64 8.47,7.25 9.10,9.87 9.72,12.50 10.23,12.94 10.74,13.39 11.13,13.95 11.52,14.51 11.76,15.14 12.00,15.77 12.09,16.45 12.17,17.12 12.09,17.79 12.02,18.47 11.78,19.10 11.54,19.74 11.16,20.30 10.77,20.86 10.27,21.31 9.76,21.77 9.16,22.08 8.56,22.40 7.90,22.57 7.24,22.73 6.56,22.73 5.89,22.74 5.23,22.58 4.57,22.42 3.96,22.10 3.36,21.79 3.20,21.69 3.03,21.60 1.02,19.84 -0.98,18.09 -2.86,16.11 -4.73,14.12 -5.26,13.84 -5.80,13.55 -6.25,13.15 -6.71,12.74 -7.05,12.24 -7.39,11.74 -7.60,11.17 -7.81,10.60 -7.88,9.99 -7.95,9.39 -7.87,8.79 -7.80,8.18 -7.58,7.62 -7.36,7.05 -7.01,6.55 -6.66,6.05 -6.20,5.65 -5.75,5.25 -5.21,4.98 -4.67,4.70 -4.08,4.56 -3.49,4.41 -2.88,4.42 -2.27,4.42 -1.68,4.57 -1.09,4.72 -0.33,5.03 0.42,5.33 2.56,6.25 4.70,7.16 8.36,8.33 12.01,9.50 16.84,10.90 21.66,12.30 24.46,13.58 27.27,14.86 29.61,16.55 31.95,18.23 32.42,18.79 32.89,19.34 33.21,19.99 33.53,20.64 33.68,21.35 33.84,22.05 33.82,22.78 33.80,23.50 33.61,24.20 33.42,24.90 33.07,25.53 32.72,26.17 32.23,26.70 31.73,27.23 31.13,27.62 30.52,28.02 29.84,28.26 29.15,28.50 28.43,28.57 27.71,28.64 26.99,28.53 26.28,28.43 25.61,28.16 24.94,27.88 24.35,27.46 23.77,27.03 23.70,27.03 23.63,27.04 21.46,24.96 19.29,22.88 15.86,20.12 12.43,17.36 10.50,15.26 8.58,13.17 5.57,10.59 2.57,8.00 -0.23,6.00 -3.04,3.99 -3.48,3.57 -3.91,3.15 -4.23,2.63 -4.55,2.12 -4.74,1.54 -4.93,0.97 -4.97,0.36 -5.02,-0.23 -4.92,-0.83 -4.82,-1.43 -4.57,-1.98 -4.33,-2.54 -3.97,-3.02 -3.60,-3.50 -3.13,-3.88 -2.65,-4.26 -2.10,-4.52 -1.56,-4.77 -0.96,-4.89 -0.37,-5.01 0.23,-4.98 0.83,-4.95 1.42,-4.78 2.00,-4.61 2.52,-4.30 3.04,-3.99 3.04,-3.99 L 3.04,-3.99 Z"></path></g><g transform="translate(1064.5453796386719 608.6363334655762) rotate(0 -6.59088134765625 19.318206787109375)" stroke="none"><path fill="#1e1e1e" d="M 4.99,1.39 Q 4.99,1.39 3.97,4.63 2.94,7.87 2.16,10.59 1.38,13.31 0.67,15.44 -0.03,17.58 -0.55,20.03 -1.07,22.48 -1.82,25.19 -2.58,27.90 -3.17,30.53 -3.76,33.16 -4.64,35.52 -5.52,37.89 -6.26,39.27 -7.00,40.65 -7.34,41.35 -7.69,42.04 -8.18,42.64 -8.68,43.23 -9.31,43.69 -9.93,44.15 -10.65,44.44 -11.37,44.74 -12.14,44.85 -12.90,44.97 -13.67,44.89 -14.45,44.82 -15.18,44.56 -15.91,44.31 -16.56,43.89 -17.21,43.46 -17.74,42.90 -18.27,42.33 -18.65,41.65 -19.03,40.98 -19.23,40.23 -19.44,39.48 -19.46,38.71 -19.48,37.93 -19.31,37.17 -19.15,36.42 -19.16,32.14 -19.17,27.86 -19.22,24.85 -19.28,21.83 -19.12,20.86 -18.97,19.88 -18.51,19.01 -18.05,18.13 -17.33,17.45 -16.62,16.77 -15.72,16.36 -14.83,15.94 -13.85,15.83 -12.86,15.72 -11.90,15.93 -10.93,16.14 -10.09,16.64 -9.24,17.15 -8.60,17.90 -7.96,18.65 -7.59,19.57 -7.22,20.48 -7.16,21.47 -7.11,22.46 -7.37,23.41 -7.63,24.36 -8.18,25.18 -8.73,26.00 -9.52,26.60 -10.30,27.20 -11.24,27.51 -12.17,27.83 -13.16,27.84 -14.15,27.84 -15.08,27.53 -16.02,27.21 -16.81,26.62 -17.60,26.02 -18.15,25.21 -18.71,24.39 -18.97,23.44 -19.24,22.49 -19.19,21.50 -19.14,20.52 -18.78,19.60 -18.41,18.68 -17.78,17.93 -17.14,17.17 -16.30,16.66 -15.45,16.15 -14.49,15.94 -13.52,15.72 -12.54,15.82 -11.56,15.93 -10.66,16.34 -9.77,16.75 -9.05,17.43 -8.33,18.11 -7.86,18.98 -7.40,19.85 -7.24,20.82 -7.07,21.80 -7.07,21.80 -7.07,21.79 -7.11,24.81 -7.15,27.82 -6.97,30.94 -6.78,34.06 -6.89,37.36 -7.00,40.65 -7.34,41.35 -7.68,42.04 -8.18,42.64 -8.68,43.23 -9.31,43.69 -9.93,44.15 -10.65,44.44 -11.37,44.74 -12.13,44.85 -12.90,44.97 -13.67,44.89 -14.45,44.82 -15.18,44.56 -15.91,44.31 -16.56,43.89 -17.21,43.46 -17.74,42.90 -18.27,42.33 -18.65,41.65 -19.03,40.98 -19.23,40.23 -19.44,39.48 -19.46,38.71 -19.48,37.93 -19.31,37.17 -19.15,36.42 -18.99,36.22 -18.82,36.01 -17.52,33.65 -16.22,31.30 -15.25,28.88 -14.28,26.47 -13.47,24.16 -12.65,21.86 -11.73,19.53 -10.80,17.21 -9.48,13.87 -8.16,10.53 -7.38,7.86 -6.60,5.19 -5.80,1.89 -4.99,-1.39 -4.75,-1.97 -4.51,-2.55 -4.14,-3.05 -3.77,-3.56 -3.29,-3.96 -2.81,-4.36 -2.25,-4.63 -1.68,-4.90 -1.07,-5.03 -0.46,-5.16 0.16,-5.14 0.78,-5.13 1.38,-4.96 1.99,-4.79 2.53,-4.48 3.08,-4.17 3.53,-3.74 3.99,-3.31 4.33,-2.79 4.66,-2.26 4.87,-1.67 5.07,-1.08 5.13,-0.45 5.18,0.16 5.09,0.78 4.99,1.39 4.99,1.39 L 4.99,1.39 Z"></path></g><g transform="translate(1051.3636169433594 612.7272758483887) rotate(0 -0.68182373046875 13.409088134765625)" stroke="none"><path fill="#1e1e1e" d="M -5.19,-0.74 Q -5.19,-0.74 -5.00,-2.58 -4.81,-4.42 -4.82,-6.65 -4.83,-8.89 -4.57,-11.46 -4.30,-14.04 -4.10,-14.57 -3.90,-15.11 -3.67,-15.80 -3.45,-16.49 -3.06,-17.10 -2.67,-17.72 -2.15,-18.23 -1.63,-18.73 -1.00,-19.10 -0.37,-19.46 0.32,-19.67 1.01,-19.87 1.74,-19.90 2.47,-19.93 3.18,-19.79 3.89,-19.65 4.55,-19.34 5.21,-19.03 5.77,-18.57 6.34,-18.11 6.78,-17.53 7.22,-16.95 7.50,-16.29 7.79,-15.62 7.91,-14.90 8.03,-14.18 7.97,-13.46 7.92,-12.73 8.13,-10.51 8.34,-8.29 7.64,-4.64 6.94,-0.99 5.95,2.64 4.97,6.28 3.60,10.06 2.24,13.83 0.56,18.06 -1.11,22.28 -2.60,25.78 -4.10,29.29 -5.15,32.14 -6.20,35.00 -7.03,37.90 -7.87,40.81 -8.15,41.31 -8.44,41.81 -8.83,42.22 -9.23,42.64 -9.71,42.95 -10.19,43.26 -10.74,43.44 -11.28,43.63 -11.85,43.68 -12.43,43.73 -12.99,43.64 -13.56,43.55 -14.09,43.33 -14.62,43.11 -15.08,42.76 -15.54,42.42 -15.91,41.98 -16.27,41.54 -16.52,41.02 -16.77,40.50 -16.89,39.94 -17.01,39.38 -16.99,38.80 -16.97,38.23 -16.81,37.68 -16.66,37.13 -16.20,33.50 -15.74,29.87 -14.53,25.79 -13.31,21.70 -11.74,17.20 -10.17,12.70 -8.71,8.92 -7.25,5.14 -6.73,2.73 -6.22,0.33 -5.87,-2.10 -5.52,-4.53 -5.31,-5.04 -5.11,-5.54 -4.79,-5.98 -4.47,-6.42 -4.06,-6.77 -3.64,-7.12 -3.16,-7.36 -2.67,-7.60 -2.14,-7.72 -1.61,-7.83 -1.07,-7.82 -0.53,-7.81 -0.00,-7.66 0.51,-7.52 0.98,-7.26 1.46,-7.00 1.86,-6.63 2.25,-6.26 2.55,-5.80 2.85,-5.35 3.03,-4.84 3.21,-4.33 3.26,-3.79 3.31,-3.25 3.24,-2.71 3.16,-2.17 3.51,3.46 3.86,9.11 3.38,14.30 2.90,19.50 1.82,25.12 0.74,30.73 -0.08,34.66 -0.92,38.58 -1.08,41.21 -1.25,43.83 -1.38,44.30 -1.52,44.77 -1.76,45.19 -2.00,45.62 -2.34,45.97 -2.68,46.32 -3.09,46.58 -3.50,46.85 -3.96,47.00 -4.43,47.16 -4.91,47.20 -5.40,47.24 -5.88,47.16 -6.36,47.08 -6.81,46.89 -7.26,46.70 -7.65,46.41 -8.04,46.12 -8.35,45.74 -8.66,45.36 -8.87,44.92 -9.08,44.48 -9.18,44.00 -9.28,43.53 -9.26,43.04 -9.24,42.55 -8.06,36.52 -6.88,30.49 -4.89,23.54 -2.91,16.60 -1.12,9.17 0.66,1.74 2.26,-3.84 3.87,-9.43 5.71,-13.24 7.56,-17.06 9.78,-15.79 12.00,-14.52 12.41,-11.90 12.82,-9.28 11.75,-4.53 10.68,0.21 9.27,6.48 7.87,12.74 6.03,19.39 4.20,26.04 3.33,29.96 2.46,33.87 2.26,34.80 2.05,35.74 1.92,36.13 1.78,36.52 1.56,36.86 1.34,37.21 1.04,37.49 0.74,37.77 0.38,37.97 0.02,38.17 -0.37,38.28 -0.77,38.39 -1.18,38.41 -1.59,38.42 -1.99,38.33 -2.39,38.24 -2.76,38.06 -3.13,37.88 -3.45,37.62 -3.76,37.35 -4.00,37.02 -4.25,36.69 -4.40,36.31 -4.56,35.93 -4.62,35.52 -4.68,35.11 -4.64,34.71 -4.61,34.30 -3.28,28.14 -1.96,21.98 -0.26,15.44 1.43,8.90 2.96,2.76 4.48,-3.38 5.46,-7.11 6.44,-10.85 6.79,-12.47 7.14,-14.08 7.30,-14.47 7.46,-14.87 7.71,-15.21 7.97,-15.55 8.29,-15.82 8.61,-16.09 9.00,-16.28 9.38,-16.46 9.79,-16.55 10.20,-16.64 10.63,-16.63 11.05,-16.62 11.46,-16.51 11.87,-16.39 12.24,-16.19 12.60,-15.98 12.91,-15.69 13.22,-15.40 13.45,-15.04 13.68,-14.69 13.82,-14.29 13.96,-13.89 14.00,-13.47 14.04,-13.04 13.98,-12.63 13.91,-12.21 14.43,-9.88 14.94,-7.56 14.75,-3.35 14.55,0.85 13.59,6.08 12.63,11.31 11.66,15.82 10.69,20.33 10.54,22.84 10.38,25.36 10.26,26.60 10.14,27.84 10.02,28.29 9.90,28.73 9.67,29.14 9.45,29.55 9.13,29.89 8.82,30.23 8.43,30.48 8.04,30.74 7.60,30.89 7.17,31.05 6.70,31.09 6.24,31.14 5.78,31.07 5.32,31.00 4.89,30.83 4.46,30.65 4.09,30.38 3.71,30.11 3.41,29.75 3.11,29.40 2.90,28.98 2.70,28.57 2.60,28.12 2.50,27.66 2.51,27.20 2.52,26.73 2.45,21.50 2.37,16.27 2.68,13.23 2.98,10.18 3.00,6.53 3.02,2.89 3.19,2.15 3.36,1.40 3.76,0.75 4.16,0.10 4.74,-0.37 5.32,-0.86 6.03,-1.14 6.74,-1.42 7.50,-1.45 8.26,-1.49 9.00,-1.28 9.73,-1.07 10.36,-0.64 10.98,-0.21 11.44,0.39 11.90,1.00 12.13,1.73 12.37,2.45 12.37,3.21 12.36,3.97 12.11,4.69 11.87,5.41 11.40,6.01 10.93,6.62 10.30,7.04 9.67,7.46 8.93,7.66 8.20,7.86 7.44,7.81 6.68,7.77 5.97,7.48 5.27,7.19 4.69,6.70 4.11,6.20 3.72,5.54 3.34,4.89 3.18,4.14 3.02,3.40 3.11,2.64 3.20,1.88 3.52,1.20 3.85,0.51 4.37,-0.03 4.90,-0.58 5.58,-0.93 6.25,-1.28 7.00,-1.40 7.76,-1.52 8.51,-1.39 9.26,-1.26 9.93,-0.90 10.60,-0.54 11.12,0.01 11.64,0.56 11.95,1.26 12.27,1.95 12.34,2.71 12.42,3.47 12.42,3.47 12.42,3.46 11.90,7.34 11.39,11.22 10.97,14.05 10.55,16.88 10.27,19.89 10.00,22.90 10.07,25.37 10.14,27.84 10.02,28.29 9.90,28.73 9.67,29.14 9.45,29.55 9.13,29.89 8.82,30.23 8.43,30.48 8.04,30.74 7.60,30.89 7.17,31.05 6.70,31.09 6.24,31.14 5.78,31.07 5.32,31.00 4.89,30.83 4.46,30.65 4.09,30.38 3.71,30.11 3.41,29.76 3.11,29.40 2.90,28.98 2.70,28.57 2.60,28.12 2.50,27.66 2.51,27.20 2.52,26.73 2.98,25.54 3.43,24.35 4.02,21.75 4.60,19.15 5.38,14.70 6.15,10.25 6.83,5.47 7.51,0.69 7.50,-3.26 7.48,-7.22 7.31,-10.65 7.14,-14.08 7.30,-14.47 7.46,-14.87 7.71,-15.21 7.96,-15.55 8.29,-15.82 8.61,-16.09 8.99,-16.28 9.38,-16.46 9.79,-16.55 10.20,-16.64 10.63,-16.63 11.05,-16.62 11.46,-16.51 11.87,-16.39 12.24,-16.19 12.60,-15.98 12.91,-15.69 13.22,-15.40 13.45,-15.04 13.68,-14.69 13.82,-14.29 13.96,-13.89 14.00,-13.47 14.04,-13.05 13.98,-12.63 13.91,-12.21 13.14,-10.71 12.37,-9.21 11.31,-5.61 10.26,-2.00 8.85,4.18 7.44,10.38 5.93,16.89 4.42,23.40 3.23,29.57 2.05,35.74 1.92,36.13 1.78,36.52 1.56,36.86 1.34,37.21 1.04,37.49 0.74,37.77 0.38,37.97 0.02,38.17 -0.37,38.28 -0.76,38.39 -1.18,38.41 -1.59,38.42 -1.99,38.33 -2.39,38.24 -2.76,38.06 -3.13,37.88 -3.45,37.62 -3.76,37.35 -4.00,37.02 -4.25,36.69 -4.40,36.31 -4.56,35.93 -4.62,35.52 -4.68,35.12 -4.64,34.71 -4.61,34.30 -4.08,33.42 -3.55,32.55 -2.69,28.51 -1.84,24.46 -0.23,17.94 1.37,11.41 2.53,5.11 3.69,-1.18 4.35,-5.08 5.01,-8.97 5.19,-11.32 5.37,-13.67 7.62,-10.74 9.87,-7.80 8.48,-2.31 7.08,3.18 5.50,10.78 3.93,18.38 2.30,25.27 0.67,32.15 -0.28,37.99 -1.25,43.83 -1.38,44.30 -1.52,44.77 -1.76,45.19 -2.00,45.62 -2.34,45.97 -2.68,46.32 -3.09,46.58 -3.50,46.84 -3.96,47.00 -4.43,47.16 -4.91,47.20 -5.40,47.24 -5.88,47.16 -6.36,47.08 -6.81,46.89 -7.26,46.70 -7.65,46.41 -8.04,46.12 -8.35,45.74 -8.66,45.36 -8.87,44.92 -9.08,44.48 -9.18,44.00 -9.28,43.53 -9.26,43.04 -9.24,42.55 -9.00,41.96 -8.77,41.37 -8.24,39.30 -7.71,37.23 -7.00,33.41 -6.29,29.58 -5.60,24.35 -4.90,19.11 -4.89,14.16 -4.88,9.20 -5.02,5.61 -5.15,2.02 -5.34,-1.25 -5.52,-4.53 -5.31,-5.04 -5.11,-5.54 -4.79,-5.98 -4.47,-6.42 -4.06,-6.77 -3.64,-7.12 -3.16,-7.36 -2.67,-7.60 -2.14,-7.72 -1.61,-7.83 -1.07,-7.82 -0.53,-7.81 -0.00,-7.66 0.51,-7.52 0.98,-7.26 1.46,-7.00 1.86,-6.63 2.25,-6.26 2.55,-5.80 2.85,-5.35 3.03,-4.84 3.21,-4.33 3.26,-3.79 3.32,-3.25 3.24,-2.71 3.16,-2.17 2.28,0.15 1.41,2.48 0.52,5.06 -0.36,7.64 -1.59,11.27 -2.82,14.90 -3.90,19.25 -4.98,23.59 -6.38,29.82 -7.78,36.05 -7.82,38.43 -7.87,40.81 -8.15,41.31 -8.44,41.81 -8.83,42.22 -9.23,42.64 -9.71,42.95 -10.19,43.26 -10.74,43.44 -11.28,43.63 -11.85,43.68 -12.43,43.73 -12.99,43.64 -13.56,43.55 -14.09,43.33 -14.62,43.11 -15.08,42.77 -15.54,42.42 -15.91,41.98 -16.27,41.54 -16.52,41.02 -16.77,40.50 -16.89,39.94 -17.01,39.38 -16.99,38.80 -16.97,38.23 -16.81,37.68 -16.66,37.13 -15.41,34.53 -14.16,31.94 -13.00,29.04 -11.84,26.15 -10.59,22.88 -9.35,19.62 -8.26,15.29 -7.17,10.96 -6.34,7.53 -5.51,4.10 -5.02,0.62 -4.52,-2.84 -4.21,-5.48 -3.89,-8.11 -3.90,-11.61 -3.90,-15.11 -3.67,-15.80 -3.45,-16.49 -3.06,-17.10 -2.67,-17.72 -2.15,-18.22 -1.63,-18.73 -1.00,-19.10 -0.37,-19.46 0.32,-19.67 1.01,-19.87 1.74,-19.90 2.47,-19.93 3.18,-19.79 3.89,-19.65 4.55,-19.34 5.21,-19.03 5.77,-18.57 6.34,-18.11 6.78,-17.53 7.22,-16.95 7.50,-16.29 7.79,-15.62 7.91,-14.90 8.03,-14.18 7.97,-13.46 7.92,-12.73 7.22,-10.59 6.51,-8.44 6.18,-5.67 5.85,-2.89 5.52,-1.07 5.19,0.74 5.02,1.35 4.86,1.96 4.55,2.51 4.25,3.07 3.82,3.53 3.39,3.99 2.86,4.34 2.33,4.69 1.74,4.90 1.14,5.11 0.51,5.18 -0.11,5.24 -0.73,5.15 -1.36,5.06 -1.94,4.82 -2.53,4.59 -3.04,4.22 -3.56,3.85 -3.97,3.37 -4.37,2.88 -4.66,2.32 -4.94,1.75 -5.08,1.13 -5.22,0.52 -5.20,-0.11 -5.19,-0.74 -5.19,-0.74 L -5.19,-0.74 Z"></path></g><g transform="translate(1069.5453796386719 43.181819915771484) rotate(0 -6.1363525390625 -4.5454559326171875)" stroke="none"><path fill="#1e1e1e" d="M -2.79,3.49 Q -2.79,3.49 -5.92,0.70 -9.04,-2.08 -12.22,-4.56 -15.40,-7.04 -18.26,-9.47 -21.11,-11.89 -23.42,-13.49 -25.72,-15.08 -26.05,-15.48 -26.37,-15.89 -26.59,-16.35 -26.81,-16.82 -26.91,-17.33 -27.01,-17.83 -26.98,-18.35 -26.96,-18.86 -26.81,-19.36 -26.66,-19.85 -26.40,-20.30 -26.14,-20.74 -25.78,-21.11 -25.42,-21.48 -24.98,-21.75 -24.55,-22.03 -24.06,-22.19 -23.57,-22.35 -23.05,-22.39 -22.54,-22.42 -22.03,-22.34 -21.52,-22.25 -21.05,-22.05 -20.57,-21.84 -20.16,-21.53 -19.75,-21.21 -18.14,-19.56 -16.53,-17.91 -14.54,-16.12 -12.56,-14.32 -10.14,-12.28 -7.72,-10.23 -5.59,-8.62 -3.46,-7.02 -1.57,-5.64 0.32,-4.26 0.71,-3.79 1.09,-3.33 1.36,-2.79 1.62,-2.24 1.75,-1.65 1.87,-1.06 1.86,-0.46 1.84,0.14 1.67,0.72 1.51,1.30 1.21,1.83 0.92,2.36 0.50,2.80 0.09,3.24 -0.41,3.56 -0.92,3.89 -1.49,4.09 -2.06,4.29 -2.67,4.34 -3.27,4.40 -3.86,4.30 -4.46,4.21 -5.02,3.98 -5.58,3.75 -6.07,3.39 -6.55,3.03 -8.82,-0.45 -11.09,-3.93 -13.28,-7.63 -15.47,-11.32 -17.57,-13.47 -19.67,-15.63 -21.40,-17.24 -23.12,-18.84 -23.46,-19.28 -23.80,-19.72 -24.02,-20.23 -24.24,-20.74 -24.34,-21.29 -24.43,-21.84 -24.39,-22.39 -24.35,-22.95 -24.18,-23.48 -24.01,-24.00 -23.71,-24.48 -23.42,-24.95 -23.02,-25.34 -22.62,-25.72 -22.14,-26.01 -21.67,-26.29 -21.13,-26.45 -20.60,-26.61 -20.05,-26.63 -19.49,-26.66 -18.94,-26.55 -18.40,-26.45 -17.90,-26.21 -17.39,-25.98 -16.96,-25.63 -16.52,-25.28 -13.56,-21.51 -10.60,-17.74 -7.40,-14.36 -4.19,-10.98 -0.76,-7.48 2.67,-3.99 5.41,-1.72 8.15,0.54 10.41,2.08 12.67,3.61 13.15,3.82 13.63,4.03 13.98,4.42 14.34,4.82 14.59,5.29 14.84,5.75 14.97,6.27 15.10,6.78 15.10,7.31 15.10,7.85 14.98,8.36 14.85,8.88 14.61,9.35 14.37,9.82 14.02,10.22 13.67,10.62 13.23,10.92 12.80,11.23 12.30,11.42 11.81,11.61 11.28,11.67 10.75,11.74 10.23,11.68 9.70,11.62 9.20,11.43 8.70,11.25 8.27,10.95 7.83,10.65 6.34,8.53 4.86,6.40 2.91,4.19 0.95,1.97 -2.92,-1.11 -6.81,-4.21 -11.39,-7.52 -15.96,-10.83 -18.19,-12.06 -20.42,-13.30 -20.79,-13.61 -21.15,-13.93 -21.43,-14.32 -21.71,-14.72 -21.89,-15.17 -22.07,-15.62 -22.13,-16.10 -22.19,-16.58 -22.14,-17.06 -22.09,-17.54 -21.92,-17.99 -21.76,-18.45 -21.49,-18.85 -21.22,-19.25 -20.86,-19.57 -20.50,-19.90 -20.07,-20.13 -19.65,-20.36 -19.18,-20.48 -18.71,-20.60 -18.23,-20.61 -17.75,-20.61 -17.28,-20.50 -16.81,-20.39 -16.37,-20.17 -15.94,-19.95 -15.59,-17.73 -15.24,-15.51 -11.11,-11.10 -6.99,-6.69 -4.50,-3.93 -2.01,-1.18 -0.24,0.58 1.52,2.35 2.97,3.36 4.42,4.37 4.73,4.81 5.04,5.25 5.23,5.75 5.43,6.25 5.49,6.78 5.56,7.31 5.50,7.85 5.44,8.38 5.25,8.88 5.06,9.39 4.76,9.83 4.46,10.28 4.06,10.63 3.66,10.99 3.19,11.25 2.71,11.50 2.19,11.63 1.67,11.76 1.13,11.77 0.60,11.77 0.07,11.64 -0.44,11.52 -0.92,11.27 -1.39,11.03 -1.80,10.67 -2.20,10.32 -4.99,7.12 -7.77,3.93 -9.70,1.98 -11.64,0.03 -13.60,-1.40 -15.57,-2.83 -16.70,-3.59 -17.83,-4.35 -18.25,-4.77 -18.68,-5.19 -18.99,-5.70 -19.31,-6.21 -19.49,-6.78 -19.67,-7.35 -19.71,-7.95 -19.76,-8.55 -19.65,-9.14 -19.55,-9.73 -19.31,-10.28 -19.06,-10.83 -18.70,-11.30 -18.33,-11.78 -17.86,-12.15 -17.40,-12.52 -16.85,-12.77 -16.31,-13.02 -15.72,-13.13 -15.13,-13.25 -14.53,-13.21 -13.93,-13.18 -13.36,-13.01 -12.79,-12.84 -12.27,-12.53 -11.76,-12.22 -10.95,-9.63 -10.14,-7.04 -7.07,-2.99 -4.00,1.05 -1.73,3.99 0.52,6.93 2.22,8.28 3.93,9.64 5.37,10.77 6.81,11.90 7.29,12.50 7.78,13.10 8.04,13.83 8.31,14.55 8.33,15.32 8.35,16.09 8.13,16.83 7.90,17.56 7.45,18.19 7.00,18.82 6.38,19.27 5.75,19.72 5.01,19.94 4.28,20.17 3.51,20.15 2.74,20.13 2.01,19.86 1.29,19.60 0.69,19.12 0.09,18.63 -0.32,17.98 -0.74,17.33 -0.92,16.59 -1.11,15.84 -1.05,15.07 -0.98,14.30 -0.68,13.59 -0.37,12.88 0.13,12.31 0.64,11.74 1.32,11.36 1.99,10.98 2.74,10.83 3.50,10.69 4.26,10.79 5.03,10.89 5.72,11.24 6.41,11.58 6.96,12.12 7.50,12.67 7.84,13.36 8.19,14.05 8.29,14.81 8.39,15.58 8.25,16.33 8.10,17.09 7.73,17.76 7.35,18.43 6.77,18.95 6.20,19.46 5.49,19.77 4.78,20.07 4.01,20.14 3.25,20.20 2.50,20.01 1.75,19.83 1.10,19.41 0.45,19.00 0.45,19.00 0.45,19.00 -0.82,17.69 -2.10,16.38 -4.08,14.43 -6.07,12.49 -8.78,9.50 -11.49,6.52 -13.91,3.44 -16.33,0.36 -17.08,-1.99 -17.83,-4.35 -18.25,-4.77 -18.68,-5.19 -18.99,-5.70 -19.31,-6.21 -19.49,-6.78 -19.67,-7.35 -19.71,-7.95 -19.76,-8.55 -19.65,-9.14 -19.55,-9.73 -19.31,-10.28 -19.06,-10.83 -18.70,-11.30 -18.33,-11.78 -17.86,-12.15 -17.40,-12.52 -16.85,-12.77 -16.31,-13.02 -15.72,-13.13 -15.13,-13.25 -14.53,-13.21 -13.93,-13.18 -13.36,-13.01 -12.79,-12.84 -12.27,-12.53 -11.76,-12.22 -10.76,-11.29 -9.77,-10.35 -7.37,-8.42 -4.96,-6.48 -2.76,-4.19 -0.55,-1.89 1.93,1.23 4.42,4.37 4.73,4.81 5.04,5.25 5.23,5.75 5.43,6.25 5.49,6.78 5.56,7.31 5.50,7.85 5.44,8.38 5.25,8.88 5.06,9.39 4.76,9.83 4.46,10.28 4.06,10.63 3.66,10.99 3.19,11.25 2.71,11.50 2.19,11.63 1.67,11.76 1.13,11.77 0.60,11.77 0.07,11.64 -0.44,11.52 -0.92,11.27 -1.39,11.03 -1.80,10.67 -2.20,10.32 -3.35,8.99 -4.49,7.65 -5.96,5.74 -7.43,3.83 -10.10,1.01 -12.77,-1.81 -15.67,-4.96 -18.57,-8.12 -19.50,-10.71 -20.42,-13.30 -20.79,-13.61 -21.15,-13.93 -21.43,-14.32 -21.71,-14.72 -21.89,-15.17 -22.07,-15.62 -22.13,-16.10 -22.19,-16.58 -22.14,-17.06 -22.09,-17.54 -21.92,-17.99 -21.76,-18.45 -21.49,-18.85 -21.22,-19.25 -20.86,-19.57 -20.50,-19.90 -20.08,-20.13 -19.65,-20.36 -19.18,-20.48 -18.71,-20.60 -18.23,-20.61 -17.75,-20.61 -17.28,-20.50 -16.81,-20.39 -16.37,-20.17 -15.94,-19.95 -13.88,-18.47 -11.82,-16.99 -6.90,-13.91 -1.98,-10.84 2.93,-7.51 7.85,-4.18 10.74,-0.07 13.63,4.03 13.98,4.42 14.34,4.82 14.59,5.29 14.84,5.75 14.97,6.27 15.10,6.78 15.10,7.31 15.10,7.84 14.98,8.36 14.85,8.88 14.61,9.35 14.37,9.82 14.02,10.22 13.67,10.62 13.23,10.92 12.80,11.23 12.30,11.42 11.81,11.61 11.28,11.67 10.75,11.74 10.23,11.68 9.70,11.62 9.20,11.43 8.70,11.25 8.27,10.95 7.83,10.65 7.45,10.34 7.08,10.03 5.29,8.09 3.49,6.15 0.58,3.72 -2.32,1.30 -6.02,-1.93 -9.72,-5.17 -13.48,-8.41 -17.24,-11.65 -20.18,-15.25 -23.12,-18.84 -23.46,-19.28 -23.80,-19.72 -24.02,-20.23 -24.24,-20.74 -24.34,-21.29 -24.43,-21.84 -24.39,-22.39 -24.35,-22.95 -24.18,-23.47 -24.01,-24.00 -23.71,-24.48 -23.42,-24.95 -23.02,-25.34 -22.62,-25.72 -22.14,-26.01 -21.67,-26.29 -21.13,-26.45 -20.60,-26.61 -20.05,-26.63 -19.49,-26.66 -18.95,-26.55 -18.40,-26.45 -17.90,-26.21 -17.39,-25.98 -16.96,-25.63 -16.52,-25.28 -14.95,-23.53 -13.37,-21.78 -10.76,-19.12 -8.16,-16.46 -5.43,-13.12 -2.71,-9.78 -1.19,-7.02 0.32,-4.26 0.70,-3.79 1.09,-3.33 1.36,-2.79 1.62,-2.24 1.75,-1.65 1.87,-1.06 1.86,-0.46 1.84,0.14 1.67,0.72 1.51,1.30 1.21,1.83 0.92,2.36 0.50,2.80 0.09,3.24 -0.41,3.56 -0.92,3.89 -1.49,4.09 -2.06,4.29 -2.66,4.34 -3.27,4.40 -3.86,4.30 -4.46,4.21 -5.02,3.98 -5.58,3.75 -6.07,3.39 -6.55,3.03 -7.87,1.63 -9.20,0.22 -11.33,-1.53 -13.46,-3.29 -16.16,-5.48 -18.85,-7.67 -20.90,-9.69 -22.95,-11.71 -24.34,-13.40 -25.72,-15.08 -26.05,-15.48 -26.37,-15.88 -26.59,-16.35 -26.81,-16.82 -26.91,-17.33 -27.01,-17.83 -26.98,-18.35 -26.96,-18.86 -26.81,-19.36 -26.66,-19.85 -26.40,-20.30 -26.14,-20.74 -25.78,-21.11 -25.42,-21.48 -24.98,-21.75 -24.55,-22.03 -24.06,-22.19 -23.57,-22.35 -23.05,-22.39 -22.54,-22.42 -22.03,-22.34 -21.52,-22.25 -21.05,-22.05 -20.57,-21.84 -20.16,-21.53 -19.75,-21.21 -18.01,-19.39 -16.26,-17.56 -13.66,-15.32 -11.05,-13.07 -7.53,-10.72 -4.01,-8.37 -0.61,-5.93 2.79,-3.49 3.17,-3.10 3.55,-2.72 3.82,-2.25 4.09,-1.79 4.25,-1.27 4.40,-0.76 4.43,-0.22 4.46,0.31 4.36,0.84 4.25,1.37 4.03,1.86 3.80,2.35 3.46,2.77 3.13,3.19 2.70,3.52 2.27,3.85 1.78,4.06 1.28,4.28 0.75,4.37 0.22,4.46 -0.31,4.43 -0.85,4.39 -1.36,4.22 -1.87,4.06 -2.33,3.77 -2.79,3.49 -2.79,3.49 L -2.79,3.49 Z"></path></g><g transform="translate(1058.6363220214844 35.000003814697266) rotate(0 -10.90911865234375 -12.500001907348633)" stroke="none"><path fill="#1e1e1e" d="M -3.20,3.84 Q -3.20,3.84 -6.17,1.03 -9.14,-1.77 -11.85,-4.11 -14.56,-6.46 -16.90,-7.98 -19.23,-9.51 -20.75,-11.37 -22.26,-13.24 -23.97,-15.43 -25.69,-17.62 -26.73,-19.21 -27.76,-20.81 -28.10,-21.41 -28.44,-22.00 -28.63,-22.67 -28.82,-23.33 -28.84,-24.02 -28.87,-24.70 -28.73,-25.38 -28.59,-26.05 -28.29,-26.67 -27.99,-27.29 -27.55,-27.82 -27.12,-28.35 -26.56,-28.77 -26.01,-29.18 -25.38,-29.44 -24.74,-29.71 -24.06,-29.82 -23.38,-29.92 -22.70,-29.87 -22.01,-29.81 -21.36,-29.59 -20.71,-29.36 -20.13,-28.99 -19.55,-28.62 -19.07,-28.12 -18.60,-27.63 -16.32,-25.59 -14.05,-23.55 -11.72,-21.66 -9.40,-19.77 -7.46,-17.98 -5.51,-16.19 -5.03,-15.56 -4.54,-14.94 -4.22,-14.21 -3.89,-13.49 -3.75,-12.71 -3.61,-11.93 -3.66,-11.13 -3.71,-10.34 -3.95,-9.58 -4.19,-8.83 -4.60,-8.15 -5.02,-7.47 -5.58,-6.91 -6.14,-6.35 -6.82,-5.95 -7.50,-5.54 -8.26,-5.30 -9.02,-5.07 -9.81,-5.03 -10.61,-4.98 -11.39,-5.13 -12.17,-5.27 -12.89,-5.60 -13.61,-5.93 -14.23,-6.42 -14.86,-6.91 -16.49,-8.47 -18.13,-10.03 -19.66,-11.92 -21.19,-13.80 -21.62,-14.50 -22.05,-15.20 -22.31,-15.98 -22.56,-16.76 -22.62,-17.58 -22.69,-18.40 -22.55,-19.21 -22.41,-20.02 -22.08,-20.77 -21.76,-21.53 -21.26,-22.18 -20.76,-22.84 -20.12,-23.35 -19.48,-23.87 -18.74,-24.21 -17.99,-24.56 -17.18,-24.72 -16.38,-24.88 -15.56,-24.84 -14.74,-24.80 -13.95,-24.57 -13.16,-24.33 -12.45,-23.92 -11.74,-23.50 -11.16,-22.93 -10.57,-22.35 -8.29,-19.43 -6.00,-16.51 -8.05,-14.45 -10.09,-12.39 -11.47,-10.55 -12.85,-8.72 -13.56,-11.41 -14.26,-14.11 -14.95,-15.30 -15.63,-16.49 -15.88,-17.27 -16.14,-18.05 -16.20,-18.87 -16.25,-19.68 -16.12,-20.49 -15.98,-21.30 -15.65,-22.05 -15.32,-22.80 -14.82,-23.45 -14.33,-24.10 -13.69,-24.61 -13.05,-25.12 -12.31,-25.47 -11.56,-25.81 -10.76,-25.97 -9.96,-26.12 -9.14,-26.08 -8.32,-26.04 -7.54,-25.81 -6.75,-25.57 -6.05,-25.16 -5.34,-24.74 -4.76,-24.17 -4.17,-23.60 -3.74,-22.90 -3.31,-22.20 -1.16,-19.34 0.99,-16.48 2.35,-14.14 3.71,-11.80 4.86,-9.84 6.01,-7.88 6.53,-6.97 7.04,-6.06 7.36,-5.35 7.68,-4.65 7.82,-3.89 7.96,-3.13 7.91,-2.36 7.87,-1.58 7.64,-0.84 7.41,-0.11 7.01,0.55 6.61,1.21 6.06,1.76 5.52,2.30 4.86,2.71 4.19,3.11 3.46,3.34 2.72,3.57 1.95,3.62 1.17,3.67 0.41,3.53 -0.34,3.39 -1.04,3.07 -1.75,2.76 -2.36,2.28 -2.97,1.80 -3.45,1.19 -3.93,0.59 -5.94,-1.40 -7.96,-3.39 -10.61,-5.50 -13.27,-7.61 -14.60,-8.23 -15.93,-8.85 -16.51,-9.37 -17.08,-9.90 -17.51,-10.54 -17.94,-11.19 -18.20,-11.92 -18.47,-12.65 -18.55,-13.42 -18.63,-14.20 -18.52,-14.97 -18.42,-15.73 -18.13,-16.46 -17.84,-17.18 -17.39,-17.81 -16.94,-18.44 -16.35,-18.95 -15.76,-19.45 -15.07,-19.80 -14.38,-20.15 -13.62,-20.32 -12.86,-20.50 -12.08,-20.49 -11.31,-20.47 -10.56,-20.27 -9.81,-20.08 -9.13,-19.70 -8.44,-19.33 -6.48,-17.30 -4.52,-15.27 -3.21,-13.43 -1.90,-11.60 -0.73,-10.13 0.42,-8.67 0.82,-8.00 1.22,-7.33 1.45,-6.59 1.68,-5.84 1.73,-5.06 1.77,-4.28 1.63,-3.52 1.49,-2.75 1.17,-2.04 0.85,-1.33 0.36,-0.71 -0.11,-0.10 -0.73,0.37 -1.34,0.85 -2.05,1.17 -2.77,1.49 -3.53,1.63 -4.30,1.77 -5.08,1.72 -5.86,1.67 -6.61,1.43 -7.35,1.20 -8.02,0.79 -8.68,0.39 -9.24,-0.15 -9.79,-0.71 -12.09,-3.33 -14.39,-5.96 -14.98,-6.85 -15.57,-7.74 -15.85,-8.78 -16.12,-9.81 -16.05,-10.88 -15.98,-11.94 -15.57,-12.93 -15.17,-13.92 -14.46,-14.73 -13.76,-15.54 -12.84,-16.08 -11.92,-16.62 -10.87,-16.84 -9.82,-17.05 -8.76,-16.93 -7.70,-16.80 -6.73,-16.34 -5.77,-15.88 -5.00,-15.13 -4.23,-14.39 -3.74,-13.44 -3.25,-12.49 -3.09,-11.43 -2.93,-10.37 -3.12,-9.32 -3.30,-8.27 -3.81,-7.33 -4.32,-6.39 -5.11,-5.66 -5.89,-4.94 -6.87,-4.50 -7.84,-4.06 -8.91,-3.96 -9.97,-3.85 -11.02,-4.09 -12.06,-4.34 -12.97,-4.90 -13.88,-5.46 -14.56,-6.28 -15.24,-7.11 -15.63,-8.10 -16.01,-9.10 -16.06,-10.17 -16.10,-11.24 -15.81,-12.27 -15.51,-13.29 -14.90,-14.17 -14.29,-15.05 -13.43,-15.69 -12.57,-16.33 -11.55,-16.66 -10.53,-16.99 -9.46,-16.97 -8.40,-16.96 -7.39,-16.61 -6.38,-16.25 -5.53,-15.60 -4.69,-14.94 -4.69,-14.94 -4.69,-14.94 -2.13,-11.81 0.42,-8.67 0.82,-8.00 1.22,-7.33 1.45,-6.59 1.68,-5.84 1.73,-5.06 1.77,-4.28 1.63,-3.52 1.49,-2.75 1.17,-2.04 0.85,-1.33 0.36,-0.71 -0.11,-0.10 -0.73,0.37 -1.34,0.85 -2.05,1.17 -2.77,1.49 -3.53,1.63 -4.30,1.77 -5.08,1.72 -5.86,1.67 -6.61,1.43 -7.35,1.20 -8.02,0.80 -8.68,0.39 -9.23,-0.15 -9.79,-0.71 -11.10,-2.38 -12.41,-4.05 -14.17,-6.45 -15.93,-8.85 -16.51,-9.37 -17.08,-9.90 -17.51,-10.54 -17.94,-11.19 -18.20,-11.92 -18.47,-12.65 -18.55,-13.42 -18.63,-14.20 -18.52,-14.96 -18.42,-15.73 -18.13,-16.46 -17.84,-17.18 -17.39,-17.81 -16.94,-18.44 -16.35,-18.95 -15.76,-19.45 -15.07,-19.80 -14.38,-20.15 -13.62,-20.32 -12.86,-20.50 -12.09,-20.49 -11.31,-20.47 -10.56,-20.27 -9.81,-20.08 -9.13,-19.70 -8.44,-19.33 -7.36,-18.75 -6.27,-18.16 -4.18,-16.74 -2.08,-15.32 -0.43,-13.81 1.22,-12.29 4.13,-9.18 7.04,-6.06 7.36,-5.36 7.68,-4.65 7.82,-3.89 7.96,-3.13 7.91,-2.36 7.87,-1.58 7.64,-0.85 7.41,-0.11 7.01,0.55 6.61,1.21 6.06,1.76 5.52,2.30 4.86,2.71 4.19,3.11 3.46,3.34 2.72,3.57 1.95,3.62 1.17,3.67 0.41,3.53 -0.34,3.39 -1.04,3.07 -1.75,2.76 -2.36,2.28 -2.97,1.80 -3.45,1.19 -3.93,0.59 -5.51,-2.15 -7.09,-4.89 -8.63,-7.08 -10.16,-9.28 -10.74,-11.33 -11.31,-13.38 -13.47,-14.94 -15.63,-16.49 -15.88,-17.27 -16.14,-18.05 -16.20,-18.87 -16.25,-19.68 -16.12,-20.49 -15.98,-21.30 -15.65,-22.05 -15.32,-22.80 -14.82,-23.45 -14.33,-24.10 -13.69,-24.61 -13.05,-25.12 -12.31,-25.47 -11.56,-25.81 -10.76,-25.97 -9.96,-26.12 -9.14,-26.08 -8.32,-26.04 -7.54,-25.81 -6.75,-25.57 -6.05,-25.16 -5.34,-24.74 -4.76,-24.17 -4.17,-23.60 -3.74,-22.90 -3.31,-22.20 -2.23,-19.63 -1.15,-17.06 -0.34,-13.74 0.46,-10.43 -0.08,-7.95 -0.63,-5.48 -1.92,-3.77 -3.22,-2.07 -8.21,-3.34 -13.20,-4.62 -15.12,-6.67 -17.04,-8.72 -19.11,-11.26 -21.19,-13.80 -21.62,-14.50 -22.05,-15.20 -22.31,-15.98 -22.56,-16.76 -22.62,-17.58 -22.69,-18.40 -22.55,-19.21 -22.41,-20.02 -22.08,-20.77 -21.76,-21.53 -21.26,-22.18 -20.76,-22.83 -20.12,-23.35 -19.48,-23.87 -18.74,-24.21 -17.99,-24.56 -17.19,-24.72 -16.38,-24.88 -15.56,-24.84 -14.74,-24.80 -13.95,-24.57 -13.16,-24.33 -12.45,-23.92 -11.75,-23.50 -11.16,-22.93 -10.57,-22.35 -9.60,-20.90 -8.62,-19.44 -7.07,-17.82 -5.51,-16.19 -5.03,-15.56 -4.54,-14.94 -4.22,-14.21 -3.89,-13.49 -3.75,-12.71 -3.61,-11.93 -3.66,-11.13 -3.71,-10.34 -3.95,-9.59 -4.19,-8.83 -4.60,-8.15 -5.02,-7.47 -5.58,-6.91 -6.14,-6.35 -6.82,-5.95 -7.50,-5.54 -8.26,-5.30 -9.02,-5.07 -9.81,-5.03 -10.60,-4.98 -11.38,-5.13 -12.17,-5.27 -12.89,-5.60 -13.61,-5.93 -14.23,-6.42 -14.86,-6.91 -16.03,-8.20 -17.20,-9.49 -18.64,-11.21 -20.08,-12.92 -22.13,-14.82 -24.18,-16.71 -25.97,-18.76 -27.76,-20.81 -28.10,-21.40 -28.44,-22.00 -28.63,-22.66 -28.82,-23.33 -28.84,-24.01 -28.87,-24.70 -28.73,-25.38 -28.59,-26.05 -28.29,-26.67 -27.99,-27.29 -27.55,-27.82 -27.12,-28.35 -26.56,-28.77 -26.01,-29.18 -25.38,-29.44 -24.74,-29.71 -24.06,-29.82 -23.38,-29.92 -22.70,-29.87 -22.01,-29.81 -21.36,-29.59 -20.71,-29.37 -20.13,-28.99 -19.55,-28.62 -19.07,-28.13 -18.60,-27.63 -18.50,-27.05 -18.41,-26.48 -17.14,-23.89 -15.87,-21.30 -14.49,-19.10 -13.11,-16.89 -11.08,-15.01 -9.05,-13.13 -6.22,-10.90 -3.39,-8.67 -0.09,-6.26 3.20,-3.84 3.62,-3.41 4.03,-2.97 4.33,-2.44 4.62,-1.91 4.79,-1.33 4.95,-0.75 4.97,-0.15 4.99,0.45 4.86,1.04 4.73,1.63 4.47,2.17 4.20,2.72 3.82,3.18 3.43,3.64 2.94,4.00 2.46,4.36 1.90,4.59 1.34,4.82 0.74,4.91 0.15,5.00 -0.45,4.95 -1.05,4.89 -1.62,4.70 -2.19,4.50 -2.70,4.17 -3.20,3.84 -3.20,3.84 L -3.20,3.84 Z"></path></g></svg>