<svg xmlns="http://www.w3.org/2000/svg"  viewBox="0 0 60 60" width="50px" height="50px"><path d="M44.02 15.548c-1.221-3.61-3.67-6.788-6.951-8.757-3.813-2.288-8.216-2.319-12.436-1.257-2.033.512-4.054 1.312-5.75 2.563-1.762 1.299-3.086 3.033-4.054 4.988-1.706 3.441-2.326 7.382-1.846 11.187.485 3.848 1.994 7.51 4.523 10.469 1.334 1.561 3.135 2.898 3.889 4.872.772 2.021.514 4.264.482 6.378-.03 2.023.031 4.153 1.947 5.334.654.403 1.443.585 2.224.708-.024.66.029 1.335.273 1.944.371.925 1.015 1.573 1.938 1.944 1.625.654 3.504-.091 4.355-1.586.42-.737.569-1.57.498-2.4 1.409-.308 2.763-.87 3.653-1.978 1.237-1.54 1.435-3.576 1.529-5.479.116-2.354.178-4.737.867-7.01.667-2.197 2.056-4.046 3.118-6.055 2.06-3.898 3.039-8.408 2.437-12.798C44.573 17.57 44.345 16.55 44.02 15.548zM31.153 52.338c-.001.055.019.242-.017.284.022-.148.024-.166.006-.055-.008.047-.017.093-.028.14-.021.092-.045.184-.074.274-.014.045-.03.09-.046.134-.04.103-.033.089.02-.042-.01.15-.188.354-.272.48-.023.027-.046.054-.07.081-.063.07-.134.13-.2.197-.019.016-.015.013-.024.021-.017.012-.034.025-.052.037-.077.051-.159.092-.238.139-.017.008-.011.006-.021.01-.016.006-.032.012-.048.018-.084.029-.17.052-.257.072-.027.006-.055.011-.083.016-.083.004-.166.011-.249.01-.014 0-.128-.006-.202-.011-.043-.008-.086-.017-.128-.028-.087-.021-.17-.051-.255-.075-.01-.004-.005-.001-.012-.004-.018-.009-.036-.017-.053-.026-.078-.04-.155-.084-.228-.133-.013-.009-.025-.018-.037-.026-.008-.008-.003-.004-.021-.019-.057-.06-.116-.118-.174-.177-.022-.033-.044-.065-.065-.099-.047-.077-.098-.165-.131-.251-.017-.058-.04-.135-.046-.155-.029-.101-.047-.204-.071-.307-.005-.031-.005-.029-.007-.042-.003-.029-.006-.058-.009-.087-.013-.153-.011-.305-.01-.458.861.064 1.725.088 2.587.018.167-.014.34-.031.512-.048C31.15 52.263 31.153 52.3 31.153 52.338zM41.727 27.739c-.696 1.956-1.768 3.69-2.802 5.477-1.1 1.903-1.878 3.879-2.209 6.059-.212 1.395-.278 2.796-.354 4.198-.843-.06-1.701-.016-2.539-.013-1.094.003-2.188.007-3.281.01.688-6.003.885-12.054.578-18.09-.021-.419-.293-.871-.734-.964-2.511-.532-4.826-1.902-6.399-3.951-.118-.153-.256-.262-.402-.344.107-.303.29-.585.526-.833.321-.338.798-.766 1.282-1.018.095.311.146.651.203.94.109.55.169 1.1.2 1.659.051.896 1.424 1.481 1.863.505.325-.722.777-1.354 1.411-1.837.358-.272 1.121-.773 1.679-.798.143.308.192.788.258 1.051.14.556.28 1.112.42 1.668.181.72 1.159.983 1.671.441.535-.565 1.501-1.601 2.441-1.806-.464.451-.892.938-1.293 1.469-.325.432-.069 1.118.359 1.368.512.3 1.042.074 1.368-.359.562-.745 1.253-1.411 2.011-1.954.519-.372.687-1.078.202-1.571-.884-.898-2.216-1.139-3.41-.796-.672.193-1.255.558-1.789.992-.124-.539-.273-1.068-.501-1.53-.522-1.056-1.593-1.105-2.603-.799-.9.273-1.731.754-2.427 1.381-.066-.284-.143-.564-.235-.838-.436-1.308-1.551-1.643-2.719-.955-1.81 1.068-3.588 2.901-2.877 5.19.193.62.813.846 1.346.632 1.659 1.837 3.78 3.177 6.178 3.834.252 5.779.049 11.569-.61 17.315-1.538.005-3.076.01-4.614.015.003-.635-.009-1.27-.073-1.904-.214-2.104-.982-3.873-2.353-5.481-1.208-1.417-2.608-2.635-3.649-4.193-.962-1.438-1.704-3.005-2.209-4.66-2.01-6.586-.387-15.422 6.317-18.668 1.761-.853 3.737-1.341 5.669-1.607 2.003-.276 4.043-.22 5.975.408 3.218 1.046 5.88 3.495 7.495 6.432.399.726.727 1.477.992 2.261C43.327 19.895 43.064 23.985 41.727 27.739zM10.72 13.5c.476.214 1.098.153 1.368-.359.231-.437.151-1.139-.359-1.368-.818-.367-1.601-.806-2.339-1.316-.177-.122-.349-.249-.521-.377-.003-.002-.001-.001-.004-.003-.003-.002.001 0-.003-.003-.039-.032-.079-.063-.118-.094C8.656 9.909 8.568 9.836 8.481 9.763 8.134 9.47 7.802 9.16 7.483 8.836c-.368-.373-1.051-.396-1.414 0-.369.402-.392 1.016 0 1.414C7.402 11.604 8.987 12.722 10.72 13.5zM9.328 20.464c.517-.087.853-.753.698-1.23-.181-.559-.676-.792-1.23-.698-1.911.321-3.822.642-5.733.963-.517.087-.853.753-.698 1.23.181.559.676.792 1.23.698C5.506 21.106 7.417 20.785 9.328 20.464zM12.599 27.781c-.155-.565-.695-.787-1.23-.698-2.618.435-5.14 1.482-7.299 3.024-.439.313-.649.872-.359 1.368.254.434.926.674 1.368.359 2.058-1.47 4.325-2.407 6.822-2.823C12.434 28.923 12.732 28.263 12.599 27.781zM12.397 35.77c-1.8.914-3.47 2.069-4.98 3.407-.393.348-.382 1.064 0 1.414.419.385.995.371 1.414 0 .351-.311.713-.608 1.079-.901.003-.002.001 0 .003-.002.056-.042.111-.085.167-.126.091-.068.182-.136.274-.202.195-.142.393-.281.593-.416.788-.534 1.61-1.016 2.459-1.447.467-.237.639-.933.359-1.368C13.458 35.651 12.897 35.516 12.397 35.77zM47.302 13.068c.37-.407.755-.8 1.158-1.175.201-.187.407-.37.616-.549.116-.099.234-.197.352-.293.047-.039.095-.077.143-.115.01-.008.078-.062.115-.091.028-.021.074-.056.081-.062.061-.046.122-.092.184-.137.111-.082.222-.162.335-.241.225-.158.453-.312.685-.461.476-.305.966-.589 1.466-.852.464-.244.642-.928.359-1.368-.304-.472-.872-.62-1.368-.359-2.074 1.091-3.964 2.554-5.54 4.289-.352.387-.411 1.037 0 1.414C46.271 13.42 46.927 13.482 47.302 13.068zM55.915 15.574c-2.769-.124-5.563.275-8.184 1.176-.511.176-.848.686-.698 1.23.137.497.717.875 1.23.698 2.471-.849 5.043-1.222 7.652-1.104.54.024 1-.477 1-1C56.915 16.013 56.457 15.599 55.915 15.574zM54.494 24.744c-1.744-.661-3.609-1-5.473-1.024-.523-.007-1.024.465-1 1 .025.548.439.993 1 1 .452.006.904.03 1.354.075.096.01.193.021.289.032.043.005.051.005.063.006.01.002.016.003.055.01.223.035.446.07.668.113.857.166 1.696.407 2.512.717.49.186 1.118-.206 1.23-.698C55.323 25.405 55.019 24.943 54.494 24.744zM47.612 31.921c-.474-.22-1.1-.149-1.368.359-.233.442-.148 1.133.359 1.368.799.371 1.571.8 2.306 1.286.173.115.344.232.512.353.095.068.189.136.283.206.039.029.077.059.116.087.353.279.697.567 1.029.87.387.353 1.037.411 1.414 0 .353-.384.413-1.038 0-1.414C50.878 33.774 49.313 32.711 47.612 31.921z"/></svg>