<?xml version="1.0" standalone="no"?>
<!DOCTYPE svg PUBLIC "-//W3C//DTD SVG 1.1//EN" "http://www.w3.org/Graphics/SVG/1.1/DTD/svg11.dtd">
<svg version="1.1" xmlns="http://www.w3.org/2000/svg" viewBox="0 0 796.3636474609375 493.6363220214844" width="1592.727294921875" height="987.2726440429688"><!-- svg-source:excalidraw --><metadata></metadata><defs><style class="style-fonts">
      </style></defs><g transform="translate(32.727264404296875 31.81817626953125) rotate(0 363.40907287597656 -4.5454559326171875)" stroke="none"><path fill="#1e1e1e" d="M 0,-3.49 Q 0,-3.49 6.14,-3.38 12.28,-3.26 20.64,-3.17 29.00,-3.09 36.08,-3.02 43.16,-2.96 51.66,-2.91 60.16,-2.87 66.91,-2.83 73.66,-2.80 78.75,-2.78 83.83,-2.75 88.22,-2.73 92.60,-2.72 96.30,-2.82 99.99,-2.93 102.74,-3.14 105.48,-3.34 107.82,-3.54 110.17,-3.73 112.34,-3.90 114.51,-4.07 118.85,-4.29 123.19,-4.51 126.58,-4.47 129.98,-4.42 133.90,-4.27 137.83,-4.12 142.50,-3.92 147.18,-3.72 151.38,-3.58 155.59,-3.45 159.60,-3.40 163.61,-3.34 167.54,-3.33 171.46,-3.31 175.22,-3.33 178.98,-3.35 182.28,-3.45 185.58,-3.55 189.07,-3.59 192.56,-3.64 195.74,-3.72 198.93,-3.81 202.37,-3.83 205.81,-3.85 209.24,-3.88 212.66,-3.90 216.86,-3.74 221.06,-3.58 225.59,-3.45 230.12,-3.32 234.53,-3.23 238.93,-3.13 243.29,-3.06 247.65,-2.99 251.85,-2.95 256.05,-2.92 260.85,-2.88 265.64,-2.83 270.16,-2.81 274.68,-2.78 279.34,-2.76 284.01,-2.73 289.16,-3.11 294.31,-3.48 299.70,-3.77 305.09,-4.06 310.55,-4.18 316.01,-4.30 322.17,-4.73 328.33,-5.17 333.84,-5.61 339.35,-6.06 344.76,-6.25 350.17,-6.44 354.95,-6.52 359.74,-6.60 364.38,-6.64 369.03,-6.67 374.01,-6.68 379.00,-6.70 383.60,-6.70 388.19,-6.71 392.63,-6.71 397.07,-6.71 401.83,-6.71 406.59,-6.71 412.11,-6.84 417.64,-6.97 422.89,-7.03 428.14,-7.09 432.98,-7.11 437.83,-7.13 442.37,-7.14 446.92,-7.15 451.07,-7.18 455.22,-7.21 459.99,-7.20 464.76,-7.20 468.23,-7.35 471.69,-7.51 475.52,-7.56 479.34,-7.61 482.53,-7.75 485.73,-7.90 489.18,-7.97 492.62,-8.05 495.79,-8.15 498.95,-8.25 501.87,-8.37 504.78,-8.48 508.37,-8.46 511.96,-8.44 515.58,-8.42 519.19,-8.40 522.17,-8.49 525.14,-8.58 527.98,-8.67 530.81,-8.76 533.45,-8.86 536.09,-8.95 538.52,-9.05 540.95,-9.15 543.68,-9.20 546.41,-9.25 548.88,-9.32 551.35,-9.38 553.70,-9.45 556.06,-9.52 558.24,-9.59 560.41,-9.66 562.91,-9.69 565.40,-9.72 568.29,-9.70 571.18,-9.67 573.97,-9.67 576.77,-9.66 580.18,-9.55 583.59,-9.44 586.61,-9.42 589.63,-9.40 592.34,-9.43 595.06,-9.46 599.41,-10.13 603.77,-10.80 606.98,-11.07 610.19,-11.35 612.81,-11.50 615.43,-11.66 617.53,-12.09 619.64,-12.52 622.78,-12.95 625.91,-13.38 628.10,-13.65 630.29,-13.92 632.69,-14.03 635.10,-14.14 637.56,-14.16 640.02,-14.18 642.23,-14.19 644.44,-14.20 648.00,-14.26 651.56,-14.31 654.62,-14.55 657.67,-14.79 660.71,-14.88 663.75,-14.97 666.22,-15.04 668.68,-15.11 671.18,-15.15 673.67,-15.20 676.30,-15.24 678.93,-15.27 681.83,-15.29 684.72,-15.31 686.90,-15.35 689.08,-15.39 692.07,-15.46 695.05,-15.54 697.68,-15.54 700.30,-15.55 703.83,-15.50 707.35,-15.46 711.47,-15.37 715.59,-15.29 718.93,-15.28 722.26,-15.27 722.43,-14.76 722.59,-14.24 723.53,-14.78 724.46,-15.32 725.52,-15.53 726.57,-15.74 727.64,-15.60 728.71,-15.47 729.68,-15.00 730.65,-14.53 731.42,-13.77 732.19,-13.02 732.67,-12.06 733.16,-11.10 733.32,-10.03 733.47,-8.97 733.28,-7.91 733.08,-6.85 732.56,-5.90 732.04,-4.96 731.24,-4.23 730.45,-3.51 729.46,-3.07 728.48,-2.64 727.40,-2.54 726.33,-2.44 725.28,-2.70 724.24,-2.95 723.32,-3.52 722.41,-4.09 721.73,-4.92 721.05,-5.76 720.67,-6.77 720.28,-7.77 720.25,-8.85 720.21,-9.93 720.51,-10.96 720.82,-11.99 721.44,-12.87 722.06,-13.75 722.93,-14.39 723.80,-15.03 724.83,-15.35 725.86,-15.68 726.93,-15.66 728.01,-15.64 729.03,-15.27 730.04,-14.91 730.89,-14.24 731.73,-13.58 732.32,-12.67 732.91,-11.77 733.18,-10.73 733.45,-9.68 733.37,-8.61 733.29,-7.54 732.87,-6.54 732.45,-5.55 731.74,-4.74 731.03,-3.93 731.03,-3.93 731.03,-3.93 726.64,-2.96 722.26,-1.99 718.93,-1.98 715.59,-1.98 711.47,-1.89 707.35,-1.80 703.83,-1.76 700.30,-1.71 697.68,-1.72 695.05,-1.73 692.07,-1.80 689.08,-1.88 686.90,-1.91 684.72,-1.95 681.83,-1.97 678.93,-1.99 676.30,-2.02 673.68,-2.06 671.19,-2.10 668.70,-2.15 666.27,-2.21 663.84,-2.26 661.00,-2.28 658.17,-2.30 654.88,-2.17 651.59,-2.03 648.07,-2.06 644.55,-2.10 642.40,-2.07 640.26,-2.04 637.98,-1.96 635.71,-1.89 631.83,-1.54 627.96,-1.19 623.75,-0.74 619.53,-0.30 616.29,-0.28 613.05,-0.25 610.16,-0.36 607.27,-0.47 604.02,-0.42 600.78,-0.37 597.93,-0.00 595.07,0.36 592.35,0.34 589.63,0.31 586.61,0.33 583.59,0.35 580.18,0.46 576.77,0.57 573.97,0.58 571.18,0.58 568.29,0.61 565.40,0.63 562.91,0.60 560.41,0.57 558.24,0.50 556.06,0.43 553.70,0.36 551.35,0.29 548.88,0.22 546.41,0.16 543.68,0.11 540.95,0.06 538.52,-0.03 536.09,-0.13 533.45,-0.22 530.81,-0.32 527.98,-0.41 525.14,-0.50 522.17,-0.59 519.19,-0.68 515.58,-0.66 511.96,-0.64 508.37,-0.62 504.78,-0.60 501.87,-0.71 498.95,-0.83 495.79,-0.93 492.62,-1.03 489.18,-1.11 485.73,-1.18 482.53,-1.33 479.34,-1.47 475.52,-1.52 471.69,-1.57 468.23,-1.72 464.76,-1.88 459.99,-1.87 455.23,-1.86 451.08,-1.88 446.93,-1.90 442.39,-1.89 437.86,-1.88 433.02,-1.85 428.19,-1.83 422.98,-1.77 417.76,-1.72 412.18,-1.59 406.59,-1.46 401.83,-1.45 397.07,-1.45 392.64,-1.45 388.20,-1.45 383.61,-1.44 379.01,-1.43 374.04,-1.42 369.07,-1.40 364.45,-1.36 359.83,-1.33 355.09,-1.24 350.36,-1.16 345.07,-0.97 339.78,-0.78 334.25,-0.32 328.71,0.12 322.43,0.58 316.14,1.03 310.77,1.17 305.39,1.30 300.05,1.60 294.71,1.91 289.36,2.32 284.01,2.73 279.34,2.76 274.68,2.78 270.16,2.81 265.64,2.83 260.85,2.88 256.05,2.92 251.85,2.95 247.65,2.99 243.29,3.06 238.93,3.13 234.53,3.23 230.12,3.32 225.59,3.45 221.06,3.58 216.86,3.74 212.66,3.90 209.24,3.88 205.81,3.85 202.37,3.83 198.93,3.81 195.74,3.72 192.56,3.64 189.07,3.59 185.58,3.55 182.28,3.45 178.98,3.35 175.22,3.33 171.46,3.31 167.54,3.33 163.61,3.34 159.60,3.40 155.59,3.45 151.38,3.58 147.18,3.72 142.50,3.92 137.83,4.12 133.90,4.27 129.98,4.42 126.58,4.47 123.19,4.51 118.85,4.29 114.51,4.07 112.34,3.90 110.17,3.73 107.82,3.54 105.48,3.34 102.74,3.14 99.99,2.93 96.30,2.82 92.60,2.72 88.22,2.73 83.83,2.75 78.75,2.78 73.66,2.80 66.91,2.83 60.16,2.87 51.66,2.91 43.16,2.96 36.08,3.02 29.00,3.09 20.64,3.17 12.28,3.26 6.14,3.38 0,3.49 -0.41,3.44 -0.83,3.39 -1.23,3.24 -1.62,3.09 -1.97,2.85 -2.32,2.61 -2.60,2.30 -2.88,1.98 -3.07,1.61 -3.27,1.24 -3.37,0.83 -3.47,0.42 -3.47,-0.00 -3.47,-0.42 -3.37,-0.83 -3.27,-1.24 -3.07,-1.61 -2.88,-1.98 -2.60,-2.30 -2.32,-2.61 -1.97,-2.85 -1.62,-3.09 -1.23,-3.24 -0.83,-3.39 -0.41,-3.44 0.00,-3.49 0.00,-3.49 L 0,-3.49 Z"></path></g><g transform="translate(768.1817626953125 25.909088134765625) rotate(0 -2.5 216.81817626953125)" stroke="none"><path fill="#1e1e1e" d="M 4.26,0.09 Q 4.26,0.09 3.91,5.84 3.56,11.58 3.34,16.88 3.13,22.17 2.99,27.55 2.84,32.94 2.75,37.71 2.65,42.49 2.77,45.82 2.89,49.16 3.06,51.75 3.24,54.34 3.50,57.89 3.76,61.43 3.81,63.60 3.87,65.77 3.79,69.07 3.71,72.37 3.60,76.00 3.49,79.63 3.48,82.87 3.47,86.11 3.51,89.06 3.55,92.00 3.66,94.17 3.78,96.34 3.78,99.10 3.78,101.85 3.07,104.10 2.35,106.35 2.49,109.80 2.62,113.26 2.68,116.62 2.74,119.98 2.77,123.90 2.80,127.82 2.77,130.27 2.73,132.73 2.70,135.21 2.67,137.69 2.66,140.05 2.64,142.41 2.62,144.85 2.60,147.30 2.46,149.80 2.32,152.31 2.33,155.51 2.35,158.72 2.43,160.94 2.51,163.17 2.61,165.67 2.71,168.17 2.71,171.90 2.70,175.63 2.66,177.93 2.62,180.23 2.45,183.43 2.28,186.63 2.02,190.34 1.76,194.05 1.60,197.59 1.43,201.13 1.32,204.59 1.20,208.06 1.18,211.10 1.17,214.14 1.20,216.87 1.23,219.60 1.31,221.80 1.38,224.01 1.45,226.25 1.51,228.50 1.67,231.18 1.84,233.86 1.67,238.00 1.51,242.14 1.45,245.55 1.38,248.96 1.45,251.34 1.52,253.71 1.55,257.35 1.57,260.98 1.40,263.48 1.24,265.98 1.17,268.18 1.09,270.38 1.13,273.27 1.17,276.15 1.05,279.08 0.93,282.01 0.87,284.70 0.80,287.39 0.89,290.67 0.97,293.96 0.96,296.22 0.95,298.48 0.96,300.61 0.96,302.75 1.04,305.23 1.13,307.72 1.21,310.18 1.29,312.64 1.33,315.64 1.38,318.63 1.44,320.81 1.49,322.99 1.54,325.28 1.59,327.58 1.55,329.71 1.51,331.84 1.47,334.06 1.42,336.27 1.44,339.23 1.46,342.19 1.50,345.00 1.54,347.81 1.58,350.03 1.63,352.25 1.66,354.55 1.69,356.85 1.72,359.35 1.75,361.85 1.80,364.93 1.85,368.02 1.87,370.47 1.88,372.92 1.93,375.35 1.97,377.78 1.99,381.05 2.01,384.31 1.97,387.50 1.94,390.69 1.92,393.74 1.91,396.79 1.89,399.82 1.88,402.85 1.86,405.95 1.85,409.04 1.87,411.32 1.89,413.59 1.93,416.61 1.97,419.62 1.97,422.24 1.97,424.85 1.99,427.00 2.00,429.14 2.02,431.39 2.03,433.63 1.85,434.75 1.66,435.88 1.13,436.88 0.60,437.89 -0.22,438.67 -1.05,439.45 -2.08,439.93 -3.11,440.41 -4.24,440.53 -5.38,440.66 -6.49,440.41 -7.60,440.17 -8.57,439.58 -9.55,438.99 -10.29,438.13 -11.02,437.26 -11.45,436.20 -11.87,435.14 -11.93,434.01 -11.99,432.87 -11.68,431.77 -11.38,430.68 -10.74,429.73 -10.10,428.79 -9.20,428.10 -8.29,427.41 -7.21,427.05 -6.13,426.69 -4.99,426.69 -3.86,426.69 -2.78,427.05 -1.70,427.42 -0.79,428.10 0.10,428.79 0.74,429.74 1.38,430.68 1.69,431.78 1.99,432.87 1.93,434.01 1.87,435.15 1.44,436.20 1.02,437.26 0.29,438.13 -0.44,438.99 -1.42,439.58 -2.39,440.17 -3.50,440.41 -4.62,440.66 -5.75,440.53 -6.88,440.41 -7.91,439.93 -8.94,439.45 -9.77,438.67 -10.60,437.89 -11.13,436.88 -11.66,435.88 -11.85,434.75 -12.03,433.63 -12.03,433.63 -12.03,433.63 -12.02,431.39 -12.00,429.14 -11.99,427.00 -11.97,424.85 -11.97,422.24 -11.97,419.62 -11.93,416.61 -11.89,413.59 -11.87,411.32 -11.85,409.04 -11.86,405.95 -11.88,402.85 -11.89,399.82 -11.91,396.79 -11.92,393.74 -11.94,390.69 -11.97,387.50 -12.01,384.31 -11.99,381.05 -11.97,377.78 -11.93,375.35 -11.88,372.92 -11.87,370.47 -11.85,368.02 -11.80,364.93 -11.75,361.85 -11.72,359.35 -11.69,356.85 -11.66,354.55 -11.63,352.25 -11.58,350.03 -11.54,347.81 -11.50,345.00 -11.46,342.19 -11.44,339.23 -11.42,336.27 -11.47,334.06 -11.51,331.84 -11.55,329.71 -11.59,327.58 -11.54,325.28 -11.49,322.99 -11.44,320.81 -11.38,318.63 -11.33,315.64 -11.29,312.64 -11.21,310.18 -11.13,307.72 -11.04,305.23 -10.96,302.75 -10.96,300.61 -10.95,298.48 -10.96,296.22 -10.97,293.96 -10.89,290.67 -10.80,287.38 -10.86,284.69 -10.91,282.00 -11.03,279.04 -11.14,276.08 -11.04,273.08 -10.93,270.09 -10.89,267.69 -10.85,265.30 -10.75,263.14 -10.66,260.97 -10.62,257.29 -10.59,253.60 -10.46,251.12 -10.34,248.64 -10.08,244.76 -9.82,240.88 -9.47,237.37 -9.11,233.86 -8.95,231.18 -8.78,228.50 -8.72,226.25 -8.66,224.01 -8.58,221.80 -8.50,219.60 -8.47,216.87 -8.44,214.14 -8.46,211.10 -8.47,208.06 -8.59,204.59 -8.70,201.13 -8.87,197.59 -9.04,194.05 -9.29,190.34 -9.55,186.63 -9.72,183.43 -9.89,180.23 -9.94,177.93 -9.98,175.63 -9.98,171.90 -9.98,168.17 -9.88,165.64 -9.77,163.11 -9.66,160.82 -9.55,158.54 -9.38,155.10 -9.21,151.66 -9.09,149.48 -8.97,147.29 -8.99,144.85 -9.01,142.41 -9.02,140.05 -9.03,137.69 -9.06,135.21 -9.10,132.73 -9.13,130.27 -9.16,127.81 -9.12,123.86 -9.09,119.92 -8.97,116.43 -8.86,112.95 -8.56,109.80 -8.26,106.66 -7.30,103.86 -6.34,101.06 -5.96,98.70 -5.59,96.33 -5.48,94.17 -5.37,92.00 -5.32,89.05 -5.28,86.10 -5.28,82.85 -5.28,79.60 -5.37,75.95 -5.46,72.30 -5.49,68.93 -5.52,65.55 -5.36,63.09 -5.19,60.62 -4.67,57.48 -4.15,54.34 -3.96,51.74 -3.78,49.15 -3.65,45.81 -3.53,42.47 -3.61,37.69 -3.68,32.91 -3.78,27.50 -3.87,22.10 -3.98,16.75 -4.08,11.41 -4.17,5.65 -4.26,-0.09 -4.18,-0.60 -4.11,-1.11 -3.92,-1.59 -3.72,-2.06 -3.42,-2.48 -3.12,-2.89 -2.73,-3.23 -2.34,-3.56 -1.88,-3.79 -1.42,-4.01 -0.91,-4.13 -0.41,-4.24 0.09,-4.23 0.61,-4.21 1.10,-4.08 1.60,-3.95 2.05,-3.70 2.50,-3.45 2.87,-3.10 3.25,-2.75 3.53,-2.32 3.81,-1.89 3.98,-1.40 4.16,-0.92 4.21,-0.41 4.26,0.09 4.26,0.09 L 4.26,0.09 Z"></path></g><g transform="translate(36.363616943359375 35.909088134765625) rotate(0 -4.090911865234375 188.6363525390625)" stroke="none"><path fill="#1e1e1e" d="M 4.62,1.32 Q 4.62,1.32 3.42,4.93 2.21,8.54 1.12,12.22 0.02,15.90 -0.76,19.07 -1.55,22.25 -2.21,24.86 -2.87,27.48 -3.00,30.64 -3.13,33.80 -2.92,36.54 -2.72,39.29 -2.53,42.35 -2.33,45.41 -2.23,48.02 -2.13,50.62 -2.08,54.07 -2.03,57.52 -1.97,60.57 -1.91,63.61 -1.86,66.64 -1.81,69.67 -1.77,72.71 -1.74,75.75 -1.83,80.31 -1.92,84.86 -2.00,87.51 -2.08,90.17 -2.22,93.25 -2.36,96.34 -2.48,99.48 -2.61,102.62 -2.63,105.27 -2.66,107.91 -2.82,111.38 -2.98,114.86 -3.08,118.16 -3.18,121.47 -3.27,124.84 -3.36,128.20 -3.49,131.85 -3.62,135.51 -3.81,139.54 -4.01,143.58 -4.21,148.82 -4.42,154.06 -4.57,158.90 -4.72,163.75 -4.83,168.68 -4.95,173.61 -5.03,178.45 -5.11,183.29 -5.17,187.83 -5.23,192.37 -5.25,196.53 -5.27,200.68 -5.31,205.19 -5.35,209.69 -5.18,212.92 -5.01,216.14 -4.83,218.95 -4.65,221.75 -4.30,225.09 -3.96,228.43 -3.64,230.81 -3.33,233.19 -3.14,235.53 -2.95,237.88 -2.90,240.05 -2.85,242.23 -2.93,245.38 -3.01,248.53 -3.33,253.39 -3.66,258.26 -3.91,263.20 -4.16,268.14 -4.34,273.12 -4.53,278.09 -4.67,283.35 -4.80,288.60 -4.91,294.49 -5.01,300.38 -5.08,305.36 -5.16,310.35 -5.21,314.69 -5.26,319.03 -5.10,322.18 -4.93,325.34 -4.73,327.85 -4.54,330.37 -4.22,332.92 -3.91,335.47 -3.60,338.14 -3.29,340.82 -3.04,343.26 -2.79,345.71 -2.57,348.44 -2.35,351.17 -2.21,353.57 -2.06,355.98 -1.99,358.65 -1.91,361.32 -1.85,363.98 -1.79,366.64 -1.70,368.93 -1.61,371.22 -1.56,374.24 -1.51,377.27 -1.68,378.33 -1.86,379.40 -2.36,380.35 -2.87,381.30 -3.65,382.05 -4.43,382.79 -5.41,383.24 -6.39,383.69 -7.47,383.81 -8.54,383.93 -9.59,383.70 -10.65,383.46 -11.57,382.91 -12.49,382.35 -13.19,381.53 -13.89,380.71 -14.29,379.70 -14.69,378.70 -14.75,377.62 -14.81,376.55 -14.52,375.51 -14.23,374.47 -13.62,373.57 -13.02,372.68 -12.16,372.03 -11.30,371.37 -10.28,371.03 -9.25,370.69 -8.18,370.69 -7.10,370.69 -6.07,371.03 -5.05,371.38 -4.19,372.03 -3.33,372.68 -2.73,373.58 -2.12,374.47 -1.83,375.51 -1.55,376.55 -1.60,377.63 -1.66,378.70 -2.06,379.71 -2.46,380.71 -3.16,381.53 -3.86,382.35 -4.78,382.91 -5.71,383.46 -6.76,383.70 -7.82,383.93 -8.89,383.81 -9.96,383.69 -10.94,383.24 -11.92,382.79 -12.70,382.04 -13.49,381.30 -13.99,380.35 -14.50,379.40 -14.67,378.33 -14.85,377.27 -14.85,377.27 -14.85,377.27 -14.80,374.24 -14.75,371.22 -14.66,368.93 -14.57,366.64 -14.50,363.98 -14.44,361.32 -14.36,358.65 -14.29,355.98 -14.15,353.57 -14.00,351.17 -13.78,348.44 -13.56,345.71 -13.31,343.26 -13.06,340.82 -12.76,338.14 -12.45,335.47 -12.13,332.92 -11.81,330.37 -11.62,327.85 -11.43,325.34 -11.26,322.18 -11.09,319.03 -11.14,314.69 -11.20,310.35 -11.27,305.36 -11.35,300.38 -11.45,294.49 -11.55,288.60 -11.69,283.35 -11.82,278.09 -12.01,273.12 -12.20,268.14 -12.44,263.20 -12.69,258.26 -13.02,253.39 -13.34,248.53 -13.43,245.38 -13.51,242.23 -13.45,240.05 -13.40,237.88 -13.21,235.53 -13.03,233.19 -12.71,230.81 -12.40,228.43 -12.05,225.09 -11.70,221.75 -11.52,218.95 -11.34,216.14 -11.18,212.92 -11.01,209.69 -11.05,205.19 -11.08,200.68 -11.10,196.53 -11.12,192.37 -11.18,187.83 -11.24,183.29 -11.32,178.45 -11.41,173.61 -11.52,168.68 -11.63,163.75 -11.78,158.90 -11.94,154.06 -12.14,148.82 -12.35,143.58 -12.54,139.54 -12.74,135.51 -12.87,131.85 -13.00,128.20 -13.09,124.84 -13.18,121.47 -13.27,118.16 -13.37,114.86 -13.53,111.38 -13.70,107.91 -13.72,105.27 -13.75,102.62 -13.87,99.48 -14.00,96.34 -14.13,93.25 -14.27,90.17 -14.35,87.51 -14.43,84.86 -14.51,82.31 -14.58,79.76 -14.59,76.11 -14.59,72.47 -14.54,69.61 -14.49,66.76 -14.44,63.64 -14.39,60.51 -14.33,57.35 -14.27,54.18 -14.20,50.98 -14.13,47.78 -14.02,45.65 -13.90,43.51 -13.76,41.37 -13.62,39.23 -13.38,36.99 -13.13,34.75 -12.72,32.29 -12.30,29.83 -11.81,27.43 -11.32,25.04 -10.51,22.61 -9.70,20.18 -8.89,17.01 -8.07,13.83 -7.23,9.96 -6.39,6.08 -5.51,2.38 -4.62,-1.32 -4.40,-1.85 -4.17,-2.39 -3.82,-2.85 -3.48,-3.32 -3.03,-3.68 -2.58,-4.05 -2.06,-4.30 -1.54,-4.55 -0.97,-4.67 -0.40,-4.79 0.17,-4.77 0.75,-4.75 1.31,-4.59 1.87,-4.43 2.37,-4.14 2.87,-3.85 3.29,-3.45 3.71,-3.05 4.02,-2.56 4.33,-2.07 4.52,-1.52 4.71,-0.97 4.75,-0.40 4.80,0.17 4.71,0.74 4.62,1.32 4.62,1.32 L 4.62,1.32 Z"></path></g><g transform="translate(26.363616943359375 404.9999694824219) rotate(0 -0.4545440673828125 34.772735595703125)" stroke="none"><path fill="#1e1e1e" d="M 5.02,0 Q 5.02,0 5.12,1.43 5.22,2.87 5.15,5.06 5.08,7.24 5.31,9.61 5.55,11.97 5.69,14.26 5.83,16.54 5.95,19.02 6.06,21.50 6.14,24.19 6.22,26.89 6.31,29.26 6.40,31.62 6.47,34.12 6.53,36.61 6.57,39.05 6.61,41.48 6.65,43.84 6.70,46.20 6.75,48.47 6.79,50.73 6.81,53.02 6.83,55.31 6.85,57.47 6.87,59.63 6.68,61.96 6.49,64.29 6.51,66.92 6.53,69.54 6.34,70.73 6.14,71.92 5.58,72.98 5.01,74.05 4.14,74.87 3.26,75.70 2.17,76.21 1.08,76.71 -0.11,76.84 -1.31,76.97 -2.48,76.71 -3.66,76.46 -4.69,75.83 -5.72,75.21 -6.50,74.30 -7.28,73.38 -7.73,72.26 -8.17,71.14 -8.24,69.94 -8.30,68.73 -7.98,67.57 -7.66,66.41 -6.98,65.42 -6.31,64.42 -5.35,63.69 -4.39,62.96 -3.25,62.58 -2.11,62.19 -0.90,62.19 0.29,62.19 1.43,62.58 2.57,62.96 3.53,63.69 4.49,64.42 5.17,65.42 5.84,66.42 6.16,67.58 6.49,68.74 6.42,69.94 6.36,71.14 5.91,72.26 5.46,73.38 4.68,74.30 3.90,75.22 2.87,75.84 1.84,76.46 0.66,76.72 -0.50,76.97 -1.70,76.84 -2.90,76.71 -3.99,76.21 -5.08,75.70 -5.96,74.87 -6.83,74.04 -7.40,72.98 -7.96,71.92 -8.15,70.73 -8.35,69.54 -8.35,69.54 -8.35,69.54 -8.33,66.89 -8.30,64.24 -8.04,61.90 -7.78,59.57 -7.76,57.44 -7.74,55.31 -7.72,53.02 -7.70,50.73 -7.66,48.47 -7.61,46.20 -7.56,43.84 -7.52,41.48 -7.48,39.05 -7.44,36.61 -7.37,34.12 -7.31,31.62 -7.22,29.26 -7.13,26.89 -7.05,24.19 -6.97,21.50 -6.86,19.02 -6.74,16.54 -6.60,14.26 -6.46,11.97 -6.28,9.77 -6.10,7.58 -5.66,5.22 -5.22,2.87 -5.12,1.43 -5.02,0 -4.95,-0.60 -4.88,-1.20 -4.66,-1.77 -4.45,-2.33 -4.10,-2.83 -3.76,-3.33 -3.31,-3.73 -2.85,-4.13 -2.32,-4.42 -1.78,-4.70 -1.19,-4.84 -0.60,-4.99 0.00,-4.99 0.60,-4.99 1.19,-4.84 1.78,-4.70 2.32,-4.42 2.85,-4.13 3.31,-3.73 3.76,-3.33 4.10,-2.83 4.45,-2.33 4.66,-1.77 4.88,-1.20 4.95,-0.60 5.02,0.00 5.02,0.00 L 5.02,0 Z"></path></g><g transform="translate(25 479.9999694824219) rotate(0 367.95452880859375 -11.81817626953125)" stroke="none"><path fill="#1e1e1e" d="M -0.40,-3.67 Q -0.40,-3.67 6.66,-4.31 13.73,-4.95 22.31,-6.09 30.89,-7.22 37.31,-8.07 43.73,-8.91 48.42,-9.51 53.12,-10.11 56.00,-10.71 58.88,-11.31 63.97,-11.87 69.07,-12.44 73.26,-12.32 77.45,-12.21 82.63,-12.09 87.80,-11.97 93.14,-11.87 98.47,-11.78 103.75,-11.71 109.02,-11.64 112.04,-11.81 115.07,-11.99 117.40,-12.18 119.73,-12.38 121.90,-12.55 124.06,-12.71 127.86,-13.00 131.65,-13.28 134.05,-13.36 136.45,-13.44 139.82,-13.37 143.19,-13.29 148.41,-13.03 153.64,-12.76 158.73,-12.56 163.83,-12.36 168.48,-12.21 173.12,-12.06 177.06,-12.03 181.00,-12.00 184.50,-12.06 188.00,-12.13 190.93,-12.26 193.85,-12.40 197.87,-12.43 201.89,-12.47 204.10,-12.57 206.31,-12.67 211.54,-12.63 216.77,-12.59 220.97,-12.32 225.16,-12.04 230.08,-11.81 235.00,-11.59 240.48,-11.42 245.97,-11.26 250.66,-11.13 255.34,-11.01 260.86,-10.92 266.38,-10.83 271.60,-10.76 276.82,-10.70 281.26,-10.65 285.70,-10.60 290.34,-10.57 294.97,-10.53 299.03,-10.55 303.09,-10.57 306.77,-10.67 310.46,-10.76 314.11,-10.83 317.77,-10.91 320.89,-11.05 324.02,-11.19 326.65,-11.36 329.28,-11.52 331.84,-11.66 334.40,-11.80 336.53,-11.95 338.66,-12.09 340.87,-12.21 343.09,-12.33 345.60,-12.40 348.10,-12.47 351.00,-12.49 353.90,-12.50 357.09,-12.47 360.28,-12.43 363.73,-12.36 367.17,-12.28 371.12,-12.11 375.07,-11.94 379.75,-11.73 384.44,-11.51 389.56,-11.36 394.69,-11.20 399.48,-11.09 404.27,-10.97 408.79,-10.89 413.31,-10.80 418.24,-10.74 423.17,-10.68 427.22,-10.68 431.27,-10.68 435.04,-10.87 438.80,-11.05 442.41,-11.19 446.01,-11.33 449.04,-11.63 452.07,-11.92 454.59,-12.50 457.12,-13.08 459.75,-13.44 462.38,-13.80 464.56,-14.14 466.74,-14.49 469.24,-14.69 471.75,-14.90 473.98,-15.04 476.22,-15.18 479.01,-15.22 481.80,-15.27 484.94,-15.25 488.08,-15.22 491.47,-15.37 494.86,-15.52 498.62,-15.64 502.38,-15.77 507.60,-15.65 512.81,-15.53 517.49,-15.41 522.17,-15.29 526.12,-15.26 530.06,-15.23 533.44,-15.32 536.82,-15.40 539.17,-15.58 541.52,-15.75 543.69,-15.91 545.87,-16.06 548.10,-16.19 550.33,-16.31 554.63,-16.87 558.93,-17.43 561.59,-17.52 564.25,-17.61 566.95,-17.66 569.65,-17.70 572.36,-17.73 575.07,-17.75 577.53,-17.80 579.99,-17.84 582.74,-17.84 585.48,-17.85 588.10,-17.98 590.71,-18.11 592.97,-18.22 595.24,-18.34 597.78,-18.38 600.33,-18.42 602.98,-18.44 605.63,-18.45 609.10,-18.31 612.58,-18.18 615.81,-18.53 619.04,-18.89 621.95,-19.38 624.87,-19.86 628.45,-20.03 632.04,-20.20 635.10,-20.31 638.17,-20.41 640.38,-20.55 642.59,-20.68 646.13,-21.08 649.67,-21.47 652.39,-21.67 655.11,-21.88 659.48,-22.29 663.85,-22.70 666.16,-23.17 668.47,-23.64 671.23,-23.92 673.99,-24.21 677.48,-24.30 680.97,-24.40 683.26,-24.66 685.54,-24.92 687.69,-25.29 689.85,-25.66 692.06,-26.00 694.28,-26.33 697.45,-26.84 700.61,-27.35 703.29,-27.54 705.97,-27.72 709.22,-27.81 712.48,-27.90 716.07,-27.93 719.65,-27.96 722.87,-28.01 726.08,-28.06 728.47,-28.13 730.86,-28.20 730.19,-26.70 729.53,-25.20 729.87,-26.19 730.22,-27.18 730.86,-28.01 731.50,-28.83 732.37,-29.41 733.25,-29.99 734.26,-30.26 735.27,-30.53 736.32,-30.46 737.36,-30.39 738.33,-30.00 739.30,-29.60 740.09,-28.91 740.88,-28.23 741.41,-27.32 741.94,-26.42 742.16,-25.39 742.37,-24.37 742.25,-23.33 742.12,-22.29 741.67,-21.34 741.22,-20.40 740.50,-19.64 739.77,-18.89 738.84,-18.41 737.91,-17.93 736.87,-17.77 735.84,-17.61 734.80,-17.79 733.77,-17.97 732.85,-18.47 731.93,-18.97 731.22,-19.74 730.51,-20.51 730.08,-21.46 729.65,-22.42 729.54,-23.46 729.44,-24.51 729.68,-25.53 729.91,-26.55 730.46,-27.44 731.01,-28.33 731.82,-29.00 732.63,-29.67 733.60,-30.05 734.58,-30.42 735.63,-30.47 736.67,-30.52 737.68,-30.22 738.69,-29.93 739.55,-29.34 740.41,-28.74 741.03,-27.90 741.66,-27.06 741.98,-26.06 742.30,-25.06 742.29,-24.02 742.28,-22.97 742.28,-22.97 742.28,-22.97 735.31,-19.23 728.33,-15.49 725.79,-15.56 723.25,-15.63 719.38,-15.64 715.51,-15.65 712.32,-15.71 709.14,-15.77 706.58,-15.85 704.02,-15.92 701.51,-15.93 699.01,-15.93 695.25,-15.51 691.49,-15.08 689.03,-14.74 686.56,-14.39 684.13,-14.19 681.69,-13.99 678.38,-13.62 675.07,-13.24 672.89,-13.05 670.71,-12.85 667.55,-12.17 664.39,-11.50 662.18,-11.41 659.97,-11.31 657.58,-11.06 655.20,-10.81 652.63,-10.93 650.07,-11.06 646.41,-11.04 642.76,-11.02 640.60,-11.08 638.44,-11.14 635.52,-11.07 632.60,-11.00 629.50,-10.76 626.39,-10.52 623.40,-10.03 620.41,-9.54 616.51,-8.86 612.60,-8.17 609.14,-8.02 605.67,-7.88 603.05,-7.87 600.43,-7.86 597.97,-7.86 595.50,-7.85 593.35,-7.86 591.20,-7.86 588.34,-7.73 585.49,-7.59 582.75,-7.59 580.01,-7.59 577.56,-7.63 575.11,-7.67 572.41,-7.68 569.72,-7.68 567.08,-7.69 564.43,-7.69 561.90,-7.69 559.38,-7.68 557.16,-7.66 554.94,-7.64 552.64,-7.47 550.34,-7.31 548.11,-7.43 545.87,-7.56 543.70,-7.71 541.53,-7.86 539.18,-8.03 536.84,-8.20 533.47,-8.27 530.10,-8.34 526.17,-8.27 522.24,-8.21 517.60,-8.00 512.97,-7.79 507.95,-7.46 502.94,-7.14 499.24,-6.78 495.54,-6.41 491.82,-6.04 488.10,-5.66 484.98,-5.62 481.85,-5.58 479.12,-5.59 476.39,-5.61 474.24,-5.67 472.10,-5.73 469.84,-5.76 467.57,-5.78 465.30,-5.70 463.02,-5.62 460.70,-5.59 458.37,-5.56 455.40,-5.22 452.42,-4.89 449.27,-4.87 446.12,-4.86 442.56,-4.89 439.01,-4.92 435.14,-4.84 431.27,-4.76 427.22,-4.76 423.17,-4.77 418.24,-4.70 413.31,-4.64 408.79,-4.56 404.27,-4.47 399.48,-4.36 394.69,-4.24 389.56,-4.09 384.44,-3.93 379.75,-3.72 375.07,-3.51 371.12,-3.34 367.17,-3.16 363.73,-3.09 360.28,-3.01 357.09,-2.98 353.90,-2.94 351.00,-2.96 348.10,-2.97 345.60,-3.04 343.09,-3.12 340.87,-3.24 338.66,-3.35 336.53,-3.50 334.40,-3.64 331.84,-3.78 329.28,-3.92 326.65,-4.09 324.02,-4.25 320.89,-4.39 317.77,-4.54 314.11,-4.61 310.46,-4.69 306.77,-4.78 303.09,-4.87 299.03,-4.89 294.97,-4.91 290.34,-4.88 285.70,-4.84 281.26,-4.79 276.82,-4.75 271.60,-4.68 266.38,-4.61 260.86,-4.53 255.34,-4.44 250.66,-4.31 245.97,-4.19 240.48,-4.03 234.99,-3.86 230.07,-3.64 225.15,-3.42 220.95,-3.15 216.75,-2.88 211.36,-2.89 205.97,-2.91 203.24,-3.33 200.51,-3.75 197.18,-4.31 193.85,-4.87 190.93,-5.00 188.00,-5.13 184.50,-5.20 181.00,-5.26 177.06,-5.23 173.12,-5.20 168.48,-5.05 163.83,-4.90 158.73,-4.70 153.64,-4.50 148.41,-4.23 143.19,-3.97 139.82,-3.90 136.45,-3.83 134.05,-3.91 131.65,-3.99 127.86,-4.27 124.07,-4.55 121.90,-4.72 119.73,-4.89 117.40,-5.08 115.07,-5.27 112.05,-5.44 109.02,-5.62 103.75,-5.54 98.48,-5.47 93.15,-5.36 87.82,-5.26 82.67,-5.11 77.51,-4.96 73.38,-4.78 69.26,-4.60 64.53,-4.68 59.80,-4.75 56.86,-4.53 53.93,-4.31 49.26,-3.60 44.59,-2.89 38.20,-1.89 31.80,-0.90 23.14,0.45 14.49,1.81 7.44,2.74 0.40,3.67 -0.03,3.66 -0.48,3.66 -0.91,3.55 -1.34,3.44 -1.73,3.23 -2.13,3.02 -2.46,2.72 -2.79,2.42 -3.04,2.05 -3.29,1.68 -3.44,1.26 -3.59,0.84 -3.64,0.40 -3.69,-0.03 -3.63,-0.47 -3.58,-0.92 -3.41,-1.33 -3.25,-1.75 -2.99,-2.11 -2.74,-2.47 -2.40,-2.77 -2.06,-3.06 -1.67,-3.26 -1.27,-3.47 -0.84,-3.57 -0.40,-3.67 -0.40,-3.67 L -0.40,-3.67 Z"></path></g><g transform="translate(20 60.909088134765625) rotate(0 22.954544067382812 -15.454544067382812)" stroke="none"><path fill="#1e1e1e" d="M -5.77,-8.92 Q -5.77,-8.92 -1.32,-11.79 3.12,-14.66 7.86,-18.35 12.60,-22.04 16.13,-25.04 19.66,-28.03 24.93,-31.74 30.20,-35.44 34.92,-38.51 39.64,-41.58 41.51,-42.30 43.38,-43.02 45.38,-43.11 47.38,-43.19 49.31,-42.64 51.23,-42.08 52.87,-40.94 54.52,-39.79 55.71,-38.18 56.91,-36.58 57.52,-34.67 58.14,-32.77 58.12,-30.76 58.10,-28.76 57.43,-26.87 56.77,-24.98 55.54,-23.40 54.31,-21.82 52.64,-20.72 50.97,-19.61 49.04,-19.10 47.10,-18.58 45.10,-18.72 43.10,-18.85 41.25,-19.61 39.40,-20.37 37.89,-21.69 36.38,-23.00 35.37,-24.73 34.35,-26.46 33.94,-28.42 33.54,-30.38 33.78,-32.37 34.02,-34.35 34.88,-36.16 35.74,-37.97 37.13,-39.41 38.53,-40.84 40.31,-41.76 42.09,-42.68 44.07,-42.98 46.05,-43.28 48.02,-42.93 49.99,-42.59 51.75,-41.63 53.51,-40.67 54.87,-39.20 56.23,-37.73 57.05,-35.90 57.87,-34.08 58.06,-32.08 58.26,-30.09 57.80,-28.14 57.35,-26.19 56.30,-24.48 55.24,-22.78 53.70,-21.50 52.16,-20.22 52.16,-20.22 52.16,-20.23 47.73,-17.72 43.31,-15.22 38.58,-12.36 33.85,-9.51 30.29,-7.14 26.73,-4.77 20.69,-0.80 14.65,3.16 10.21,6.04 5.77,8.92 4.62,9.48 3.47,10.04 2.21,10.31 0.96,10.58 -0.31,10.54 -1.59,10.50 -2.82,10.16 -4.06,9.81 -5.17,9.19 -6.29,8.56 -7.22,7.68 -8.16,6.80 -8.85,5.73 -9.55,4.65 -9.97,3.44 -10.38,2.23 -10.50,0.95 -10.62,-0.31 -10.42,-1.58 -10.23,-2.85 -9.74,-4.03 -9.25,-5.21 -8.49,-6.24 -7.73,-7.28 -6.75,-8.10 -5.77,-8.92 -5.77,-8.92 L -5.77,-8.92 Z"></path></g><g transform="translate(740.9090576171875 10) rotate(0 22.727294921875 16.363632202148438)" stroke="none"><path fill="#1e1e1e" d="M 6.76,-8.05 Q 6.76,-8.05 10.10,-5.39 13.43,-2.72 17.06,-0.27 20.68,2.18 25.79,5.54 30.89,8.91 34.98,11.29 39.07,13.68 42.70,15.91 46.33,18.15 50.22,20.66 54.11,23.18 55.41,24.81 56.71,26.44 57.42,28.40 58.13,30.37 58.17,32.45 58.21,34.54 57.59,36.53 56.97,38.52 55.74,40.21 54.51,41.89 52.81,43.10 51.11,44.31 49.11,44.91 47.12,45.51 45.03,45.44 42.95,45.37 40.99,44.64 39.04,43.91 37.42,42.59 35.80,41.28 34.69,39.51 33.58,37.75 33.08,35.72 32.59,33.69 32.77,31.61 32.96,29.54 33.79,27.63 34.63,25.71 36.03,24.17 37.43,22.63 39.25,21.61 41.08,20.59 43.13,20.21 45.18,19.83 47.24,20.13 49.31,20.42 51.17,21.36 53.03,22.30 54.50,23.78 55.97,25.26 56.88,27.14 57.80,29.01 58.07,31.08 58.34,33.15 57.93,35.20 57.52,37.24 56.49,39.05 55.45,40.86 53.89,42.24 52.33,43.63 50.41,44.44 48.49,45.25 46.41,45.41 44.33,45.57 42.30,45.05 40.28,44.53 38.53,43.40 36.78,42.27 36.78,42.27 36.78,42.27 36.27,41.85 35.76,41.43 32.21,39.04 28.66,36.65 25.01,33.75 21.37,30.86 17.77,28.30 14.16,25.73 10.62,22.97 7.07,20.21 3.35,16.95 -0.36,13.70 -3.56,10.87 -6.76,8.05 -7.63,7.12 -8.49,6.20 -9.11,5.09 -9.73,3.98 -10.06,2.76 -10.40,1.54 -10.43,0.27 -10.47,-0.99 -10.20,-2.23 -9.92,-3.47 -9.36,-4.60 -8.81,-5.74 -7.99,-6.71 -7.17,-7.68 -6.15,-8.43 -5.13,-9.18 -3.95,-9.66 -2.78,-10.14 -1.53,-10.32 -0.27,-10.51 0.98,-10.39 2.24,-10.27 3.44,-9.85 4.64,-9.43 5.70,-8.74 6.76,-8.05 6.76,-8.05 L 6.76,-8.05 Z"></path></g><g transform="translate(739.54541015625 470.9090881347656) rotate(0 20 -20.227294921875)" stroke="none"><path fill="#1e1e1e" d="M -7.23,-6.76 Q -7.23,-6.76 -1.23,-12.41 4.76,-18.07 9.63,-22.49 14.50,-26.92 17.75,-29.73 20.99,-32.54 24.75,-37.46 28.51,-42.37 29.51,-44.10 30.50,-45.82 31.61,-47.20 32.72,-48.57 34.20,-49.52 35.69,-50.47 37.40,-50.90 39.12,-51.32 40.87,-51.18 42.63,-51.03 44.25,-50.33 45.87,-49.64 47.19,-48.46 48.50,-47.28 49.37,-45.74 50.24,-44.21 50.57,-42.47 50.90,-40.74 50.66,-38.99 50.42,-37.24 49.63,-35.66 48.85,-34.08 47.60,-32.83 46.35,-31.59 44.77,-30.80 43.19,-30.02 41.44,-29.78 39.69,-29.55 37.96,-29.88 36.23,-30.21 34.69,-31.08 33.16,-31.95 31.98,-33.27 30.80,-34.58 30.10,-36.20 29.41,-37.82 29.27,-39.58 29.12,-41.34 29.55,-43.05 29.98,-44.77 30.93,-46.25 31.88,-47.74 33.26,-48.84 34.63,-49.95 36.29,-50.56 37.95,-51.16 39.71,-51.21 41.48,-51.26 43.16,-50.74 44.85,-50.22 46.28,-49.19 47.71,-48.16 48.74,-46.72 49.77,-45.29 50.29,-43.60 50.80,-41.91 50.75,-40.15 50.71,-38.39 50.10,-36.73 49.49,-35.07 49.49,-35.08 49.49,-35.08 46.12,-30.63 42.76,-26.19 39.42,-23.09 36.07,-19.99 31.24,-16.80 26.40,-13.61 22.05,-9.79 17.70,-5.97 12.47,0.39 7.23,6.76 6.32,7.53 5.40,8.30 4.33,8.82 3.26,9.35 2.09,9.60 0.93,9.86 -0.26,9.83 -1.45,9.79 -2.60,9.48 -3.75,9.16 -4.80,8.58 -5.84,7.99 -6.71,7.18 -7.58,6.36 -8.24,5.36 -8.89,4.36 -9.28,3.23 -9.67,2.11 -9.79,0.92 -9.90,-0.26 -9.72,-1.44 -9.55,-2.62 -9.09,-3.73 -8.64,-4.83 -7.94,-5.80 -7.23,-6.76 -7.23,-6.76 L -7.23,-6.76 Z"></path></g><g transform="translate(10 458.1817932128906) rotate(0 18.181808471679688 12.727264404296875)" stroke="none"><path fill="#1e1e1e" d="M 5.89,-7.99 Q 5.89,-7.99 11.27,-3.78 16.64,0.41 20.75,2.92 24.85,5.42 28.93,7.83 33.00,10.24 36.88,12.61 40.76,14.99 42.32,15.96 43.87,16.94 45.03,18.36 46.19,19.78 46.84,21.50 47.49,23.22 47.55,25.06 47.62,26.89 47.09,28.65 46.57,30.41 45.51,31.91 44.45,33.41 42.97,34.49 41.48,35.58 39.73,36.13 37.98,36.68 36.14,36.65 34.31,36.61 32.58,35.99 30.85,35.37 29.41,34.23 27.97,33.10 26.97,31.56 25.97,30.02 25.51,28.24 25.05,26.46 25.19,24.63 25.32,22.80 26.04,21.10 26.75,19.41 27.96,18.04 29.18,16.66 30.77,15.74 32.36,14.83 34.16,14.47 35.96,14.11 37.78,14.34 39.61,14.57 41.26,15.38 42.91,16.18 44.22,17.47 45.53,18.76 46.35,20.40 47.18,22.03 47.44,23.85 47.71,25.67 47.37,27.47 47.04,29.28 46.15,30.89 45.26,32.49 43.90,33.73 42.55,34.97 40.86,35.70 39.18,36.44 37.35,36.61 35.52,36.77 33.74,36.34 31.95,35.91 31.96,35.91 31.96,35.91 26.87,32.17 21.78,28.44 18.02,25.14 14.27,21.84 9.78,18.81 5.30,15.78 -0.29,11.89 -5.89,7.99 -6.76,7.17 -7.64,6.34 -8.28,5.34 -8.93,4.33 -9.32,3.20 -9.71,2.07 -9.82,0.87 -9.92,-0.31 -9.74,-1.49 -9.56,-2.68 -9.10,-3.78 -8.64,-4.89 -7.93,-5.85 -7.22,-6.81 -6.30,-7.58 -5.38,-8.35 -4.30,-8.87 -3.22,-9.39 -2.05,-9.64 -0.88,-9.89 0.31,-9.85 1.51,-9.81 2.66,-9.49 3.81,-9.17 4.85,-8.58 5.89,-7.99 5.89,-7.99 L 5.89,-7.99 Z"></path></g></svg>