<?xml version="1.0" standalone="no"?>
<!DOCTYPE svg PUBLIC "-//W3C//DTD SVG 1.1//EN" "http://www.w3.org/Graphics/SVG/1.1/DTD/svg11.dtd">
<svg version="1.1" xmlns="http://www.w3.org/2000/svg" viewBox="0 0 923.7667452147399 509.7771716746439" width="923.7667452147399" height="509.7771716746439"><!-- svg-source:excalidraw --><metadata></metadata><defs><style class="style-fonts">
      </style></defs><g transform="translate(135.04949875992588 217.46848947003434) rotate(0 326.83387384744407 37.42009636728761)" stroke="none"><path fill="#1e1e1e" d="M -9.03,0.86 Q -9.03,0.86 -9.65,-4.85 -10.27,-10.56 -10.43,-18.60 -10.59,-26.65 -10.38,-35.90 -10.17,-45.15 -10.08,-53.13 -10.00,-61.12 -10.24,-67.24 -10.49,-73.35 -10.73,-78.95 -10.97,-84.55 -10.61,-93.83 -10.26,-103.11 -8.44,-111.55 -6.62,-119.98 -5.00,-124.42 -3.37,-128.86 -1.62,-132.95 0.11,-137.05 2.27,-141.40 4.44,-145.76 8.71,-151.07 12.98,-156.38 17.44,-160.65 21.91,-164.92 25.30,-168.08 28.69,-171.24 32.60,-174.58 36.52,-177.93 41.54,-180.04 46.56,-182.16 51.04,-183.62 55.51,-185.08 60.40,-186.13 65.30,-187.18 70.49,-187.85 75.69,-188.52 80.87,-189.04 86.06,-189.55 90.64,-190.26 95.23,-190.98 100.52,-191.36 105.82,-191.74 110.51,-191.92 115.21,-192.10 120.12,-192.41 125.03,-192.73 132.34,-189.41 139.64,-186.09 143.89,-182.82 148.13,-179.54 154.29,-173.38 160.45,-167.21 165.74,-162.68 171.02,-158.14 174.48,-155.46 177.93,-152.78 182.56,-146.89 187.18,-141.00 189.89,-136.70 192.61,-132.40 194.81,-127.26 197.01,-122.13 198.86,-117.24 200.72,-112.34 202.61,-106.66 204.49,-100.98 205.88,-95.06 207.27,-89.14 208.20,-86.96 209.14,-84.77 209.24,-83.23 209.35,-81.69 209.08,-80.17 208.81,-78.64 208.19,-77.23 207.57,-75.82 206.62,-74.59 205.68,-73.37 204.47,-72.41 203.26,-71.44 201.86,-70.80 200.45,-70.15 198.93,-69.86 197.42,-69.57 195.87,-69.66 194.33,-69.74 192.85,-70.19 191.37,-70.63 190.04,-71.42 188.71,-72.21 187.61,-73.30 186.51,-74.38 185.70,-75.70 184.89,-77.02 184.42,-78.49 183.95,-79.96 182.19,-84.90 180.43,-89.85 179.51,-96.31 178.60,-102.78 178.36,-107.63 178.11,-112.47 178.39,-118.58 178.67,-124.69 180.84,-129.76 183.01,-134.84 186.93,-140.88 190.86,-146.93 198.08,-154.65 205.30,-162.37 210.77,-166.34 216.24,-170.30 224.22,-174.47 232.20,-178.64 239.36,-182.32 246.53,-186.00 255.10,-189.14 263.67,-192.27 275.84,-195.12 288.00,-197.97 299.61,-200.36 311.21,-202.74 323.42,-205.54 335.64,-208.34 347.46,-209.80 359.28,-211.26 370.92,-211.82 382.57,-212.39 393.23,-212.58 403.90,-212.78 414.30,-212.29 424.71,-211.79 433.68,-210.45 442.66,-209.11 450.29,-207.89 457.92,-206.68 465.13,-205.17 472.34,-203.67 478.84,-201.45 485.33,-199.23 492.00,-195.33 498.67,-191.42 504.80,-185.53 510.94,-179.64 516.01,-173.88 521.08,-168.12 525.17,-161.14 529.25,-154.15 532.69,-145.50 536.13,-136.86 538.81,-129.70 541.50,-122.54 543.29,-114.79 545.09,-107.05 546.43,-98.30 547.77,-89.55 548.64,-82.40 549.50,-75.25 550.10,-69.46 550.70,-63.66 551.17,-59.27 551.64,-54.88 550.78,-47.58 549.92,-40.29 547.17,-34.80 544.42,-29.32 541.82,-26.46 539.22,-23.60 538.21,-22.81 537.20,-22.02 536.04,-21.50 534.87,-20.98 533.61,-20.75 532.35,-20.52 531.07,-20.60 529.79,-20.68 528.57,-21.07 527.35,-21.45 526.25,-22.11 525.16,-22.78 524.26,-23.69 523.35,-24.59 522.69,-25.69 522.03,-26.79 521.66,-28.01 521.28,-29.23 521.20,-30.51 521.13,-31.79 521.36,-33.05 521.60,-34.31 522.12,-35.48 522.65,-36.64 523.44,-37.65 524.24,-38.65 528.80,-43.18 533.36,-47.71 540.83,-52.40 548.30,-57.08 555.40,-61.18 562.50,-65.29 568.18,-69.30 573.86,-73.32 579.66,-76.79 585.46,-80.26 590.21,-83.14 594.95,-86.02 599.82,-88.00 604.70,-89.98 609.90,-91.97 615.10,-93.97 620.90,-95.16 626.70,-96.34 631.98,-96.88 637.25,-97.41 642.52,-97.66 647.79,-97.91 654.39,-97.84 661.00,-97.76 666.51,-97.83 672.03,-97.91 677.64,-97.94 683.26,-97.97 690.90,-97.13 698.53,-96.29 704.16,-95.58 709.78,-94.88 714.96,-93.77 720.14,-92.67 725.56,-90.31 730.98,-87.95 734.79,-85.85 738.60,-83.75 742.20,-80.82 745.80,-77.89 751.12,-73.37 756.43,-68.85 760.72,-62.83 765.02,-56.82 767.87,-51.98 770.73,-47.15 774.03,-39.98 777.33,-32.81 778.94,-28.77 780.55,-24.73 782.59,-18.68 784.63,-12.64 785.16,-8.04 785.69,-3.44 787.27,2.98 788.84,9.42 788.70,14.99 788.55,20.57 787.18,24.62 785.80,28.67 783.46,33.77 781.13,38.86 778.55,42.29 775.97,45.71 772.26,51.00 768.55,56.28 765.36,61.18 762.16,66.08 758.78,69.47 755.39,72.87 752.03,75.49 748.67,78.12 741.68,82.48 734.70,86.84 728.09,89.56 721.49,92.28 715.02,91.58 708.55,90.89 702.59,87.21 696.63,83.53 691.34,80.07 686.06,76.60 683.00,71.69 679.94,66.77 679.86,57.80 679.79,48.83 682.20,42.86 684.60,36.89 687.60,32.31 690.60,27.72 694.38,23.82 698.16,19.92 702.72,16.69 707.28,13.46 711.07,11.09 714.87,8.72 719.87,6.88 724.87,5.04 731.06,3.89 737.24,2.74 742.03,2.46 746.82,2.18 755.07,6.98 763.32,11.78 767.50,17.23 771.69,22.68 774.09,26.77 776.50,30.86 778.50,35.55 780.50,40.24 782.27,45.96 784.04,51.68 786.36,60.70 788.69,69.71 789.32,74.33 789.94,78.95 790.26,83.46 790.57,87.96 790.83,95.06 791.10,102.17 791.16,109.42 791.22,116.67 789.88,121.98 788.54,127.30 786.80,131.70 785.05,136.10 781.96,141.29 778.86,146.49 775.42,151.04 771.97,155.58 769.00,159.46 766.02,163.35 760.83,169.23 755.63,175.11 752.56,178.12 749.48,181.13 744.90,185.90 740.32,190.68 736.77,193.24 733.23,195.81 726.43,200.40 719.63,204.99 712.96,207.60 706.29,210.22 700.11,212.01 693.93,213.80 686.84,215.72 679.76,217.64 673.50,219.02 667.24,220.39 660.13,221.71 653.03,223.02 644.81,224.52 636.58,226.02 628.23,227.37 619.87,228.73 610.86,229.44 601.85,230.14 592.76,230.33 583.68,230.52 573.83,230.51 563.98,230.51 554.36,230.45 544.73,230.39 535.92,230.86 527.10,231.33 519.10,231.65 511.11,231.96 502.69,231.76 494.27,231.56 486.42,230.22 478.58,228.88 472.19,228.01 465.80,227.13 459.88,226.08 453.95,225.04 449.01,224.25 444.08,223.46 439.66,222.37 435.24,221.29 428.95,218.09 422.66,214.89 420.36,210.07 418.05,205.26 415.85,198.38 413.66,191.50 412.60,185.38 411.54,179.25 412.22,172.65 412.89,166.06 415.35,161.03 417.81,156.01 425.25,150.67 432.69,145.34 438.79,144.04 444.90,142.73 451.28,142.21 457.66,141.69 465.78,141.92 473.90,142.15 478.66,145.33 483.41,148.51 485.71,153.12 488.01,157.72 488.87,164.17 489.74,170.62 490.20,177.58 490.67,184.54 488.46,193.17 486.25,201.80 481.42,209.21 476.59,216.62 472.01,220.29 467.43,223.96 461.60,228.00 455.77,232.04 450.12,234.03 444.47,236.01 439.62,237.59 434.76,239.17 429.84,240.51 424.92,241.85 417.45,243.43 409.97,245.01 403.24,246.72 396.50,248.42 386.98,250.08 377.46,251.75 371.76,253.28 366.05,254.80 359.19,256.39 352.32,257.98 345.99,259.72 339.66,261.47 333.60,263.12 327.54,264.77 322.03,266.36 316.53,267.95 309.73,269.57 302.94,271.20 294.89,272.50 286.84,273.81 277.69,274.41 268.54,275.01 259.15,275.93 249.75,276.85 240.50,277.70 231.25,278.56 222.89,279.91 214.53,281.27 205.67,282.64 196.81,284.01 189.53,285.34 182.26,286.68 175.10,287.41 167.94,288.15 159.95,288.34 151.97,288.54 142.58,288.45 133.20,288.37 123.23,288.28 113.26,288.19 102.48,288.11 91.71,288.03 80.05,287.97 68.39,287.91 56.90,287.86 45.40,287.82 36.08,287.51 26.76,287.20 22.09,287.30 17.42,287.40 11.52,286.89 5.61,286.38 -9.13,279.83 -23.89,273.29 -35.63,267.09 -47.37,260.90 -52.60,258.35 -57.82,255.80 -63.76,252.39 -69.69,248.98 -76.64,242.61 -83.60,236.25 -87.70,232.22 -91.79,228.19 -95.55,223.69 -99.31,219.20 -102.29,214.93 -105.26,210.66 -109.98,203.57 -114.70,196.49 -117.78,192.28 -120.86,188.07 -122.94,184.00 -125.03,179.93 -127.18,174.27 -129.33,168.60 -131.61,162.87 -133.89,157.15 -135.28,150.80 -136.66,144.45 -137.03,138.18 -137.39,131.91 -137.45,124.43 -137.51,116.94 -136.87,110.02 -136.23,103.09 -134.60,98.64 -132.96,94.19 -129.94,88.98 -126.92,83.78 -124.23,79.48 -121.54,75.19 -118.91,71.44 -116.28,67.68 -113.64,64.10 -110.99,60.52 -107.22,56.47 -103.45,52.41 -99.92,49.73 -96.39,47.04 -91.40,43.91 -86.41,40.79 -82.29,38.46 -78.16,36.12 -74.38,33.42 -70.59,30.72 -65.99,29.44 -61.39,28.15 -57.03,26.80 -52.67,25.44 -48.59,24.16 -44.51,22.88 -38.53,21.56 -32.54,20.25 -25.85,19.30 -19.16,18.35 -16.02,7.45 -12.89,-3.43 -12.00,-5.40 -11.12,-7.37 -9.65,-8.95 -8.18,-10.53 -6.28,-11.56 -4.39,-12.59 -2.26,-12.97 -0.13,-13.34 1.99,-13.01 4.12,-12.68 6.04,-11.69 7.96,-10.70 9.46,-9.15 10.96,-7.60 11.89,-5.65 12.81,-3.70 13.07,-1.55 13.33,0.58 12.88,2.69 12.44,4.81 11.35,6.67 10.25,8.53 8.62,9.94 6.99,11.36 5.00,12.18 3.00,13.00 0.84,13.14 -1.30,13.27 -3.39,12.72 -5.47,12.16 -7.27,10.97 -9.07,9.78 -10.40,8.07 -11.72,6.37 -12.43,4.33 -13.14,2.29 -13.16,0.13 -13.18,-2.02 -12.52,-4.07 -11.85,-6.12 -10.56,-7.86 -9.27,-9.59 -7.50,-10.82 -5.72,-12.05 -3.65,-12.65 -1.57,-13.24 0.57,-13.15 2.73,-13.06 4.74,-12.28 6.76,-11.50 8.42,-10.12 10.08,-8.74 11.21,-6.90 12.34,-5.06 12.83,-2.96 13.31,-0.85 13.10,1.29 12.89,3.43 12.89,3.43 12.89,3.43 10.99,5.85 9.09,8.28 10.31,15.07 11.54,21.86 10.60,26.03 9.66,30.21 6.61,34.40 3.57,38.60 -1.93,41.38 -7.44,44.15 -13.30,45.38 -19.16,46.61 -25.59,47.70 -32.03,48.78 -37.76,50.41 -43.48,52.04 -50.49,53.25 -57.50,54.46 -61.40,57.45 -65.30,60.44 -70.93,63.38 -76.57,66.33 -81.89,70.62 -87.20,74.92 -90.52,78.45 -93.84,81.98 -96.84,85.98 -99.84,89.98 -102.97,94.66 -106.10,99.35 -108.66,103.23 -111.21,107.10 -111.88,112.00 -112.55,116.89 -112.55,124.19 -112.54,131.49 -112.47,138.41 -112.40,145.32 -111.21,150.65 -110.02,155.97 -108.33,161.32 -106.64,166.66 -105.06,171.52 -103.47,176.38 -100.98,181.03 -98.49,185.68 -94.22,193.36 -89.96,201.03 -87.86,204.83 -85.76,208.62 -82.71,212.85 -79.65,217.07 -76.69,220.75 -73.72,224.42 -66.63,229.77 -59.53,235.12 -55.12,239.10 -50.71,243.08 -46.05,246.06 -41.39,249.03 -29.87,254.56 -18.35,260.08 -4.01,265.73 10.32,271.38 14.43,272.97 18.53,274.56 22.81,275.44 27.08,276.32 36.24,276.55 45.40,276.78 56.89,276.73 68.38,276.68 80.04,276.60 91.69,276.53 102.45,276.42 113.21,276.31 123.15,276.14 133.08,275.97 142.35,275.71 151.61,275.44 159.30,275.22 166.99,274.99 173.65,274.73 180.30,274.47 187.59,273.46 194.88,272.46 203.62,270.88 212.37,269.31 221.07,267.59 229.78,265.86 238.90,264.60 248.02,263.33 257.50,261.83 266.97,260.32 275.31,259.06 283.65,257.80 291.11,256.00 298.58,254.20 305.21,252.38 311.85,250.56 317.44,249.16 323.03,247.76 328.97,246.23 334.92,244.70 341.46,242.81 348.00,240.91 354.76,239.05 361.52,237.20 367.36,235.75 373.21,234.30 381.89,231.53 390.57,228.76 397.18,226.43 403.79,224.10 411.05,221.32 418.32,218.55 422.45,217.33 426.57,216.11 434.67,213.18 442.77,210.24 447.50,207.13 452.23,204.02 456.28,200.38 460.33,196.75 463.09,191.01 465.86,185.28 465.69,179.28 465.52,173.27 462.74,169.12 459.95,164.96 455.20,165.54 450.45,166.12 442.97,169.16 435.49,172.20 434.73,176.64 433.98,181.09 434.88,186.79 435.79,192.49 435.79,197.54 435.79,202.59 441.68,205.29 447.57,207.98 452.39,209.40 457.21,210.81 462.70,212.37 468.19,213.94 474.56,215.37 480.94,216.81 487.74,218.33 494.54,219.86 502.64,220.00 510.74,220.13 518.55,219.96 526.36,219.79 535.50,219.10 544.64,218.42 554.19,218.21 563.75,218.00 573.40,217.63 583.05,217.27 591.63,216.61 600.22,215.96 608.45,214.68 616.68,213.40 624.53,211.38 632.39,209.35 640.51,206.73 648.63,204.11 655.65,202.15 662.66,200.19 667.81,198.97 672.97,197.76 679.94,194.87 686.91,191.98 692.01,190.15 697.11,188.32 701.59,186.25 706.08,184.19 712.57,179.75 719.07,175.32 723.29,172.16 727.52,169.01 732.53,164.04 737.55,159.07 742.25,154.09 746.95,149.11 749.79,145.19 752.63,141.27 757.22,134.10 761.80,126.93 763.99,121.66 766.18,116.40 766.18,109.47 766.19,102.54 766.13,96.06 766.07,89.57 765.22,81.88 764.38,74.18 762.42,67.02 760.46,59.86 758.62,55.16 756.77,50.46 753.69,44.45 750.60,38.45 748.90,33.35 747.19,28.24 741.83,28.29 736.47,28.33 732.27,29.15 728.07,29.97 722.07,33.97 716.08,37.97 712.19,42.65 708.30,47.34 705.03,52.78 701.76,58.22 705.87,59.75 709.97,61.27 714.14,63.00 718.31,64.72 722.60,62.84 726.88,60.97 731.97,57.08 737.06,53.20 740.12,49.58 743.18,45.96 746.57,41.01 749.95,36.06 754.52,29.40 759.08,22.75 760.77,16.80 762.46,10.86 761.36,4.86 760.26,-1.12 760.13,-5.73 760.00,-10.33 757.78,-16.15 755.56,-21.97 752.60,-28.70 749.64,-35.43 746.62,-42.43 743.60,-49.42 740.37,-53.43 737.15,-57.45 732.44,-61.79 727.74,-66.13 721.57,-69.89 715.41,-73.65 711.21,-74.84 707.00,-76.03 702.08,-76.87 697.15,-77.71 690.22,-77.95 683.30,-78.19 677.71,-78.20 672.12,-78.21 666.66,-78.23 661.19,-78.24 654.79,-78.04 648.39,-77.84 643.54,-77.79 638.70,-77.73 630.11,-77.07 621.52,-76.41 612.52,-73.60 603.52,-70.79 598.70,-68.26 593.89,-65.72 588.74,-62.85 583.59,-59.97 577.60,-55.47 571.62,-50.97 565.36,-46.57 559.10,-42.17 553.09,-37.10 547.09,-32.02 543.15,-27.81 539.22,-23.60 538.21,-22.81 537.20,-22.02 536.04,-21.50 534.87,-20.98 533.61,-20.75 532.35,-20.52 531.07,-20.60 529.79,-20.68 528.57,-21.07 527.35,-21.45 526.26,-22.11 525.16,-22.78 524.26,-23.69 523.35,-24.59 522.69,-25.69 522.03,-26.79 521.66,-28.01 521.28,-29.23 521.20,-30.51 521.13,-31.79 521.36,-33.05 521.60,-34.31 522.12,-35.47 522.65,-36.64 523.44,-37.65 524.24,-38.65 525.90,-39.49 527.56,-40.33 530.80,-44.98 534.04,-49.63 535.04,-56.29 536.04,-62.95 536.09,-68.48 536.14,-74.01 535.72,-80.68 535.30,-87.35 533.62,-95.73 531.94,-104.12 530.46,-111.05 528.99,-117.99 526.54,-124.87 524.10,-131.76 520.59,-139.48 517.08,-147.21 513.80,-153.12 510.52,-159.04 505.95,-164.40 501.37,-169.76 496.35,-174.66 491.32,-179.55 485.83,-183.09 480.34,-186.62 474.89,-189.09 469.44,-191.55 462.64,-193.38 455.85,-195.21 448.46,-196.71 441.07,-198.21 432.65,-199.40 424.23,-200.60 414.22,-200.96 404.20,-201.31 393.73,-200.94 383.26,-200.57 372.10,-199.81 360.94,-199.04 349.86,-197.38 338.77,-195.71 326.58,-192.43 314.38,-189.16 303.15,-186.22 291.92,-183.27 281.13,-180.00 270.34,-176.73 263.33,-173.15 256.32,-169.57 249.91,-165.14 243.50,-160.71 237.47,-156.05 231.45,-151.39 224.29,-144.85 217.12,-138.30 213.28,-132.63 209.43,-126.95 207.10,-122.34 204.76,-117.72 204.76,-111.26 204.77,-104.81 205.33,-99.91 205.89,-95.02 207.51,-89.90 209.14,-84.77 209.24,-83.23 209.35,-81.69 209.08,-80.17 208.81,-78.64 208.19,-77.23 207.57,-75.82 206.62,-74.59 205.68,-73.37 204.47,-72.41 203.26,-71.44 201.86,-70.80 200.45,-70.15 198.93,-69.86 197.42,-69.57 195.87,-69.66 194.33,-69.74 192.85,-70.19 191.37,-70.63 190.04,-71.42 188.71,-72.21 187.61,-73.30 186.51,-74.38 185.70,-75.70 184.89,-77.02 184.42,-78.49 183.95,-79.96 183.23,-83.84 182.51,-87.73 181.83,-93.23 181.16,-98.74 179.79,-103.72 178.42,-108.71 176.44,-114.88 174.46,-121.06 170.27,-128.16 166.09,-135.25 162.57,-139.11 159.05,-142.96 153.08,-147.30 147.10,-151.64 140.87,-156.10 134.64,-160.57 130.00,-164.82 125.36,-169.07 120.64,-169.22 115.92,-169.36 111.65,-169.26 107.37,-169.16 103.08,-168.88 98.79,-168.60 93.64,-167.77 88.50,-166.93 83.60,-166.36 78.70,-165.78 70.61,-164.51 62.51,-163.24 58.40,-161.94 54.28,-160.64 48.60,-157.97 42.93,-155.31 39.66,-152.51 36.39,-149.72 32.87,-146.39 29.35,-143.05 26.38,-139.45 23.41,-135.84 21.34,-132.03 19.28,-128.22 15.92,-121.27 12.56,-114.32 10.21,-107.05 7.85,-99.78 6.59,-92.19 5.34,-84.60 5.13,-79.02 4.92,-73.45 4.75,-67.37 4.58,-61.29 4.85,-53.40 5.12,-45.51 5.75,-36.62 6.39,-27.73 7.24,-20.02 8.09,-12.31 8.56,-6.58 9.03,-0.86 9.00,0.23 8.97,1.32 8.68,2.38 8.39,3.43 7.86,4.39 7.33,5.34 6.58,6.14 5.83,6.94 4.92,7.54 4.00,8.14 2.97,8.50 1.94,8.86 0.85,8.96 -0.23,9.07 -1.31,8.91 -2.39,8.75 -3.41,8.33 -4.42,7.92 -5.30,7.27 -6.19,6.63 -6.89,5.79 -7.60,4.95 -8.08,3.97 -8.56,2.99 -8.80,1.92 -9.03,0.85 -9.03,0.85 L -9.03,0.86 Z"></path></g><g transform="translate(341.57064643345154 69.6827239904369) rotate(0 168.15369360886336 27.946630699603134)" stroke="none"><path fill="#1e1e1e" d="M -7.90,-6.46 Q -7.90,-6.46 -5.57,-9.55 -3.23,-12.65 -0.33,-16.01 2.56,-19.38 6.05,-22.81 9.55,-26.24 14.27,-29.65 18.99,-33.06 24.06,-35.26 29.13,-37.46 35.54,-40.12 41.95,-42.79 47.83,-44.34 53.72,-45.89 57.95,-46.55 62.18,-47.21 67.24,-48.62 72.30,-50.04 77.53,-51.51 82.76,-52.99 88.62,-54.48 94.49,-55.97 99.30,-57.05 104.11,-58.13 108.63,-59.09 113.15,-60.05 118.11,-61.59 123.08,-63.13 129.54,-63.68 136.01,-64.23 140.64,-64.27 145.28,-64.31 151.21,-64.47 157.14,-64.64 163.00,-64.82 168.87,-65.00 173.18,-65.07 177.50,-65.13 184.62,-65.01 191.75,-64.88 199.86,-64.71 207.98,-64.55 212.85,-64.60 217.73,-64.66 222.07,-64.80 226.41,-64.94 231.29,-65.01 236.18,-65.08 241.56,-63.22 246.94,-61.37 250.71,-58.63 254.48,-55.89 259.21,-52.58 263.93,-49.28 268.94,-45.86 273.96,-42.43 277.53,-39.93 281.11,-37.44 287.06,-33.81 293.02,-30.18 301.43,-24.96 309.84,-19.75 316.18,-15.87 322.51,-11.98 325.16,-7.16 327.80,-2.33 330.05,1.77 332.29,5.88 334.64,10.63 336.98,15.37 338.94,20.89 340.90,26.41 342.27,31.67 343.65,36.93 344.76,42.31 345.87,47.68 346.53,52.39 347.19,57.11 347.71,62.06 348.23,67.01 349.26,73.16 350.29,79.32 350.80,84.06 351.31,88.79 351.39,93.46 351.47,98.13 351.49,102.59 351.51,107.04 351.11,109.47 350.72,111.90 349.56,114.07 348.41,116.25 346.62,117.94 344.84,119.63 342.60,120.67 340.37,121.70 337.92,121.97 335.48,122.23 333.08,121.70 330.67,121.17 328.56,119.90 326.46,118.64 324.86,116.76 323.27,114.89 322.36,112.60 321.45,110.31 321.32,107.86 321.18,105.40 321.84,103.03 322.50,100.66 323.88,98.62 325.26,96.58 327.22,95.10 329.18,93.61 331.51,92.82 333.84,92.04 336.30,92.04 338.76,92.04 341.10,92.82 343.43,93.61 345.39,95.10 347.35,96.59 348.73,98.62 350.11,100.66 350.76,103.03 351.42,105.40 351.29,107.86 351.15,110.32 350.24,112.60 349.33,114.89 347.74,116.76 346.15,118.64 344.04,119.91 341.93,121.17 339.53,121.70 337.12,122.23 334.68,121.96 332.23,121.70 330.00,120.66 327.76,119.63 325.98,117.94 324.19,116.25 323.04,114.07 321.89,111.90 321.49,109.47 321.09,107.04 321.09,107.04 321.09,107.05 321.10,104.46 321.11,101.87 321.69,97.29 322.28,92.71 322.10,88.10 321.92,83.48 320.24,76.54 318.56,69.61 318.14,65.17 317.73,60.73 317.51,56.17 317.29,51.61 316.30,46.80 315.32,41.98 313.79,36.80 312.25,31.63 310.11,25.04 307.97,18.45 304.09,11.72 300.21,4.99 294.28,1.39 288.36,-2.21 283.79,-4.30 279.22,-6.39 274.82,-9.03 270.43,-11.67 264.99,-15.20 259.56,-18.73 255.53,-21.08 251.51,-23.44 246.69,-26.95 241.87,-30.46 237.99,-33.81 234.10,-37.17 228.74,-37.32 223.37,-37.48 218.52,-37.60 213.67,-37.72 206.69,-37.65 199.70,-37.58 191.52,-37.38 183.34,-37.18 176.42,-37.17 169.49,-37.16 164.54,-37.01 159.59,-36.85 152.47,-36.47 145.35,-36.08 140.89,-36.09 136.43,-36.09 130.69,-35.65 124.94,-35.22 119.62,-33.73 114.30,-32.25 109.18,-31.32 104.06,-30.40 99.71,-29.59 95.35,-28.78 90.20,-27.19 85.04,-25.61 78.97,-24.26 72.89,-22.90 68.73,-21.78 64.58,-20.65 59.89,-19.96 55.21,-19.26 48.13,-16.95 41.04,-14.64 35.75,-12.85 30.46,-11.05 25.24,-8.41 20.02,-5.77 16.53,-2.55 13.04,0.66 10.47,3.56 7.90,6.46 7.01,7.31 6.12,8.16 5.05,8.78 3.99,9.39 2.80,9.73 1.62,10.08 0.39,10.12 -0.83,10.17 -2.03,9.92 -3.24,9.68 -4.35,9.15 -5.46,8.62 -6.41,7.84 -7.37,7.06 -8.10,6.08 -8.84,5.09 -9.32,3.96 -9.81,2.83 -10.00,1.61 -10.20,0.39 -10.10,-0.82 -10.00,-2.05 -9.61,-3.22 -9.21,-4.38 -8.56,-5.42 -7.90,-6.46 -7.90,-6.46 L -7.90,-6.46 Z"></path></g><g transform="translate(31.788956724895 400.30599682564775) rotate(0 282.78233720199796 49.261900625377734)" stroke="none"><path fill="#1e1e1e" d="M 9.15,-4.93 Q 9.15,-4.93 11.18,-1.45 13.20,2.02 15.99,6.55 18.78,11.08 23.05,15.66 27.33,20.23 30.56,23.29 33.79,26.35 37.30,29.97 40.82,33.59 43.02,37.88 45.22,42.16 49.55,44.88 53.87,47.59 57.66,50.47 61.44,53.35 69.29,57.80 77.15,62.25 81.77,64.76 86.40,67.27 91.36,69.20 96.33,71.14 104.75,73.92 113.17,76.70 121.38,79.83 129.59,82.95 135.91,84.66 142.24,86.38 148.95,86.88 155.66,87.38 160.96,87.54 166.25,87.70 173.19,88.05 180.12,88.40 186.08,88.47 192.03,88.54 197.29,88.50 202.54,88.45 208.59,87.98 214.63,87.51 220.86,87.27 227.09,87.02 231.74,86.81 236.39,86.61 241.74,86.44 247.09,86.28 253.95,86.20 260.81,86.11 265.66,85.91 270.51,85.71 277.11,85.52 283.72,85.34 291.02,85.38 298.33,85.43 306.36,85.52 314.40,85.61 321.12,85.59 327.85,85.56 332.39,85.46 336.94,85.35 342.90,83.88 348.86,82.42 354.40,81.36 359.95,80.31 366.86,79.47 373.76,78.64 379.80,78.06 385.84,77.47 390.50,76.23 395.16,74.98 399.87,73.88 404.57,72.78 409.51,70.95 414.45,69.11 423.41,67.13 432.38,65.15 438.19,64.53 444.01,63.92 448.30,63.58 452.59,63.25 457.20,62.54 461.81,61.83 466.69,60.45 471.58,59.08 477.11,57.68 482.65,56.28 487.17,54.63 491.68,52.99 496.53,52.17 501.37,51.35 506.50,51.07 511.63,50.79 515.96,49.47 520.29,48.15 526.49,45.63 532.69,43.11 536.59,40.53 540.50,37.96 543.82,34.53 547.14,31.10 549.57,27.60 552.00,24.10 551.70,23.78 551.40,23.46 552.42,21.30 553.43,19.15 555.07,17.43 556.72,15.71 558.83,14.60 560.94,13.50 563.29,13.13 565.64,12.76 567.98,13.15 570.33,13.55 572.43,14.68 574.53,15.80 576.15,17.54 577.78,19.28 578.77,21.44 579.76,23.61 580.00,25.98 580.25,28.34 579.72,30.66 579.20,32.99 577.96,35.02 576.72,37.05 574.90,38.58 573.08,40.12 570.86,40.98 568.65,41.85 566.27,41.97 563.89,42.09 561.60,41.44 559.31,40.79 557.35,39.44 555.38,38.09 553.95,36.19 552.52,34.29 551.78,32.03 551.03,29.77 551.04,27.39 551.05,25.01 551.83,22.76 552.60,20.51 554.05,18.62 555.50,16.73 557.48,15.41 559.46,14.08 561.75,13.46 564.05,12.83 566.43,12.98 568.80,13.12 571.01,14.01 573.21,14.90 575.02,16.45 576.83,18.01 578.04,20.05 579.26,22.10 579.76,24.43 580.25,26.75 579.98,29.12 579.71,31.48 579.71,31.48 579.72,31.48 579.11,32.89 578.51,34.30 574.45,40.26 570.39,46.22 567.15,49.70 563.90,53.19 560.22,56.06 556.54,58.94 552.28,61.99 548.02,65.03 541.91,67.90 535.80,70.76 529.94,72.85 524.08,74.95 519.09,76.20 514.10,77.45 507.98,78.04 501.86,78.63 497.80,79.87 493.73,81.12 489.34,82.13 484.95,83.15 479.33,84.55 473.70,85.94 466.33,87.54 458.95,89.14 453.39,89.54 447.82,89.95 443.00,90.89 438.19,91.83 433.57,93.11 428.94,94.40 424.43,95.97 419.91,97.54 414.72,98.93 409.54,100.32 403.89,101.39 398.25,102.46 393.09,103.69 387.93,104.93 382.30,105.53 376.67,106.12 371.94,106.49 367.21,106.86 361.48,107.72 355.75,108.59 351.02,109.81 346.28,111.03 341.63,111.36 336.97,111.69 332.41,111.58 327.85,111.48 321.12,111.45 314.40,111.43 306.36,111.52 298.33,111.61 291.02,111.65 283.72,111.70 277.11,111.52 270.51,111.33 265.66,111.13 260.81,110.93 253.95,110.84 247.09,110.76 241.74,110.59 236.39,110.43 231.74,110.23 227.09,110.02 220.86,109.77 214.62,109.52 208.57,109.04 202.51,108.56 197.24,108.50 191.96,108.43 185.97,108.46 179.98,108.49 172.89,108.74 165.81,108.99 155.91,108.44 146.01,107.89 141.84,107.03 137.66,106.17 130.83,104.84 123.99,103.51 115.34,102.04 106.69,100.58 100.50,99.19 94.30,97.80 88.81,95.81 83.32,93.82 79.24,92.15 75.17,90.47 69.89,88.19 64.62,85.91 60.06,83.76 55.51,81.61 50.33,78.53 45.15,75.45 41.01,72.22 36.87,68.98 32.10,64.27 27.33,59.56 22.86,53.61 18.40,47.67 15.23,44.18 12.07,40.70 9.05,36.62 6.04,32.55 2.24,27.03 -1.56,21.52 -3.57,16.83 -5.57,12.13 -7.36,8.53 -9.15,4.93 -9.61,3.76 -10.07,2.59 -10.23,1.35 -10.40,0.11 -10.26,-1.13 -10.12,-2.38 -9.69,-3.55 -9.26,-4.73 -8.56,-5.77 -7.85,-6.81 -6.92,-7.65 -5.99,-8.49 -4.89,-9.09 -3.79,-9.68 -2.57,-10.00 -1.36,-10.31 -0.10,-10.32 1.14,-10.33 2.36,-10.05 3.58,-9.76 4.70,-9.19 5.81,-8.62 6.76,-7.80 7.71,-6.97 8.43,-5.95 9.15,-4.93 9.15,-4.93 L 9.15,-4.93 Z"></path></g><g transform="translate(558.5125220668402 394.6219460465959) rotate(0 134.99663532586476 25.57829210919749)" stroke="none"><path fill="#1e1e1e" d="M 9.93,2.33 Q 9.93,2.33 8.93,6.98 7.93,11.63 7.73,16.11 7.54,20.59 11.07,24.75 14.60,28.92 18.79,31.10 22.99,33.29 27.40,33.41 31.82,33.53 37.28,33.60 42.74,33.68 47.56,33.59 52.39,33.50 57.51,33.42 62.64,33.35 67.40,33.29 72.17,33.23 77.63,33.26 83.08,33.28 88.83,34.03 94.58,34.78 103.26,35.38 111.94,35.97 117.89,36.32 123.84,36.66 129.72,37.41 135.60,38.16 140.46,38.50 145.32,38.83 150.31,38.80 155.31,38.77 164.60,38.22 173.88,37.68 178.33,37.59 182.78,37.49 187.23,36.61 191.68,35.73 196.88,34.86 202.08,33.99 207.45,32.51 212.82,31.04 219.72,28.78 226.62,26.51 230.86,25.46 235.09,24.42 239.55,23.29 244.01,22.17 247.38,19.01 250.74,15.86 255.18,14.41 259.62,12.96 262.09,11.05 264.55,9.13 266.51,7.94 268.47,6.75 270.71,6.24 272.95,5.74 275.23,5.98 277.51,6.22 279.59,7.17 281.68,8.12 283.35,9.69 285.02,11.26 286.10,13.28 287.19,15.30 287.57,17.56 287.95,19.83 287.59,22.09 287.23,24.35 286.16,26.38 285.10,28.42 283.44,30.00 281.78,31.58 279.71,32.56 277.63,33.53 275.35,33.79 273.07,34.04 270.83,33.56 268.59,33.08 266.62,31.90 264.65,30.73 263.16,28.99 261.67,27.25 260.81,25.12 259.95,23.00 259.82,20.71 259.68,18.42 260.29,16.21 260.89,13.99 262.17,12.09 263.45,10.19 265.27,8.79 267.08,7.40 269.25,6.66 271.42,5.91 273.72,5.90 276.01,5.89 278.19,6.62 280.36,7.34 282.19,8.72 284.02,10.10 285.32,11.99 286.61,13.88 287.24,16.09 287.86,18.30 287.75,20.59 287.63,22.88 286.79,25.01 285.95,27.14 284.48,28.90 283.00,30.65 283.00,30.65 283.00,30.65 280.18,32.55 277.37,34.46 272.67,37.06 267.98,39.66 262.84,42.34 257.70,45.02 253.70,46.70 249.71,48.38 245.54,49.26 241.38,50.13 234.73,52.28 228.08,54.43 222.97,55.76 217.86,57.09 213.52,57.86 209.19,58.63 202.88,59.40 196.57,60.16 192.05,60.79 187.54,61.42 181.18,61.46 174.81,61.49 169.66,61.88 164.52,62.27 159.69,62.84 154.86,63.41 149.55,63.09 144.24,62.77 138.64,62.64 133.03,62.50 128.38,62.14 123.72,61.78 117.71,62.08 111.70,62.37 105.10,62.75 98.50,63.14 90.76,62.29 83.03,61.45 77.60,61.47 72.17,61.49 66.19,61.40 60.22,61.32 54.53,61.23 48.84,61.15 44.10,60.99 39.35,60.83 33.52,60.48 27.68,60.13 22.67,59.39 17.65,58.65 12.46,56.36 7.27,54.07 2.62,50.14 -2.02,46.21 -5.34,41.79 -8.67,37.37 -11.26,32.24 -13.86,27.12 -14.15,21.59 -14.44,16.06 -13.36,11.47 -12.28,6.88 -11.11,2.27 -9.93,-2.33 -9.51,-3.49 -9.08,-4.64 -8.40,-5.66 -7.71,-6.68 -6.79,-7.51 -5.88,-8.33 -4.80,-8.92 -3.72,-9.50 -2.52,-9.81 -1.33,-10.12 -0.10,-10.13 1.12,-10.14 2.32,-9.86 3.51,-9.58 4.61,-9.02 5.71,-8.46 6.64,-7.65 7.56,-6.84 8.27,-5.84 8.98,-4.83 9.43,-3.69 9.88,-2.54 10.04,-1.32 10.20,-0.10 10.07,1.11 9.93,2.33 9.93,2.33 L 9.93,2.33 Z"></path></g><g transform="translate(233.57336361414548 36.52563390570617) rotate(0 -51.63030281924745 89.5240859856554)" stroke="none"><path fill="#1e1e1e" d="M 0,9.62 Q 0,9.62 -8.71,9.05 -17.43,8.48 -25.22,8.24 -33.01,7.99 -39.16,7.61 -45.31,7.22 -49.61,9.49 -53.91,11.76 -55.79,15.62 -57.68,19.47 -59.78,23.81 -61.88,28.15 -64.09,32.90 -66.30,37.66 -69.32,41.32 -72.35,44.98 -74.51,48.92 -76.68,52.87 -80.25,57.72 -83.83,62.57 -85.99,67.94 -88.16,73.31 -88.49,77.56 -88.82,81.81 -88.74,86.34 -88.66,90.88 -88.60,95.33 -88.54,99.77 -88.48,104.99 -88.42,110.21 -88.38,115.13 -88.35,120.05 -87.92,124.32 -87.48,128.60 -86.03,132.88 -84.57,137.17 -83.30,141.75 -82.03,146.33 -81.82,151.70 -81.61,157.08 -80.74,162.76 -79.87,168.44 -79.75,174.67 -79.63,180.91 -80.02,183.32 -80.41,185.73 -81.55,187.89 -82.69,190.05 -84.46,191.73 -86.23,193.42 -88.45,194.45 -90.66,195.48 -93.09,195.74 -95.52,196.01 -97.90,195.49 -100.29,194.97 -102.38,193.72 -104.48,192.46 -106.06,190.60 -107.65,188.75 -108.56,186.48 -109.47,184.21 -109.60,181.77 -109.74,179.33 -109.09,176.98 -108.44,174.63 -107.08,172.60 -105.71,170.58 -103.77,169.10 -101.83,167.61 -99.51,166.83 -97.20,166.05 -94.76,166.04 -92.32,166.04 -90.00,166.81 -87.68,167.59 -85.74,169.06 -83.79,170.54 -82.42,172.56 -81.04,174.57 -80.38,176.93 -79.73,179.28 -79.85,181.72 -79.98,184.16 -80.88,186.43 -81.78,188.70 -83.36,190.56 -84.94,192.43 -87.03,193.69 -89.12,194.95 -91.50,195.48 -93.89,196.01 -96.31,195.75 -98.74,195.49 -100.96,194.47 -103.18,193.45 -104.95,191.77 -106.73,190.09 -107.88,187.94 -109.03,185.78 -109.43,183.37 -109.83,180.96 -109.83,180.97 -109.83,180.97 -109.82,178.91 -109.82,176.85 -109.91,172.46 -110.00,168.07 -110.85,163.54 -111.69,159.02 -111.90,154.12 -112.10,149.22 -113.53,144.30 -114.97,139.38 -116.18,134.26 -117.39,129.14 -117.78,124.60 -118.16,120.05 -118.13,115.13 -118.10,110.21 -118.03,104.99 -117.97,99.77 -117.91,95.32 -117.85,90.86 -117.74,86.22 -117.63,81.58 -116.53,76.38 -115.43,71.19 -114.25,65.97 -113.07,60.76 -110.94,56.01 -108.81,51.27 -106.04,46.78 -103.28,42.29 -99.27,37.52 -95.26,32.75 -91.75,28.87 -88.24,25.00 -84.28,20.41 -80.33,15.82 -78.18,11.09 -76.02,6.35 -72.11,1.97 -68.21,-2.41 -63.89,-4.74 -59.57,-7.08 -51.66,-8.24 -43.74,-9.40 -38.37,-8.70 -33.00,-7.99 -25.21,-8.24 -17.43,-8.48 -8.71,-9.05 0,-9.62 1.15,-9.48 2.30,-9.34 3.38,-8.93 4.47,-8.52 5.42,-7.86 6.38,-7.20 7.15,-6.33 7.91,-5.46 8.45,-4.43 8.99,-3.41 9.27,-2.28 9.55,-1.15 9.55,0.00 9.55,1.16 9.27,2.28 8.99,3.41 8.45,4.43 7.91,5.46 7.14,6.33 6.38,7.20 5.42,7.86 4.47,8.52 3.38,8.93 2.30,9.34 1.15,9.48 -0.00,9.62 -0.00,9.62 L 0,9.62 Z"></path></g><g transform="translate(670.299172072181 183.36405758879494) rotate(0 116.52339078961586 -6.157737578172259)" stroke="none"><path fill="#1e1e1e" d="M -9.56,-3.72 Q -9.56,-3.72 -7.68,-8.63 -5.80,-13.54 -4.19,-18.87 -2.58,-24.20 0.91,-29.14 4.41,-34.08 8.20,-37.40 11.99,-40.72 16.16,-43.38 20.32,-46.05 24.67,-50.21 29.02,-54.38 33.31,-57.43 37.60,-60.49 42.75,-62.87 47.89,-65.25 52.12,-66.33 56.35,-67.42 62.76,-67.72 69.18,-68.02 74.47,-68.79 79.77,-69.57 85.19,-70.26 90.62,-70.96 96.82,-71.04 103.03,-71.12 107.40,-71.17 111.77,-71.23 117.28,-71.50 122.79,-71.76 127.19,-71.99 131.59,-72.21 136.32,-72.32 141.05,-72.42 145.53,-72.44 150.00,-72.46 154.55,-72.53 159.10,-72.60 165.71,-72.19 172.33,-71.78 178.86,-69.91 185.38,-68.03 190.93,-63.92 196.49,-59.81 200.96,-56.39 205.44,-52.96 208.90,-50.49 212.37,-48.01 214.68,-44.18 217.00,-40.35 219.85,-36.20 222.70,-32.04 225.19,-28.12 227.67,-24.20 229.85,-19.13 232.03,-14.06 228.97,-17.85 225.91,-21.65 230.59,-16.11 235.28,-10.58 236.97,-5.50 238.66,-0.41 239.74,4.68 240.82,9.78 242.74,15.04 244.67,20.31 245.54,25.07 246.41,29.84 246.50,35.27 246.60,40.70 241.69,35.58 236.79,30.46 239.09,31.45 241.39,32.45 243.25,34.12 245.11,35.79 246.34,37.97 247.56,40.15 248.03,42.61 248.50,45.07 248.16,47.55 247.82,50.02 246.71,52.26 245.59,54.51 243.82,56.27 242.05,58.04 239.81,59.15 237.56,60.26 235.08,60.59 232.60,60.93 230.15,60.45 227.69,59.98 225.51,58.74 223.34,57.51 221.67,55.64 220.00,53.78 219.01,51.48 218.03,49.18 217.83,46.69 217.63,44.19 218.24,41.77 218.84,39.34 220.19,37.23 221.54,35.12 223.50,33.56 225.45,31.99 227.80,31.13 230.15,30.28 232.65,30.21 235.15,30.15 237.54,30.88 239.93,31.62 241.96,33.08 243.99,34.55 245.45,36.58 246.91,38.61 247.64,41.01 248.37,43.40 248.30,45.90 248.23,48.40 247.36,50.75 246.49,53.10 244.92,55.05 243.35,56.99 241.24,58.34 239.13,59.68 236.70,60.28 234.27,60.88 231.78,60.68 229.29,60.47 229.29,60.47 229.29,60.47 223.93,49.79 218.56,39.10 216.68,33.69 214.80,28.27 213.38,24.13 211.96,20.00 211.03,15.36 210.11,10.71 212.43,14.45 214.75,18.19 212.31,13.99 209.87,9.78 208.41,5.44 206.94,1.09 204.28,-4.82 201.61,-10.74 204.77,-6.53 207.92,-2.32 205.60,-6.35 203.28,-10.38 197.88,-16.83 192.47,-23.29 190.15,-27.56 187.84,-31.84 190.87,-28.37 193.89,-24.91 189.47,-28.79 185.04,-32.67 179.90,-36.59 174.76,-40.51 170.62,-41.68 166.48,-42.85 162.11,-42.92 157.74,-42.99 152.82,-43.06 147.89,-43.13 143.16,-43.15 138.43,-43.17 133.93,-43.16 129.43,-43.15 123.75,-42.76 118.07,-42.38 113.64,-42.43 109.21,-42.48 104.10,-42.52 98.99,-42.56 92.59,-42.35 86.19,-42.15 79.64,-41.02 73.09,-39.89 67.04,-39.90 61.00,-39.91 56.60,-38.60 52.19,-37.30 48.10,-35.24 44.00,-33.18 39.66,-30.03 35.32,-26.89 30.84,-23.83 26.36,-20.77 22.14,-19.00 17.93,-17.22 15.68,-11.64 13.43,-6.06 11.50,-1.17 9.56,3.72 8.98,4.81 8.40,5.90 7.57,6.82 6.74,7.74 5.71,8.43 4.69,9.13 3.53,9.56 2.37,9.98 1.14,10.12 -0.08,10.26 -1.31,10.10 -2.54,9.94 -3.69,9.49 -4.84,9.05 -5.86,8.33 -6.87,7.62 -7.68,6.69 -8.49,5.76 -9.06,4.66 -9.63,3.55 -9.91,2.35 -10.20,1.15 -10.19,-0.08 -10.18,-1.32 -9.87,-2.52 -9.56,-3.72 -9.56,-3.72 L -9.56,-3.72 Z"></path></g><g transform="translate(138.83886594596038 224.09985024386276) rotate(0 0.00005000000000165983 0.00005000000000165983)" stroke="none"><path fill="#1e1e1e" d="M 6.28,-6.28 Q 6.28,-6.28 7.11,-5.11 7.95,-3.94 8.37,-2.57 8.80,-1.19 8.76,0.23 8.72,1.67 8.22,3.02 7.73,4.37 6.83,5.49 5.93,6.61 4.72,7.38 3.50,8.15 2.11,8.50 0.72,8.85 -0.71,8.73 -2.14,8.61 -3.46,8.05 -4.78,7.48 -5.85,6.52 -6.92,5.56 -7.63,4.31 -8.33,3.06 -8.60,1.65 -8.87,0.23 -8.68,-1.18 -8.49,-2.60 -7.85,-3.89 -7.21,-5.18 -6.19,-6.19 -5.18,-7.21 -3.89,-7.85 -2.60,-8.49 -1.18,-8.68 0.24,-8.87 1.65,-8.60 3.06,-8.33 4.31,-7.62 5.56,-6.92 6.52,-5.85 7.48,-4.78 8.05,-3.46 8.62,-2.14 8.73,-0.70 8.85,0.72 8.50,2.11 8.15,3.51 7.38,4.72 6.61,5.93 5.49,6.83 4.36,7.73 3.02,8.22 1.67,8.72 0.23,8.76 -1.20,8.80 -2.57,8.37 -3.94,7.95 -5.11,7.11 -6.28,6.27 -6.28,6.28 -6.28,6.28 -6.94,5.43 -7.60,4.59 -8.04,3.61 -8.48,2.64 -8.67,1.58 -8.86,0.53 -8.80,-0.53 -8.73,-1.60 -8.41,-2.62 -8.09,-3.64 -7.54,-4.56 -6.99,-5.47 -6.23,-6.23 -5.47,-6.99 -4.56,-7.54 -3.64,-8.10 -2.62,-8.41 -1.60,-8.73 -0.53,-8.80 0.53,-8.86 1.59,-8.67 2.64,-8.48 3.61,-8.04 4.59,-7.60 5.43,-6.94 6.28,-6.28 6.28,-6.28 L 6.28,-6.28 Z"></path></g><g transform="translate(148.31234751451098 230.7312746211553) rotate(0 0.00005000000000165983 0.00005000000000165983)" stroke="none"><path fill="#1e1e1e" d="M 6.28,-6.28 Q 6.28,-6.28 7.11,-5.11 7.95,-3.94 8.37,-2.57 8.80,-1.19 8.76,0.23 8.72,1.67 8.22,3.02 7.73,4.37 6.83,5.49 5.93,6.61 4.72,7.38 3.50,8.15 2.11,8.50 0.72,8.85 -0.71,8.73 -2.14,8.61 -3.46,8.05 -4.78,7.48 -5.85,6.52 -6.92,5.56 -7.63,4.31 -8.33,3.06 -8.60,1.65 -8.87,0.23 -8.68,-1.18 -8.49,-2.60 -7.85,-3.89 -7.21,-5.18 -6.19,-6.19 -5.18,-7.21 -3.89,-7.85 -2.60,-8.49 -1.18,-8.68 0.24,-8.87 1.65,-8.60 3.06,-8.33 4.31,-7.62 5.56,-6.92 6.52,-5.85 7.48,-4.78 8.05,-3.46 8.62,-2.14 8.73,-0.70 8.85,0.72 8.50,2.11 8.15,3.51 7.38,4.72 6.61,5.93 5.49,6.83 4.36,7.73 3.02,8.22 1.67,8.72 0.23,8.76 -1.20,8.80 -2.57,8.37 -3.94,7.95 -5.11,7.11 -6.28,6.27 -6.28,6.28 -6.28,6.28 -6.94,5.43 -7.60,4.59 -8.04,3.61 -8.48,2.64 -8.67,1.58 -8.86,0.53 -8.80,-0.53 -8.73,-1.60 -8.41,-2.62 -8.09,-3.64 -7.54,-4.56 -6.99,-5.47 -6.23,-6.23 -5.47,-6.99 -4.56,-7.54 -3.64,-8.10 -2.62,-8.41 -1.60,-8.73 -0.53,-8.80 0.53,-8.86 1.59,-8.67 2.64,-8.48 3.61,-8.04 4.59,-7.60 5.43,-6.94 6.28,-6.28 6.28,-6.28 L 6.28,-6.28 Z"></path></g><g transform="translate(141.68092313721843 235.4680154054306) rotate(0 0.00005000000000165983 0.00005000000000165983)" stroke="none"><path fill="#1e1e1e" d="M 6.28,-6.28 Q 6.28,-6.28 7.11,-5.11 7.95,-3.94 8.37,-2.57 8.80,-1.19 8.76,0.23 8.72,1.67 8.22,3.02 7.73,4.37 6.83,5.49 5.93,6.61 4.72,7.38 3.50,8.15 2.11,8.50 0.72,8.85 -0.71,8.73 -2.14,8.61 -3.46,8.05 -4.78,7.48 -5.85,6.52 -6.92,5.56 -7.63,4.31 -8.33,3.06 -8.60,1.65 -8.87,0.23 -8.68,-1.18 -8.49,-2.60 -7.85,-3.89 -7.21,-5.18 -6.19,-6.19 -5.18,-7.21 -3.89,-7.85 -2.60,-8.49 -1.18,-8.68 0.24,-8.87 1.65,-8.60 3.06,-8.33 4.31,-7.62 5.56,-6.92 6.52,-5.85 7.48,-4.78 8.05,-3.46 8.62,-2.14 8.73,-0.70 8.85,0.72 8.50,2.11 8.15,3.51 7.38,4.72 6.61,5.93 5.49,6.83 4.36,7.73 3.02,8.22 1.67,8.72 0.23,8.76 -1.20,8.80 -2.57,8.37 -3.94,7.95 -5.11,7.11 -6.28,6.27 -6.28,6.28 -6.28,6.28 -6.94,5.43 -7.60,4.59 -8.04,3.61 -8.48,2.64 -8.67,1.58 -8.86,0.53 -8.80,-0.53 -8.73,-1.60 -8.41,-2.62 -8.09,-3.64 -7.54,-4.56 -6.99,-5.47 -6.23,-6.23 -5.47,-6.99 -4.56,-7.54 -3.64,-8.10 -2.62,-8.41 -1.60,-8.73 -0.53,-8.80 0.53,-8.86 1.59,-8.67 2.64,-8.48 3.61,-8.04 4.59,-7.60 5.43,-6.94 6.28,-6.28 6.28,-6.28 L 6.28,-6.28 Z"></path></g></svg>