<svg xmlns="http://www.w3.org/2000/svg"  viewBox="0 0 60 60" width="50px" height="50px"><path d="M 26.96875 7.0605469 C 25.68075 7.0495469 24.401484 7.145375 23.146484 7.359375 C 21.209484 7.504375 19.301578 7.9020313 17.517578 8.7070312 C 15.274578 9.7190313 13.324187 11.355656 11.492188 12.972656 C 9.5821875 14.658656 8.0875781 16.594156 7.0175781 18.910156 C 5.9615781 21.199156 5.1334219 23.612125 4.6074219 26.078125 C 3.5704219 30.939125 3.7508437 36.070687 5.7148438 40.679688 C 6.6858438 42.958688 8.1114375 44.956203 9.7734375 46.783203 C 11.411437 48.584203 13.1795 50.351234 15.1875 51.740234 C 19.1515 54.482234 24.218641 54.761562 28.806641 53.726562 C 33.041641 52.771563 37.005094 50.599078 40.121094 47.580078 C 40.261094 47.445078 40.386484 47.297203 40.521484 47.158203 C 40.877484 48.553203 41.475359 49.891641 42.318359 51.056641 C 43.216359 52.296641 44.778641 53.609906 46.431641 53.128906 C 48.292641 52.586906 48.487875 50.446313 48.546875 48.820312 C 48.573875 48.075313 48.533891 47.328937 48.462891 46.585938 C 48.572891 46.653937 48.674109 46.731875 48.787109 46.796875 C 50.027109 47.504875 51.897531 48.592266 53.144531 47.322266 C 54.340531 46.104266 53.344531 44.136266 52.894531 42.822266 C 52.503531 41.682266 52.113656 40.544297 51.722656 39.404297 C 53.574656 39.754297 55.51825 39.054953 56.40625 37.126953 C 57.51925 34.713953 56.638156 32.334266 55.410156 30.197266 L 55.431641 30.191406 C 55.909641 30.056406 56.330906 29.469891 56.128906 28.962891 C 54.829906 25.697891 52.476047 22.963109 49.373047 21.287109 C 49.333047 21.265109 49.291 21.259141 49.25 21.244141 C 49.234 21.121141 49.230891 20.996047 49.212891 20.873047 C 49.035891 19.675047 48.731641 18.506047 48.306641 17.373047 C 48.207641 17.110047 48.025828 16.895578 47.798828 16.767578 C 46.538828 13.786578 44.000781 11.430953 41.050781 10.001953 C 38.903781 8.9609531 36.598719 8.3229062 34.261719 7.8789062 C 31.861719 7.4229062 29.41475 7.0815469 26.96875 7.0605469 z M 20.814453 17.917969 C 21.147453 18.734969 21.677141 19.487562 22.244141 20.226562 C 23.267141 21.559562 24.501312 22.820703 26.195312 23.220703 C 28.965312 23.874703 32.013734 22.647828 34.302734 20.923828 C 35.067734 22.729828 36.601844 24.114297 38.464844 24.904297 C 39.295844 25.256297 40.154391 25.463938 41.025391 25.585938 C 41.372391 25.973938 41.966437 26.110172 42.398438 25.701172 C 44.059438 25.761172 45.747719 25.56475 47.386719 25.34375 C 47.271719 27.35375 46.909672 29.362453 46.388672 31.314453 C 45.226672 35.668453 43.571797 40.140531 40.841797 43.769531 C 38.500797 46.880531 35.208891 49.350344 31.587891 50.777344 C 27.726891 52.298344 23.227562 52.8985 19.226562 51.5625 C 17.116563 50.8575 15.353859 49.486562 13.755859 47.976562 C 12.095859 46.407562 10.456969 44.743609 9.1679688 42.849609 C 6.6059688 39.085609 5.6979687 34.478422 6.0429688 29.982422 C 6.2239688 27.622422 6.762625 25.294687 7.515625 23.054688 C 7.621625 22.739687 7.7414688 22.423422 7.8554688 22.107422 C 8.3744687 22.610422 9.0450938 22.968422 9.7460938 23.107422 C 11.448094 23.446422 13.106094 22.751781 14.621094 22.050781 C 16.881094 21.004781 18.964453 19.587969 20.814453 17.917969 z M 12.902344 19.099609 C 12.902344 19.102609 12.904297 19.106375 12.904297 19.109375 C 12.901297 19.110375 12.898484 19.110328 12.896484 19.111328 C 12.898484 19.106328 12.900344 19.103609 12.902344 19.099609 z M 16.380859 24.810547 C 16.151359 24.807297 15.919578 24.862703 15.705078 24.970703 C 15.413078 25.116703 15.220297 25.370047 15.029297 25.623047 C 14.910297 25.780047 14.804609 25.946953 14.724609 26.126953 C 14.659609 26.272953 14.591922 26.417312 14.544922 26.570312 C 14.492922 26.738312 14.473125 26.913891 14.453125 27.087891 C 14.385125 27.673891 14.621828 28.299078 15.048828 28.705078 C 15.279828 28.927078 15.561094 29.102453 15.871094 29.189453 C 16.171094 29.273453 16.536078 29.280875 16.830078 29.171875 C 16.901078 29.145875 16.961391 29.105313 17.025391 29.070312 C 17.082391 29.048313 17.139359 29.029906 17.193359 29.003906 C 17.649359 28.790906 17.967047 28.369391 18.123047 27.900391 C 18.173047 27.749391 18.187078 27.588641 18.205078 27.431641 C 18.216078 27.336641 18.218937 27.242484 18.210938 27.146484 C 18.187938 26.885484 18.145828 26.631672 18.048828 26.388672 C 17.951828 26.145672 17.846172 25.909406 17.701172 25.691406 C 17.523172 25.424406 17.325875 25.169953 17.046875 25.001953 C 16.838375 24.875953 16.610359 24.813797 16.380859 24.810547 z M 29.447266 25.658203 C 29.313016 25.657203 29.17875 25.671812 29.03125 25.695312 C 28.97525 25.704313 28.920188 25.716328 28.867188 25.736328 C 28.743188 25.783328 28.611 25.83025 28.5 25.90625 C 28.472 25.92525 28.447922 25.952656 28.419922 25.972656 C 28.241922 26.013656 28.067031 26.07975 27.957031 26.21875 C 27.829031 26.37975 27.701188 26.534656 27.617188 26.722656 C 27.530188 26.914656 27.448969 27.105453 27.417969 27.314453 C 27.397969 27.450453 27.371141 27.589516 27.369141 27.728516 C 27.367141 27.875516 27.394969 28.022969 27.417969 28.167969 C 27.448969 28.362969 27.530047 28.556469 27.623047 28.730469 C 27.667047 28.813469 27.728156 28.886938 27.785156 28.960938 C 27.846156 29.039938 27.902563 29.116594 27.976562 29.183594 C 28.114563 29.307594 28.269453 29.430813 28.439453 29.507812 C 28.556453 29.560813 28.676781 29.616344 28.800781 29.652344 C 28.934781 29.690344 29.077844 29.703797 29.214844 29.716797 C 29.268844 29.721797 29.322953 29.72275 29.376953 29.71875 C 29.508953 29.70775 29.650297 29.69425 29.779297 29.65625 C 30.666297 29.39325 31.211094 28.492562 31.246094 27.601562 C 31.248094 27.539562 31.247234 27.478969 31.240234 27.417969 C 31.224234 27.274969 31.210922 27.125328 31.169922 26.986328 C 31.114922 26.800328 31.035922 26.608172 30.919922 26.451172 C 30.756922 26.231172 30.601234 26.066922 30.365234 25.919922 C 30.213234 25.824922 30.038281 25.751938 29.863281 25.710938 C 29.714781 25.676438 29.581516 25.659203 29.447266 25.658203 z M 22.890625 28.847656 C 22.76225 28.862047 22.636187 28.907734 22.523438 28.990234 C 21.724438 29.575234 20.955281 30.200812 20.238281 30.882812 C 19.582281 31.506812 18.794578 32.227969 18.642578 33.167969 C 18.477578 34.175969 18.947344 35.03675 19.777344 35.59375 C 20.516344 36.08875 21.436594 36.233141 22.308594 36.244141 C 23.470594 36.259141 24.629719 36.017297 25.761719 35.779297 C 26.274719 35.671297 26.618984 35.040828 26.458984 34.548828 C 26.283984 34.006828 25.777516 33.735562 25.228516 33.851562 C 24.710516 33.960563 24.192922 34.061437 23.669922 34.148438 C 23.543922 34.166438 23.520609 34.170156 23.599609 34.160156 C 23.524609 34.170156 23.451953 34.1795 23.376953 34.1875 C 23.264953 34.1995 23.152063 34.21075 23.039062 34.21875 C 22.778063 34.23875 22.515906 34.247188 22.253906 34.242188 C 22.141906 34.240187 22.028016 34.236516 21.916016 34.228516 C 21.843016 34.223516 21.770266 34.215984 21.697266 34.208984 C 21.694266 34.207984 21.694406 34.208031 21.691406 34.207031 C 21.506406 34.171031 21.330391 34.118453 21.150391 34.064453 C 21.126391 34.057453 21.129141 34.061594 21.119141 34.058594 C 21.109141 34.052594 21.11375 34.052016 21.09375 34.041016 C 21.01275 33.997016 20.932563 33.94925 20.851562 33.90625 C 20.825563 33.89025 20.801344 33.875422 20.777344 33.857422 C 20.767344 33.847422 20.713828 33.791953 20.673828 33.751953 C 20.656828 33.721953 20.619703 33.669812 20.595703 33.632812 C 20.594703 33.621812 20.596703 33.626328 20.595703 33.611328 C 20.596703 33.584328 20.594703 33.585312 20.595703 33.570312 C 20.608703 33.529313 20.625906 33.478031 20.628906 33.457031 C 20.674906 33.366031 20.727203 33.278359 20.783203 33.193359 C 20.803203 33.163359 20.804594 33.157438 20.808594 33.148438 C 20.816594 33.141438 20.826422 33.133562 20.857422 33.101562 C 21.018422 32.932563 21.175797 32.761656 21.341797 32.597656 C 21.701797 32.241656 22.072031 31.897359 22.457031 31.568359 C 22.855031 31.228359 23.170203 30.981797 23.533203 30.716797 C 23.954203 30.408797 24.205578 29.835609 23.892578 29.349609 C 23.690828 29.036859 23.27575 28.804484 22.890625 28.847656 z M 37.673828 32.123047 C 37.173828 32.122172 36.686937 32.442891 36.710938 33.087891 C 36.860937 37.121891 34.685391 41.065031 31.275391 43.207031 C 27.852391 45.357031 23.542875 45.261453 20.046875 43.314453 C 18.100875 42.230453 16.512328 40.643109 15.486328 38.662109 C 14.894328 37.518109 13.168766 38.529875 13.759766 39.671875 C 15.887766 43.784875 20.257031 46.437203 24.832031 46.783203 C 29.584031 47.143203 34.034031 44.608203 36.582031 40.658203 C 38.025031 38.422203 38.809938 35.752891 38.710938 33.087891 C 38.686937 32.446391 38.173828 32.123922 37.673828 32.123047 z M 54.478516 32.716797 C 54.879516 33.680797 55.070016 34.694469 54.791016 35.730469 C 54.778016 35.716469 54.762047 35.705406 54.748047 35.691406 C 54.846047 35.342406 54.888328 34.970656 54.861328 34.597656 C 54.819328 34.020656 54.683281 33.443859 54.488281 32.880859 C 54.486281 32.825859 54.480516 32.771797 54.478516 32.716797 z"/></svg>