<?xml version="1.0" standalone="no"?>
<!DOCTYPE svg PUBLIC "-//W3C//DTD SVG 1.1//EN" "http://www.w3.org/Graphics/SVG/1.1/DTD/svg11.dtd">
<svg version="1.1" xmlns="http://www.w3.org/2000/svg" viewBox="0 0 1184.9999694824219 658.181755065918" width="1184.9999694824219" height="658.181755065918"><!-- svg-source:excalidraw --><metadata></metadata><defs><style class="style-fonts">
      </style></defs><g stroke-linecap="round" transform="translate(10 10) rotate(0 582.4999847412109 319.090877532959)"><path d="M32 0 C299.89 -3.48, 571.02 -2.77, 1133 0 M32 0 C384.44 7.5, 735.93 7.27, 1133 0 M1133 0 C1157.37 1.06, 1163.39 6.76, 1165 32 M1133 0 C1157.5 2.21, 1167.12 6.98, 1165 32 M1165 32 C1164.32 184.48, 1161.83 336.71, 1165 606.18 M1165 32 C1167.99 190.17, 1168.02 350, 1165 606.18 M1165 606.18 C1168.62 626.52, 1157.28 640.16, 1133 638.18 M1165 606.18 C1162.12 627.16, 1158.62 636.5, 1133 638.18 M1133 638.18 C812.39 633.72, 493.42 631.51, 32 638.18 M1133 638.18 C819.33 646.86, 505.32 645.97, 32 638.18 M32 638.18 C7.15 639.05, -3.83 628.78, 0 606.18 M32 638.18 C12.06 638.26, -2.82 628.72, 0 606.18 M0 606.18 C0.64 478.82, 1.98 352.48, 0 32 M0 606.18 C-0.63 379.3, -1.04 152.49, 0 32 M0 32 C-1.04 8.08, 12.38 -1.69, 32 0 M0 32 C2.42 13.8, 8.75 -3.37, 32 0" stroke="#1e1e1e" stroke-width="4" fill="none"></path></g></svg>