<?xml version="1.0" standalone="no"?>
<!DOCTYPE svg PUBLIC "-//W3C//DTD SVG 1.1//EN" "http://www.w3.org/Graphics/SVG/1.1/DTD/svg11.dtd">
<svg version="1.1" xmlns="http://www.w3.org/2000/svg" viewBox="0 0 1912.7945701325784 994.8176979702089" width="3825.589140265157" height="1989.6353959404178"><!-- svg-source:excalidraw --><metadata></metadata><defs><style class="style-fonts">
      </style></defs><g transform="translate(416.4108709697588 315.04498072601325) rotate(0 539.9864140965304 182.3638682590912)" stroke="none"><path fill="#1e1e1e" d="M -6.23,0.36 Q -6.23,0.36 -6.64,-8.90 -7.05,-18.16 -7.19,-36.40 -7.33,-54.64 -7.35,-74.07 -7.38,-93.50 -4.61,-114.66 -1.85,-135.83 7.69,-158.44 17.23,-181.04 35.44,-205.08 53.65,-229.11 75.85,-247.68 98.04,-266.26 126.19,-278.44 154.33,-290.61 186.23,-296.33 218.13,-302.05 256.16,-297.61 294.20,-293.18 328.66,-279.67 363.12,-266.17 393.77,-245.81 424.43,-225.45 446.94,-202.65 469.44,-179.86 481.97,-157.49 494.50,-135.12 498.81,-115.52 503.13,-95.92 499.89,-81.35 496.66,-66.78 488.82,-56.30 480.99,-45.81 473.90,-41.35 466.82,-36.89 460.40,-38.59 453.99,-40.29 451.86,-50.85 449.74,-61.42 449.22,-77.91 448.69,-94.41 452.95,-114.50 457.21,-134.60 467.72,-155.49 478.23,-176.39 497.24,-196.77 516.24,-217.15 545.78,-233.66 575.31,-250.16 623.21,-259.40 671.11,-268.65 718.96,-272.21 766.81,-275.78 809.34,-270.17 851.88,-264.57 883.56,-254.17 915.24,-243.78 944.84,-225.80 974.44,-207.83 995.43,-187.12 1016.42,-166.42 1027.35,-150.86 1038.29,-135.30 1043.67,-120.33 1049.04,-105.35 1050.77,-91.89 1052.50,-78.42 1051.27,-67.40 1050.04,-56.37 1047.43,-49.00 1044.82,-41.63 1043.55,-38.66 1042.28,-35.69 1041.89,-34.98 1041.49,-34.27 1040.94,-33.68 1040.38,-33.09 1039.70,-32.64 1039.02,-32.20 1038.26,-31.93 1037.49,-31.66 1036.68,-31.59 1035.87,-31.51 1035.07,-31.63 1034.27,-31.75 1033.52,-32.05 1032.76,-32.36 1032.11,-32.84 1031.45,-33.32 1030.93,-33.94 1030.41,-34.56 1030.05,-35.29 1029.69,-36.02 1029.52,-36.81 1029.34,-37.61 1029.37,-38.42 1029.39,-39.23 1029.60,-40.01 1029.82,-40.79 1029.06,-49.03 1028.31,-57.26 1039.30,-72.15 1050.30,-87.04 1066.55,-99.32 1082.81,-111.60 1111.57,-121.03 1140.34,-130.46 1188.96,-131.11 1237.58,-131.76 1269.40,-128.39 1301.23,-125.02 1335.22,-111.40 1369.20,-97.79 1394.57,-78.64 1419.94,-59.48 1437.77,-35.72 1455.61,-11.95 1465.41,8.46 1475.21,28.88 1480.01,55.75 1484.82,82.61 1483.26,110.95 1481.70,139.29 1475.80,169.42 1469.89,199.55 1458.82,227.91 1447.75,256.27 1429.74,282.82 1411.73,309.38 1381.89,333.51 1352.06,357.65 1324.71,372.05 1297.36,386.44 1261.77,392.96 1226.19,399.48 1197.79,398.91 1169.39,398.35 1155.70,396.99 1142.01,395.63 1135.27,395.01 1128.54,394.39 1123.98,391.11 1119.42,387.83 1117.47,380.38 1115.53,372.92 1118.15,364.37 1120.77,355.82 1129.51,347.66 1138.26,339.50 1151.17,335.24 1164.07,330.99 1175.23,330.54 1186.39,330.09 1197.22,335.49 1208.05,340.88 1216.89,350.50 1225.74,360.11 1231.27,373.45 1236.80,386.79 1239.62,403.92 1242.44,421.06 1238.08,444.79 1233.73,468.53 1220.37,492.40 1207.02,516.27 1177.42,539.60 1147.81,562.92 1111.33,580.43 1074.84,597.95 1031.16,612.20 987.48,626.45 939.76,633.64 892.04,640.83 845.84,643.86 799.65,646.89 757.48,644.91 715.31,642.92 681.44,637.69 647.57,632.45 625.13,626.65 602.70,620.84 592.64,617.13 582.58,613.42 577.51,604.28 572.44,595.14 570.18,590.84 567.92,586.55 567.39,583.60 566.87,580.66 566.68,579.79 566.50,578.91 566.52,578.02 566.55,577.13 566.79,576.27 567.03,575.41 567.47,574.63 567.91,573.85 568.52,573.20 569.14,572.55 569.89,572.07 570.64,571.58 571.48,571.29 572.33,571.00 573.22,570.92 574.11,570.84 574.99,570.98 575.87,571.11 576.70,571.45 577.52,571.79 578.24,572.32 578.96,572.85 579.53,573.54 580.10,574.23 580.49,575.03 580.88,575.83 581.71,581.32 582.53,586.81 573.55,602.24 564.57,617.67 547.42,629.13 530.27,640.60 498.31,649.99 466.35,659.37 417.17,664.05 367.98,668.74 317.80,667.12 267.62,665.49 211.35,652.99 155.09,640.49 125.42,630.75 95.75,621.02 78.74,612.08 61.73,603.14 51.65,594.05 41.57,584.97 33.14,566.59 24.71,548.22 19.97,535.99 15.23,523.76 12.28,504.68 9.33,485.61 11.46,471.41 13.60,457.21 22.55,444.53 31.49,431.85 39.09,425.35 46.69,418.86 52.64,415.53 58.59,412.20 64.05,411.26 69.51,410.32 75.21,412.33 80.90,414.35 84.46,418.81 88.03,423.27 88.70,430.41 89.38,437.55 81.92,445.20 74.46,452.84 56.73,456.22 38.99,459.60 5.45,456.78 -28.08,453.96 -58.17,447.14 -88.26,440.31 -115.24,429.05 -142.22,417.78 -159.94,405.66 -177.67,393.54 -190.63,382.60 -203.60,371.65 -216.83,357.86 -230.07,344.07 -246.70,321.68 -263.34,299.29 -275.54,281.35 -287.75,263.41 -298.18,245.29 -308.61,227.18 -313.66,216.33 -318.70,205.48 -320.44,196.39 -322.18,187.30 -319.47,177.68 -316.76,168.07 -308.69,157.16 -300.63,146.25 -288.67,137.34 -276.72,128.44 -264.90,122.72 -253.08,117.00 -241.16,114.22 -229.24,111.43 -222.99,109.91 -216.74,108.39 -209.60,108.32 -202.46,108.25 -203.40,108.33 -204.34,108.41 -203.39,108.57 -202.45,108.73 -201.57,109.11 -200.69,109.49 -199.92,110.07 -199.16,110.65 -198.56,111.39 -197.96,112.14 -197.55,113.00 -197.14,113.87 -196.96,114.81 -196.77,115.75 -196.81,116.71 -196.85,117.67 -197.12,118.59 -197.40,119.50 -197.88,120.33 -198.36,121.16 -199.03,121.85 -199.70,122.53 -200.51,123.04 -201.32,123.55 -202.23,123.85 -203.14,124.15 -204.10,124.22 -205.05,124.30 -210.20,126.75 -215.34,129.20 -231.27,131.04 -247.20,132.88 -269.16,131.01 -291.12,129.14 -314.87,122.73 -338.62,116.33 -357.19,106.85 -375.77,97.37 -385.50,90.33 -395.24,83.29 -400.22,73.46 -405.21,63.63 -406.92,49.40 -408.63,35.17 -403.11,18.33 -397.60,1.50 -382.08,-18.19 -366.56,-37.89 -345.34,-55.84 -324.11,-73.79 -300.05,-86.47 -275.98,-99.16 -239.97,-106.83 -203.96,-114.50 -181.96,-117.68 -159.96,-120.87 -138.32,-120.87 -116.68,-120.88 -97.79,-118.66 -78.90,-116.45 -61.74,-110.49 -44.58,-104.53 -32.27,-98.08 -19.96,-91.63 -10.45,-84.66 -0.95,-77.69 5.93,-71.05 12.82,-64.40 18.33,-57.31 23.84,-50.22 27.84,-45.30 31.84,-40.37 35.42,-34.18 39.01,-28.00 41.61,-22.91 44.20,-17.83 45.87,-13.84 47.54,-9.84 48.94,-4.35 50.34,1.13 50.68,7.88 51.03,14.63 48.63,19.87 46.23,25.11 41.91,27.43 37.60,29.74 32.56,31.85 27.53,33.96 21.53,33.53 15.54,33.11 10.25,27.83 4.96,22.56 3.30,18.42 1.65,14.28 0.76,9.92 -0.13,5.57 4.24,7.92 8.62,10.28 4.70,11.44 0.77,12.60 -1.25,12.39 -3.28,12.19 -5.14,11.34 -7.00,10.50 -8.50,9.11 -9.99,7.71 -10.96,5.92 -11.93,4.12 -12.28,2.10 -12.62,0.09 -12.31,-1.92 -11.99,-3.94 -11.05,-5.75 -10.11,-7.56 -8.63,-8.98 -7.16,-10.39 -5.31,-11.27 -3.46,-12.14 -1.43,-12.37 0.59,-12.61 2.58,-12.19 4.58,-11.76 6.34,-10.72 8.10,-9.68 9.43,-8.13 10.77,-6.59 11.54,-4.69 12.31,-2.80 12.43,-0.76 12.56,1.27 12.03,3.24 11.50,5.21 10.36,6.91 9.23,8.61 7.61,9.86 5.99,11.11 4.06,11.78 2.13,12.44 0.09,12.46 -1.95,12.47 -3.89,11.83 -5.83,11.20 -7.46,9.97 -9.10,8.75 -10.26,7.06 -11.42,5.38 -11.98,3.42 -12.54,1.45 -12.44,-0.58 -12.35,-2.62 -11.61,-4.52 -10.86,-6.43 -9.55,-7.99 -8.24,-9.56 -6.50,-10.63 -4.75,-11.69 -2.76,-12.15 -0.77,-12.60 -0.77,-12.60 -0.77,-12.60 6.08,-12.11 12.94,-11.61 17.14,-9.30 21.35,-7.00 23.30,-2.05 25.25,2.89 23.54,7.40 21.83,11.90 26.48,12.40 31.13,12.91 31.76,6.63 32.40,0.35 31.63,-5.85 30.87,-12.06 29.14,-16.96 27.41,-21.85 24.67,-27.60 21.93,-33.36 18.73,-38.58 15.53,-43.80 10.51,-50.33 5.49,-56.86 -0.85,-63.05 -7.20,-69.23 -16.04,-75.78 -24.87,-82.33 -36.48,-88.46 -48.09,-94.60 -64.14,-100.30 -80.19,-106.00 -98.44,-108.16 -116.70,-110.32 -137.58,-110.36 -158.46,-110.40 -180.12,-107.26 -201.78,-104.13 -236.46,-96.92 -271.14,-89.71 -294.21,-77.65 -317.27,-65.59 -337.73,-48.38 -358.18,-31.16 -372.81,-12.99 -387.44,5.18 -392.61,19.78 -397.78,34.38 -396.45,46.69 -395.11,59.01 -391.65,66.79 -388.18,74.56 -379.32,80.75 -370.45,86.94 -352.95,95.77 -335.45,104.60 -312.77,110.50 -290.09,116.41 -269.45,117.88 -248.82,119.36 -235.01,117.52 -221.20,115.68 -212.77,112.04 -204.34,108.41 -203.39,108.57 -202.45,108.73 -201.57,109.11 -200.69,109.49 -199.92,110.07 -199.16,110.65 -198.56,111.39 -197.96,112.14 -197.55,113.00 -197.14,113.87 -196.96,114.81 -196.77,115.75 -196.81,116.71 -196.85,117.67 -197.12,118.58 -197.40,119.50 -197.88,120.33 -198.36,121.16 -199.03,121.85 -199.70,122.53 -200.51,123.04 -201.32,123.55 -202.23,123.85 -203.14,124.15 -204.10,124.22 -205.05,124.30 -209.83,122.31 -214.61,120.33 -220.76,121.02 -226.90,121.71 -237.73,124.12 -248.57,126.53 -259.53,131.75 -270.49,136.97 -281.38,144.85 -292.27,152.72 -299.49,162.06 -306.71,171.40 -309.22,178.66 -311.73,185.93 -310.36,193.49 -308.99,201.05 -304.14,211.43 -299.30,221.81 -289.05,239.55 -278.79,257.30 -266.67,275.02 -254.54,292.75 -238.29,314.55 -222.04,336.35 -209.16,349.64 -196.28,362.93 -183.68,373.40 -171.08,383.86 -154.30,395.21 -137.52,406.57 -111.50,417.20 -85.48,427.84 -56.23,434.11 -26.99,440.37 4.74,442.71 36.47,445.05 50.57,442.62 64.66,440.19 68.81,433.73 72.96,427.28 68.22,425.32 63.47,423.36 58.44,425.16 53.41,426.97 46.69,432.55 39.97,438.13 31.91,448.74 23.84,459.35 21.83,471.76 19.82,484.16 22.50,502.06 25.18,519.95 29.83,531.89 34.49,543.84 41.76,560.56 49.03,577.28 57.95,585.41 66.87,593.54 83.04,602.03 99.20,610.52 128.37,620.01 157.53,629.50 212.77,641.74 268.01,653.97 317.43,655.42 366.84,656.88 414.86,652.15 462.87,647.42 493.00,638.49 523.13,629.56 537.99,619.73 552.86,609.90 559.86,595.28 566.87,580.66 566.68,579.79 566.50,578.91 566.52,578.02 566.55,577.13 566.79,576.27 567.03,575.41 567.47,574.63 567.91,573.85 568.52,573.20 569.14,572.55 569.89,572.07 570.64,571.58 571.48,571.29 572.33,571.00 573.21,570.92 574.10,570.84 574.99,570.98 575.87,571.11 576.70,571.45 577.52,571.79 578.24,572.32 578.96,572.85 579.53,573.54 580.10,574.23 580.49,575.03 580.88,575.83 580.24,578.88 579.60,581.92 580.75,586.22 581.89,590.52 584.83,597.78 587.77,605.03 596.56,607.84 605.35,610.65 627.27,616.35 649.18,622.04 682.50,627.22 715.81,632.39 757.39,634.37 798.97,636.36 844.72,633.36 890.47,630.37 937.34,623.36 984.22,616.36 1027.24,602.35 1070.26,588.34 1105.77,571.40 1141.28,554.46 1169.57,532.60 1197.85,510.74 1210.49,488.54 1223.12,466.34 1227.36,444.47 1231.59,422.61 1229.01,406.77 1226.42,390.94 1221.79,379.27 1217.15,367.60 1209.77,359.39 1202.39,351.18 1194.26,346.66 1186.14,342.15 1177.04,342.73 1167.95,343.31 1157.56,346.62 1147.17,349.92 1140.84,355.70 1134.51,361.48 1132.41,366.49 1130.32,371.51 1130.87,377.26 1131.43,383.02 1137.24,384.09 1143.06,385.17 1156.34,386.50 1169.62,387.83 1196.99,388.47 1224.37,389.12 1258.49,383.10 1292.61,377.07 1319.05,363.25 1345.49,349.42 1374.30,326.38 1403.10,303.35 1420.53,277.86 1437.95,252.37 1448.74,224.92 1459.53,197.48 1465.32,168.08 1471.12,138.67 1472.73,111.53 1474.34,84.39 1469.94,58.89 1465.54,33.39 1456.25,13.92 1446.97,-5.55 1430.14,-28.23 1413.31,-50.92 1389.16,-69.29 1365.02,-87.65 1332.49,-100.80 1299.95,-113.95 1268.83,-117.15 1237.71,-120.36 1190.77,-119.82 1143.82,-119.27 1116.91,-110.52 1090.00,-101.77 1075.24,-90.50 1060.47,-79.23 1051.02,-66.90 1041.57,-54.57 1040.04,-49.48 1038.51,-44.39 1040.40,-40.04 1042.28,-35.69 1041.89,-34.98 1041.49,-34.27 1040.94,-33.68 1040.38,-33.09 1039.70,-32.64 1039.02,-32.20 1038.26,-31.93 1037.49,-31.66 1036.68,-31.59 1035.87,-31.51 1035.07,-31.63 1034.27,-31.75 1033.52,-32.05 1032.77,-32.36 1032.11,-32.84 1031.45,-33.32 1030.93,-33.94 1030.41,-34.56 1030.05,-35.29 1029.69,-36.02 1029.52,-36.81 1029.34,-37.60 1029.37,-38.42 1029.39,-39.23 1029.60,-40.01 1029.82,-40.79 1031.93,-43.43 1034.05,-46.06 1036.83,-51.88 1039.62,-57.70 1040.84,-67.45 1042.05,-77.20 1040.57,-89.55 1039.09,-101.90 1034.34,-115.62 1029.60,-129.34 1019.28,-144.14 1008.96,-158.93 988.92,-178.88 968.87,-198.83 940.36,-216.27 911.86,-233.71 881.15,-243.85 850.44,-254.00 809.00,-259.54 767.56,-265.08 720.34,-261.55 673.13,-258.02 626.79,-249.28 580.46,-240.54 552.34,-225.00 524.21,-209.46 506.24,-190.32 488.27,-171.19 478.41,-151.64 468.56,-132.10 464.64,-113.45 460.73,-94.79 461.48,-79.06 462.22,-63.33 462.41,-55.34 462.60,-47.34 467.75,-49.89 472.90,-52.44 479.75,-61.00 486.60,-69.56 489.72,-81.86 492.84,-94.15 489.05,-112.14 485.25,-130.13 473.56,-151.34 461.87,-172.55 440.21,-194.62 418.55,-216.70 388.87,-236.53 359.20,-256.37 326.03,-269.53 292.86,-282.68 256.35,-287.14 219.85,-291.59 189.16,-286.20 158.47,-280.80 131.64,-269.38 104.80,-257.96 83.50,-240.24 62.20,-222.53 44.72,-199.62 27.23,-176.71 18.15,-155.51 9.08,-134.31 6.48,-113.92 3.88,-93.54 4.05,-74.16 4.22,-54.79 4.55,-36.83 4.87,-18.87 5.55,-9.61 6.23,-0.36 6.19,0.38 6.14,1.13 5.91,1.85 5.69,2.57 5.30,3.21 4.91,3.86 4.37,4.39 3.84,4.92 3.20,5.31 2.55,5.70 1.83,5.92 1.11,6.14 0.36,6.19 -0.38,6.23 -1.12,6.09 -1.86,5.96 -2.55,5.65 -3.24,5.34 -3.83,4.87 -4.42,4.41 -4.88,3.81 -5.35,3.22 -5.66,2.53 -5.96,1.84 -6.10,1.10 -6.23,0.36 -6.23,0.36 L -6.23,0.36 Z"></path></g></svg>