<?xml version="1.0" standalone="no"?>
<!DOCTYPE svg PUBLIC "-//W3C//DTD SVG 1.1//EN" "http://www.w3.org/Graphics/SVG/1.1/DTD/svg11.dtd">
<svg version="1.1" xmlns="http://www.w3.org/2000/svg" viewBox="0 0 934.0908203125 546.3636322021484" width="1868.181640625" height="1092.7272644042969"><!-- svg-source:excalidraw --><metadata></metadata><defs><style class="style-fonts">
      </style></defs><g transform="translate(60.909088134765625 57.27272033691406) rotate(0 -9.090911865234375 222.0454559326172)" stroke="none"><path fill="#1e1e1e" d="M 4.15,2.43 Q 4.15,2.43 1.68,6.08 -0.78,9.72 -3.56,13.32 -6.34,16.91 -7.79,19.42 -9.24,21.94 -9.82,24.76 -10.40,27.59 -10.36,30.06 -10.32,32.54 -10.23,36.71 -10.14,40.88 -9.31,45.17 -8.48,49.46 -7.13,53.69 -5.77,57.91 -5.10,60.04 -4.44,62.18 -3.65,64.71 -2.85,67.25 -2.12,70.19 -1.38,73.13 -0.50,76.62 0.37,80.12 0.91,84.06 1.44,88.01 1.75,91.01 2.05,94.02 2.20,96.91 2.35,99.80 2.45,102.35 2.56,104.89 2.05,107.92 1.54,110.96 0.58,113.46 -0.37,115.96 -1.21,118.01 -2.06,120.05 -3.17,122.11 -4.28,124.17 -5.40,125.99 -6.52,127.81 -7.65,130.06 -8.77,132.32 -8.62,134.85 -8.46,137.39 -8.41,140.29 -8.36,143.19 -7.47,145.96 -6.58,148.72 -4.52,151.89 -2.46,155.06 -0.88,157.56 0.69,160.06 2.29,162.51 3.89,164.95 5.49,167.34 7.08,169.72 8.78,172.39 10.49,175.05 11.56,177.61 12.64,180.16 13.14,182.38 13.64,184.59 13.95,188.78 14.26,192.97 13.49,196.44 12.72,199.91 10.19,204.09 7.67,208.26 5.24,211.76 2.81,215.26 0.06,218.55 -2.69,221.84 -5.12,224.75 -7.56,227.67 -9.07,229.94 -10.58,232.20 -11.76,235.12 -12.94,238.04 -12.95,241.18 -12.97,244.33 -12.45,247.87 -11.93,251.40 -11.39,254.53 -10.84,257.66 -9.57,261.36 -8.30,265.07 -7.46,267.92 -6.63,270.76 -5.62,273.44 -4.61,276.13 -3.45,280.12 -2.28,284.11 -1.07,287.89 0.12,291.66 1.37,295.37 2.62,299.08 3.62,303.34 4.62,307.60 5.73,311.95 6.84,316.29 7.33,320.75 7.82,325.21 8.20,328.38 8.58,331.54 8.56,334.66 8.54,337.77 8.00,340.99 7.47,344.21 5.92,347.72 4.36,351.23 1.36,355.45 -1.62,359.66 -4.50,363.33 -7.37,367.00 -10.37,370.41 -13.36,373.83 -15.37,376.58 -17.39,379.34 -18.96,381.56 -20.54,383.78 -21.37,385.84 -22.21,387.90 -22.05,390.07 -21.89,392.23 -20.67,396.53 -19.44,400.84 -18.16,404.33 -16.88,407.83 -15.60,411.15 -14.31,414.47 -13.00,417.33 -11.68,420.20 -10.51,422.61 -9.33,425.02 -8.62,427.17 -7.91,429.32 -7.01,432.84 -6.11,436.35 -5.34,439.57 -4.57,442.79 -4.51,443.69 -4.44,444.59 -4.67,445.47 -4.90,446.34 -5.39,447.09 -5.88,447.85 -6.59,448.41 -7.30,448.96 -8.15,449.27 -9.00,449.57 -9.90,449.59 -10.80,449.60 -11.66,449.33 -12.52,449.05 -13.25,448.52 -13.98,447.99 -14.49,447.25 -15.01,446.51 -15.27,445.65 -15.53,444.78 -15.49,443.88 -15.46,442.98 -15.14,442.14 -14.82,441.29 -14.25,440.60 -13.68,439.90 -12.91,439.42 -12.15,438.94 -11.27,438.73 -10.39,438.53 -9.49,438.61 -8.60,438.69 -7.77,439.05 -6.95,439.42 -6.28,440.03 -5.62,440.64 -5.18,441.43 -4.74,442.22 -4.58,443.10 -4.42,443.99 -4.55,444.88 -4.68,445.78 -5.09,446.58 -5.50,447.38 -6.14,448.01 -6.79,448.65 -7.60,449.04 -8.41,449.43 -9.31,449.54 -10.20,449.66 -11.09,449.48 -11.97,449.30 -12.75,448.85 -13.53,448.40 -14.13,447.72 -14.72,447.04 -15.07,446.21 -15.42,445.38 -15.42,445.38 -15.42,445.38 -15.75,443.69 -16.09,441.99 -16.24,438.76 -16.39,435.52 -16.96,432.10 -17.53,428.69 -18.54,426.24 -19.56,423.79 -20.94,420.75 -22.32,417.72 -23.68,414.53 -25.04,411.33 -26.90,407.51 -28.77,403.68 -29.84,400.33 -30.91,396.97 -31.21,394.41 -31.51,391.86 -30.85,388.24 -30.19,384.62 -28.23,381.88 -26.28,379.14 -24.48,377.19 -22.68,375.25 -20.44,372.51 -18.20,369.76 -15.49,366.39 -12.77,363.01 -10.22,359.32 -7.66,355.63 -5.26,351.74 -2.87,347.86 -1.56,345.22 -0.26,342.59 0.38,339.96 1.03,337.33 1.34,334.69 1.65,332.04 1.57,329.03 1.50,326.02 0.92,322.09 0.35,318.16 -1.04,313.84 -2.43,309.53 -3.64,305.70 -4.85,301.87 -6.34,298.24 -7.83,294.61 -9.39,290.94 -10.94,287.28 -12.57,283.61 -14.20,279.95 -15.48,276.91 -16.75,273.86 -17.59,271.23 -18.44,268.60 -19.20,266.26 -19.96,263.92 -20.45,261.79 -20.94,259.66 -21.61,256.68 -22.27,253.69 -22.67,248.76 -23.07,243.83 -22.86,241.43 -22.65,239.04 -21.24,235.01 -19.84,230.99 -18.54,229.19 -17.24,227.38 -15.44,225.07 -13.64,222.76 -11.35,219.83 -9.06,216.89 -6.86,213.79 -4.66,210.69 -2.81,207.16 -0.95,203.63 0.45,200.48 1.86,197.34 2.35,195.26 2.84,193.18 2.76,189.86 2.69,186.54 2.15,183.77 1.62,180.99 -0.16,178.53 -1.95,176.07 -3.64,173.76 -5.34,171.46 -7.17,169.03 -9.01,166.59 -10.60,164.38 -12.20,162.16 -14.05,159.72 -15.89,157.28 -17.03,155.13 -18.17,152.99 -18.99,150.66 -19.81,148.32 -20.22,144.19 -20.63,140.06 -20.48,136.92 -20.34,133.78 -19.59,130.31 -18.85,126.84 -17.27,124.32 -15.69,121.80 -13.68,118.80 -11.66,115.80 -10.72,113.81 -9.78,111.83 -8.51,108.43 -7.24,105.02 -7.23,102.60 -7.21,100.17 -7.28,97.52 -7.35,94.86 -7.55,92.20 -7.75,89.54 -8.42,86.29 -9.08,83.05 -10.40,79.47 -11.72,75.89 -12.47,73.24 -13.22,70.60 -14.09,68.00 -14.96,65.40 -16.04,61.06 -17.12,56.73 -17.98,54.37 -18.83,52.01 -19.53,49.09 -20.23,46.17 -20.47,43.49 -20.71,40.82 -20.64,38.61 -20.58,36.39 -20.26,32.20 -19.95,28.00 -18.98,24.88 -18.02,21.77 -17.03,19.76 -16.04,17.75 -14.31,15.13 -12.58,12.52 -10.34,8.97 -8.10,5.43 -6.12,1.49 -4.15,-2.43 -3.80,-2.89 -3.45,-3.35 -2.99,-3.72 -2.54,-4.08 -2.02,-4.33 -1.49,-4.57 -0.92,-4.68 -0.35,-4.80 0.22,-4.77 0.80,-4.74 1.36,-4.58 1.91,-4.41 2.41,-4.12 2.91,-3.83 3.33,-3.42 3.75,-3.02 4.05,-2.52 4.36,-2.03 4.54,-1.48 4.72,-0.93 4.76,-0.35 4.80,0.22 4.71,0.79 4.61,1.37 4.38,1.90 4.15,2.43 4.15,2.43 L 4.15,2.43 Z"></path></g><g transform="translate(60.45452880859375 55.45454406738281) rotate(0 395 194.77271270751953)" stroke="none"><path fill="#1e1e1e" d="M -4.15,-3.17 Q -4.15,-3.17 -2.43,-5.38 -0.72,-7.59 1.16,-10.31 3.05,-13.03 4.34,-15.02 5.62,-17.01 6.61,-19.21 7.60,-21.42 7.82,-24.12 8.03,-26.81 7.99,-29.14 7.95,-31.46 6.41,-33.66 4.88,-35.87 2.55,-36.60 0.23,-37.33 -2.55,-37.91 -5.33,-38.49 -8.32,-38.55 -11.31,-38.60 -14.25,-37.06 -17.19,-35.52 -19.98,-33.83 -22.77,-32.14 -24.74,-30.63 -26.71,-29.13 -28.43,-27.69 -30.16,-26.25 -31.05,-23.87 -31.94,-21.50 -32.55,-19.26 -33.16,-17.01 -33.29,-14.77 -33.42,-12.54 -33.26,-9.95 -33.10,-7.35 -31.65,-4.97 -30.20,-2.58 -27.72,0.07 -25.24,2.73 -22.03,4.69 -18.83,6.66 -16.33,7.35 -13.84,8.05 -11.19,8.66 -8.55,9.27 -5.12,9.41 -1.69,9.56 1.00,9.69 3.71,9.83 6.04,9.89 8.37,9.96 12.26,9.98 16.15,10.00 19.64,9.61 23.13,9.22 27.09,8.23 31.04,7.24 33.98,6.56 36.92,5.88 39.99,5.17 43.05,4.45 46.31,3.79 49.56,3.13 52.46,2.47 55.36,1.82 59.28,1.50 63.20,1.18 66.71,1.06 70.23,0.95 73.96,0.99 77.69,1.03 80.83,1.00 83.98,0.96 87.70,1.30 91.43,1.63 94.58,2.25 97.73,2.88 100.32,3.86 102.90,4.83 105.58,7.00 108.26,9.18 111.45,11.55 114.64,13.92 116.84,15.49 119.04,17.05 121.53,18.61 124.02,20.16 126.91,21.28 129.79,22.41 133.61,23.50 137.43,24.58 142.81,25.13 148.19,25.68 153.67,25.99 159.16,26.30 164.81,26.22 170.46,26.14 176.27,25.37 182.09,24.60 187.86,23.65 193.63,22.69 198.49,21.54 203.36,20.38 207.84,19.37 212.32,18.36 216.10,17.25 219.88,16.13 224.48,15.15 229.09,14.18 233.36,13.26 237.63,12.34 241.98,11.55 246.33,10.77 251.38,10.17 256.43,9.57 261.77,9.32 267.11,9.06 271.99,8.96 276.87,8.86 281.50,9.08 286.14,9.30 291.30,9.93 296.46,10.55 300.98,11.63 305.50,12.70 309.09,13.42 312.67,14.13 315.26,14.69 317.84,15.25 320.23,15.77 322.62,16.30 324.97,17.01 327.31,17.72 330.00,18.32 332.68,18.93 336.04,19.26 339.40,19.59 343.35,19.86 347.30,20.13 351.86,20.34 356.42,20.54 362.47,19.91 368.52,19.27 374.37,18.26 380.21,17.25 385.52,15.95 390.83,14.64 394.90,12.99 398.98,11.33 402.15,9.82 405.33,8.32 408.98,6.89 412.63,5.46 416.83,4.01 421.03,2.57 423.28,1.38 425.54,0.18 427.84,-0.74 430.13,-1.68 432.68,-2.52 435.22,-3.37 438.29,-3.81 441.37,-4.26 444.78,-4.40 448.19,-4.54 451.85,-4.53 455.51,-4.52 459.29,-4.47 463.07,-4.41 467.09,-3.68 471.12,-2.95 474.56,-2.29 478.00,-1.63 481.48,-0.81 484.96,0.00 488.50,0.89 492.05,1.78 494.21,2.12 496.38,2.46 498.72,2.96 501.05,3.46 503.45,4.02 505.85,4.58 508.56,4.79 511.27,5.00 514.68,5.20 518.09,5.39 521.76,5.54 525.44,5.70 528.75,5.17 532.06,4.65 535.40,4.01 538.75,3.36 541.92,2.57 545.10,1.77 547.95,0.88 550.81,-0.00 552.98,-1.04 555.16,-2.07 557.12,-3.10 559.09,-4.12 562.45,-5.78 565.81,-7.43 568.51,-8.25 571.22,-9.06 574.88,-9.62 578.54,-10.18 582.51,-10.35 586.47,-10.51 590.50,-10.47 594.53,-10.42 597.80,-10.49 601.07,-10.55 603.97,-10.25 606.87,-9.96 609.93,-9.38 612.99,-8.81 615.71,-7.32 618.43,-5.83 622.50,-5.59 626.57,-5.35 629.76,-5.18 632.95,-5.00 636.93,-4.70 640.91,-4.40 644.31,-4.31 647.71,-4.23 650.46,-4.26 653.20,-4.30 655.41,-4.50 657.62,-4.70 660.52,-5.44 663.41,-6.17 667.12,-7.74 670.83,-9.31 676.22,-10.47 681.61,-11.63 684.95,-11.77 688.29,-11.90 692.46,-11.69 696.63,-11.49 699.95,-11.47 703.26,-11.45 706.77,-11.38 710.27,-11.32 713.52,-11.07 716.77,-10.81 720.55,-10.35 724.33,-9.89 727.40,-8.38 730.47,-6.87 733.27,-5.48 736.07,-4.09 738.75,-2.57 741.43,-1.04 744.25,-0.06 747.07,0.90 750.47,1.85 753.87,2.79 756.92,3.29 759.98,3.78 763.74,4.16 767.50,4.53 769.95,4.51 772.39,4.49 775.49,4.31 778.58,4.12 781.09,3.42 783.60,2.73 787.64,1.49 791.69,0.26 794.59,-0.14 797.50,-0.55 801.02,-1.54 804.53,-2.53 806.51,-4.09 808.48,-5.64 811.83,-7.31 815.18,-8.98 817.38,-11.04 819.58,-13.11 820.91,-16.09 822.23,-19.06 822.61,-21.81 822.99,-24.56 821.46,-26.72 819.94,-28.89 817.02,-29.87 814.10,-30.84 811.32,-31.40 808.54,-31.96 805.97,-32.07 803.41,-32.17 800.82,-32.15 798.24,-32.13 796.42,-30.98 794.61,-29.83 791.82,-28.01 789.03,-26.20 787.32,-24.77 785.61,-23.35 784.79,-21.24 783.97,-19.13 783.64,-15.98 783.32,-12.83 783.31,-10.58 783.30,-8.33 783.31,-6.07 783.32,-3.81 783.62,-1.01 783.91,1.78 784.69,4.64 785.48,7.50 786.04,9.68 786.61,11.86 787.29,14.40 787.98,16.93 788.59,19.49 789.20,22.05 789.96,24.12 790.72,26.18 792.16,28.44 793.60,30.70 795.14,32.81 796.67,34.92 797.85,37.12 799.03,39.31 800.68,41.64 802.32,43.96 803.86,46.04 805.40,48.12 807.15,50.31 808.89,52.49 810.93,55.53 812.97,58.57 814.53,61.42 816.08,64.27 817.74,68.09 819.40,71.91 820.15,74.25 820.91,76.59 821.62,79.37 822.33,82.15 822.79,85.02 823.24,87.90 823.42,90.58 823.60,93.26 823.62,97.35 823.63,101.44 822.94,104.21 822.25,106.99 820.99,109.64 819.73,112.29 818.72,114.19 817.72,116.09 816.09,118.57 814.46,121.04 813.20,123.13 811.94,125.21 810.75,127.27 809.55,129.32 808.36,131.32 807.17,133.31 805.72,136.25 804.27,139.19 803.63,141.50 802.99,143.80 802.55,146.35 802.11,148.89 801.92,151.31 801.74,153.73 801.37,156.47 800.99,159.20 800.87,161.40 800.76,163.60 800.77,167.13 800.78,170.66 801.83,173.60 802.88,176.54 803.78,178.61 804.69,180.67 807.16,184.28 809.63,187.88 810.82,189.95 812.01,192.02 813.57,194.57 815.12,197.11 816.60,199.91 818.08,202.71 819.28,205.45 820.48,208.19 821.41,211.43 822.34,214.67 823.23,218.01 824.11,221.36 824.77,223.98 825.42,226.60 825.81,229.86 826.19,233.13 826.40,235.86 826.60,238.60 826.71,241.22 826.81,243.84 826.71,247.86 826.60,251.88 825.72,254.30 824.85,256.72 823.79,258.80 822.73,260.87 821.60,262.75 820.46,264.63 819.27,267.31 818.07,270.00 817.27,273.51 816.48,277.02 816.24,281.04 816.00,285.05 816.33,289.33 816.66,293.60 818.12,297.12 819.58,300.65 821.13,303.19 822.69,305.74 824.71,310.06 826.74,314.37 827.80,316.63 828.87,318.88 829.82,320.88 830.76,322.87 831.72,325.65 832.68,328.43 833.90,332.59 835.12,336.75 835.45,339.25 835.78,341.74 836.01,346.18 836.25,350.63 836.28,352.80 836.31,354.97 835.90,358.89 835.48,362.81 834.85,365.46 834.22,368.10 833.79,370.26 833.37,372.42 832.63,375.69 831.88,378.96 831.42,381.29 830.97,383.63 829.95,387.08 828.93,390.54 828.77,393.15 828.61,395.77 828.66,398.56 828.71,401.34 828.74,404.69 828.77,408.03 828.87,410.42 828.98,412.81 829.71,415.08 830.45,417.35 831.13,419.42 831.81,421.49 832.71,423.52 833.61,425.56 834.67,427.99 835.73,430.43 836.17,430.81 836.61,431.18 837.06,432.27 837.51,433.35 837.59,434.52 837.66,435.69 837.36,436.83 837.06,437.96 836.42,438.94 835.77,439.92 834.85,440.64 833.92,441.36 832.82,441.75 831.71,442.13 830.54,442.15 829.36,442.16 828.25,441.80 827.13,441.44 826.19,440.74 825.25,440.04 824.58,439.08 823.91,438.12 823.58,436.99 823.25,435.87 823.30,434.69 823.35,433.52 823.77,432.43 824.19,431.33 824.94,430.43 825.69,429.53 826.69,428.91 827.69,428.29 828.83,428.03 829.97,427.76 831.14,427.87 832.31,427.99 833.38,428.47 834.45,428.95 835.31,429.74 836.17,430.54 836.73,431.57 837.29,432.60 837.49,433.75 837.70,434.91 837.52,436.07 837.35,437.23 836.81,438.27 836.27,439.31 835.43,440.13 834.59,440.95 833.53,441.45 832.47,441.96 831.31,442.10 830.14,442.24 828.99,442.00 827.85,441.76 826.83,441.17 825.82,440.57 825.05,439.69 824.28,438.81 824.28,438.81 824.28,438.81 823.46,436.71 822.63,434.62 821.17,431.92 819.71,429.21 818.71,426.21 817.71,423.20 817.05,420.81 816.39,418.42 815.63,414.71 814.87,410.99 814.87,408.19 814.86,405.38 814.91,402.40 814.95,399.42 815.04,397.28 815.14,395.15 815.36,392.60 815.59,390.04 816.43,386.76 817.28,383.48 817.90,380.94 818.52,378.40 819.52,375.07 820.51,371.73 821.12,369.33 821.73,366.92 822.33,364.57 822.92,362.22 823.57,360.10 824.22,357.98 824.35,354.45 824.49,350.91 824.36,347.08 824.23,343.26 823.95,341.14 823.67,339.03 822.79,335.66 821.91,332.29 820.21,328.17 818.51,324.04 817.20,321.51 815.89,318.99 815.02,317.00 814.16,315.00 812.43,311.60 810.71,308.19 809.22,304.88 807.74,301.57 806.45,298.31 805.17,295.04 804.80,292.20 804.42,289.36 804.34,286.98 804.25,284.60 804.34,282.18 804.43,279.76 804.69,277.15 804.94,274.54 805.46,272.13 805.98,269.71 807.42,265.96 808.85,262.20 810.86,258.88 812.87,255.57 814.41,252.80 815.94,250.04 816.28,247.07 816.62,244.11 816.59,241.66 816.56,239.21 816.45,236.78 816.34,234.34 815.98,231.59 815.62,228.85 815.15,226.55 814.67,224.26 813.51,220.95 812.36,217.65 811.55,215.08 810.74,212.50 809.70,210.19 808.65,207.88 807.32,205.55 805.99,203.22 802.99,198.65 800.00,194.08 798.70,192.12 797.41,190.15 795.79,187.79 794.16,185.42 793.07,183.01 791.97,180.59 791.03,178.00 790.09,175.40 789.69,172.98 789.28,170.56 789.47,166.75 789.66,162.94 789.83,160.35 790.00,157.76 790.30,155.37 790.60,152.98 790.77,150.11 790.95,147.24 791.35,144.09 791.75,140.95 792.49,137.86 793.22,134.78 795.19,131.05 797.16,127.32 798.29,125.44 799.42,123.56 800.61,121.42 801.81,119.28 803.09,117.02 804.37,114.77 805.64,112.57 806.92,110.37 808.62,107.11 810.31,103.84 810.86,100.85 811.41,97.86 811.15,93.98 810.88,90.10 810.43,87.93 809.99,85.77 809.20,83.46 808.42,81.14 806.96,77.44 805.50,73.73 803.97,70.99 802.43,68.24 800.70,65.44 798.97,62.63 797.26,60.47 795.54,58.30 794.07,56.32 792.60,54.34 790.86,51.92 789.12,49.49 787.86,47.68 786.61,45.87 784.80,43.25 782.98,40.63 781.49,38.34 779.99,36.05 778.36,33.42 776.73,30.80 776.13,28.57 775.53,26.34 774.80,23.32 774.06,20.30 773.37,17.55 772.68,14.80 772.05,12.34 771.42,9.87 770.58,6.32 769.73,2.78 769.57,-0.52 769.40,-3.83 769.42,-6.14 769.45,-8.45 769.50,-10.88 769.55,-13.31 769.81,-16.75 770.08,-20.18 770.97,-23.32 771.85,-26.46 773.71,-29.53 775.56,-32.61 778.20,-34.86 780.83,-37.12 782.64,-38.48 784.44,-39.85 787.31,-41.71 790.18,-43.57 794.23,-44.80 798.28,-46.03 801.06,-45.96 803.83,-45.89 807.01,-45.74 810.19,-45.59 812.36,-45.32 814.53,-45.05 818.01,-44.03 821.48,-43.01 824.87,-41.60 828.25,-40.20 830.13,-38.69 832.01,-37.18 833.73,-34.65 835.45,-32.12 836.16,-27.96 836.87,-23.81 836.59,-21.22 836.31,-18.64 835.26,-15.56 834.21,-12.49 833.08,-9.87 831.94,-7.24 829.95,-5.17 827.97,-3.09 825.92,-1.15 823.87,0.78 821.52,1.88 819.17,2.97 817.06,3.80 814.94,4.64 812.06,6.45 809.18,8.26 806.56,8.85 803.94,9.44 799.48,10.22 795.01,10.99 792.57,11.76 790.14,12.53 787.40,13.14 784.67,13.74 781.57,13.88 778.46,14.01 775.27,13.71 772.08,13.42 769.57,13.23 767.06,13.03 762.84,13.00 758.62,12.97 755.19,12.50 751.77,12.03 747.92,11.32 744.07,10.61 740.29,9.55 736.51,8.49 731.88,6.08 727.26,3.67 724.46,1.70 721.67,-0.26 718.84,-1.00 716.01,-1.75 713.16,-2.01 710.31,-2.26 706.84,-2.17 703.36,-2.07 700.10,-1.98 696.83,-1.89 692.90,-1.52 688.97,-1.15 686.15,-0.89 683.33,-0.63 680.88,-0.20 678.43,0.23 674.93,1.16 671.44,2.09 668.92,3.01 666.40,3.92 662.28,4.50 658.16,5.08 655.68,5.14 653.19,5.20 650.44,5.16 647.68,5.11 644.28,5.18 640.87,5.25 636.84,5.52 632.81,5.78 629.45,5.87 626.10,5.96 623.29,5.83 620.49,5.71 617.46,4.86 614.44,4.01 612.31,2.32 610.18,0.62 607.88,-0.25 605.58,-1.13 603.38,-1.58 601.18,-2.02 597.98,-1.98 594.78,-1.95 590.97,-1.67 587.16,-1.39 583.74,-1.00 580.33,-0.62 575.23,0.50 570.13,1.63 566.53,2.93 562.93,4.23 560.74,5.11 558.55,6.00 555.85,7.00 553.16,8.01 550.10,8.85 547.04,9.68 543.67,10.50 540.30,11.31 536.87,11.99 533.43,12.66 529.39,13.40 525.35,14.15 521.57,14.20 517.80,14.26 514.13,14.21 510.45,14.17 506.96,13.83 503.46,13.49 501.09,12.75 498.73,12.01 496.62,11.31 494.50,10.60 492.36,9.94 490.21,9.28 486.68,8.45 483.15,7.61 479.82,6.82 476.50,6.03 473.14,5.36 469.79,4.68 466.44,4.13 463.09,3.57 459.36,3.67 455.63,3.77 452.07,3.88 448.51,4.00 445.39,4.11 442.27,4.22 439.82,4.35 437.37,4.49 434.90,5.03 432.44,5.56 430.33,6.03 428.22,6.49 425.65,7.36 423.08,8.23 418.98,9.78 414.89,11.34 411.34,12.67 407.79,14.00 404.48,15.31 401.17,16.61 396.73,18.48 392.30,20.35 386.82,21.82 381.34,23.28 375.32,24.49 369.30,25.69 362.82,26.57 356.34,27.46 351.70,27.55 347.05,27.65 342.88,27.65 338.72,27.64 334.66,27.35 330.61,27.05 327.53,26.17 324.44,25.29 322.45,24.35 320.46,23.41 318.17,22.52 315.88,21.63 313.61,20.69 311.35,19.75 307.81,18.79 304.28,17.84 300.05,16.82 295.82,15.80 290.85,15.20 285.88,14.60 281.43,14.39 276.99,14.18 272.18,14.29 267.37,14.41 262.22,14.66 257.07,14.92 252.19,15.51 247.32,16.11 243.07,16.91 238.82,17.71 234.55,18.68 230.29,19.64 225.86,20.64 221.44,21.64 217.52,22.72 213.59,23.80 209.16,24.87 204.72,25.93 199.69,27.22 194.65,28.50 188.81,29.58 182.96,30.67 176.82,31.63 170.68,32.60 164.82,32.90 158.95,33.20 153.32,33.19 147.69,33.17 141.68,32.95 135.68,32.73 131.15,32.00 126.62,31.28 122.78,29.99 118.94,28.69 116.05,27.02 113.17,25.34 110.73,23.62 108.29,21.90 105.13,19.11 101.96,16.32 98.86,13.97 95.75,11.62 93.28,10.99 90.80,10.36 87.44,10.20 84.07,10.03 80.98,10.06 77.88,10.10 74.32,10.30 70.76,10.50 67.57,10.75 64.38,11.00 61.13,11.55 57.88,12.10 54.99,12.87 52.10,13.64 49.11,14.49 46.11,15.34 43.08,16.34 40.06,17.33 37.27,18.23 34.48,19.12 32.21,19.80 29.94,20.47 27.44,21.09 24.94,21.70 20.55,22.21 16.15,22.72 12.24,22.73 8.34,22.75 6.00,22.80 3.65,22.85 0.88,22.96 -1.87,23.08 -4.10,23.10 -6.33,23.13 -10.28,22.75 -14.22,22.38 -16.88,21.48 -19.53,20.57 -22.78,19.33 -26.04,18.09 -28.87,16.35 -31.70,14.61 -34.74,11.92 -37.77,9.23 -39.51,7.52 -41.25,5.81 -43.14,2.79 -45.02,-0.23 -45.88,-2.34 -46.74,-4.45 -47.04,-7.53 -47.35,-10.62 -47.22,-13.46 -47.10,-16.30 -46.46,-19.90 -45.82,-23.50 -44.89,-26.28 -43.96,-29.06 -42.75,-31.28 -41.53,-33.51 -39.28,-35.91 -37.03,-38.31 -34.78,-40.01 -32.54,-41.71 -29.99,-43.40 -27.44,-45.09 -25.05,-46.73 -22.66,-48.37 -20.74,-49.56 -18.82,-50.75 -14.96,-51.50 -11.11,-52.25 -8.72,-52.16 -6.34,-52.06 -3.20,-51.67 -0.05,-51.27 3.88,-50.22 7.82,-49.17 11.56,-47.24 15.30,-45.32 17.13,-43.48 18.95,-41.65 19.87,-39.13 20.79,-36.62 20.95,-34.02 21.12,-31.42 21.00,-28.13 20.88,-24.84 20.42,-21.88 19.96,-18.92 18.99,-16.96 18.02,-15.00 16.91,-13.14 15.81,-11.28 13.84,-8.90 11.88,-6.52 9.70,-3.90 7.52,-1.28 5.83,0.94 4.15,3.17 3.71,3.62 3.27,4.07 2.73,4.40 2.20,4.73 1.60,4.93 1.00,5.12 0.37,5.17 -0.25,5.21 -0.87,5.11 -1.49,5.00 -2.07,4.75 -2.65,4.50 -3.15,4.12 -3.65,3.73 -4.04,3.24 -4.43,2.75 -4.70,2.18 -4.97,1.61 -5.09,0.99 -5.21,0.37 -5.18,-0.25 -5.15,-0.88 -4.96,-1.48 -4.78,-2.08 -4.46,-2.63 -4.15,-3.17 -4.15,-3.17 L -4.15,-3.17 Z"></path></g><g transform="translate(48.6363525390625 496.36363220214844) rotate(0 418.4090576171875 16.590911865234375)" stroke="none"><path fill="#1e1e1e" d="M 4.94,-1.76 Q 4.94,-1.76 5.66,0.03 6.38,1.84 7.34,4.93 8.30,8.02 8.54,10.88 8.79,13.74 8.91,16.09 9.04,18.43 8.69,21.21 8.34,23.98 7.48,26.26 6.62,28.54 5.57,30.47 4.53,32.41 3.16,34.56 1.79,36.72 -0.80,38.70 -3.40,40.69 -6.69,42.32 -9.97,43.94 -12.74,44.74 -15.51,45.55 -20.72,45.07 -25.93,44.60 -29.20,43.14 -32.47,41.68 -34.70,40.56 -36.93,39.44 -39.60,37.68 -42.27,35.93 -43.47,33.14 -44.67,30.34 -44.90,27.45 -45.13,24.56 -44.41,21.59 -43.69,18.63 -42.17,15.62 -40.65,12.62 -39.56,10.65 -38.47,8.68 -36.67,6.36 -34.88,4.04 -32.02,1.81 -29.17,-0.42 -26.31,-2.12 -23.46,-3.82 -20.58,-4.76 -17.69,-5.70 -15.19,-6.05 -12.70,-6.40 -9.68,-6.43 -6.65,-6.47 -4.21,-6.38 -1.77,-6.29 2.33,-6.10 6.44,-5.90 10.30,-4.79 14.16,-3.69 16.37,-3.01 18.59,-2.33 21.58,-0.59 24.56,1.15 27.88,2.86 31.20,4.56 34.48,6.49 37.77,8.41 40.95,9.48 44.14,10.55 47.42,11.41 50.70,12.27 53.96,13.17 57.22,14.07 59.65,14.18 62.09,14.30 64.89,14.20 67.70,14.10 71.40,13.17 75.10,12.23 78.65,11.43 82.20,10.62 85.26,9.77 88.33,8.93 91.14,8.14 93.96,7.36 97.32,6.60 100.68,5.84 104.38,5.30 108.08,4.76 111.35,4.49 114.62,4.21 117.18,4.04 119.75,3.86 123.74,4.10 127.72,4.34 129.87,5.24 132.02,6.14 135.01,8.01 137.99,9.87 141.16,11.91 144.33,13.96 147.34,15.74 150.36,17.53 154.68,19.41 159.01,21.28 163.51,22.69 168.02,24.09 172.30,24.86 176.57,25.63 181.08,26.01 185.58,26.39 189.47,26.51 193.36,26.63 197.61,26.37 201.86,26.11 205.90,25.27 209.93,24.42 214.11,23.18 218.29,21.94 221.33,20.43 224.37,18.92 227.13,17.50 229.88,16.07 232.92,14.95 235.95,13.82 239.10,12.91 242.24,12.01 245.71,11.45 249.17,10.90 253.22,10.76 257.27,10.62 262.23,11.35 267.18,12.09 272.07,12.97 276.97,13.85 282.58,15.47 288.19,17.09 293.01,18.58 297.82,20.07 301.36,21.12 304.90,22.18 307.62,22.88 310.34,23.57 312.61,24.01 314.87,24.44 319.23,24.49 323.58,24.55 326.66,24.14 329.75,23.73 334.62,22.86 339.49,21.99 345.18,20.89 350.87,19.79 357.84,18.20 364.81,16.62 371.84,14.93 378.86,13.25 386.02,11.39 393.18,9.53 399.66,7.96 406.14,6.39 412.25,5.33 418.35,4.27 423.24,3.83 428.13,3.38 431.51,3.02 434.89,2.66 437.70,2.64 440.51,2.62 443.45,3.26 446.40,3.89 449.42,5.30 452.45,6.70 455.53,8.00 458.61,9.31 462.58,10.64 466.55,11.97 470.23,12.63 473.91,13.30 478.25,13.67 482.58,14.05 485.43,13.64 488.28,13.24 491.59,12.48 494.91,11.72 498.47,10.88 502.04,10.03 506.24,9.26 510.45,8.49 514.23,7.52 518.00,6.54 521.91,5.29 525.83,4.04 529.98,2.97 534.13,1.89 538.48,1.19 542.83,0.48 547.25,0.19 551.66,-0.09 555.75,-0.24 559.84,-0.40 563.94,-0.47 568.04,-0.53 573.06,0.00 578.09,0.54 582.97,1.31 587.85,2.08 592.20,3.08 596.56,4.09 600.49,4.98 604.42,5.88 608.15,6.59 611.88,7.31 615.22,8.19 618.56,9.08 622.01,10.10 625.46,11.11 628.63,11.70 631.79,12.30 635.31,12.83 638.83,13.37 642.49,13.74 646.15,14.11 649.87,14.28 653.58,14.45 656.74,14.42 659.90,14.38 663.08,13.41 666.25,12.45 667.84,10.87 669.43,9.29 671.20,6.78 672.97,4.26 675.30,1.61 677.62,-1.03 680.26,-3.49 682.90,-5.95 686.47,-7.51 690.04,-9.08 692.42,-9.43 694.80,-9.77 697.16,-9.76 699.52,-9.75 701.89,-9.44 704.27,-9.13 707.22,-8.02 710.16,-6.90 713.13,-5.90 716.09,-4.90 719.22,-4.01 722.34,-3.12 725.41,-2.59 728.48,-2.05 731.90,-1.72 735.32,-1.39 739.65,-0.77 743.99,-0.14 749.87,0.20 755.75,0.55 759.99,0.76 764.22,0.98 767.84,0.98 771.46,0.98 774.31,0.85 777.15,0.72 779.32,0.33 781.48,-0.06 783.77,-0.75 786.06,-1.43 789.88,-2.58 793.70,-3.73 797.62,-4.53 801.54,-5.34 805.51,-5.47 809.47,-5.61 812.46,-5.32 815.45,-5.03 817.68,-5.09 819.92,-5.16 822.32,-6.18 824.71,-7.20 827.89,-8.07 831.06,-8.94 835.02,-9.04 838.98,-9.13 842.38,-9.15 845.77,-9.18 849.54,-9.16 853.30,-9.15 856.71,-9.08 860.13,-9.01 862.73,-8.24 865.33,-7.48 868.24,-5.24 871.15,-3.01 873.80,-1.25 876.45,0.49 877.73,2.30 879.02,4.11 880.08,6.68 881.14,9.25 881.69,11.75 882.23,14.25 882.37,16.89 882.51,19.53 882.54,21.76 882.57,24.00 881.16,27.44 879.74,30.89 878.44,32.57 877.13,34.25 875.13,35.93 873.14,37.62 870.76,39.21 868.37,40.79 865.27,42.46 862.17,44.12 859.14,44.89 856.12,45.65 853.69,46.23 851.25,46.80 847.51,45.99 843.76,45.17 841.14,42.85 838.52,40.52 836.43,37.97 834.34,35.42 833.24,32.96 832.14,30.50 831.63,28.16 831.12,25.83 830.82,23.30 830.51,20.78 830.52,18.50 830.54,16.21 830.02,14.13 829.50,12.06 829.46,9.76 829.42,7.45 829.40,5.16 829.38,2.88 829.57,0.55 829.77,-1.76 830.10,-3.87 830.43,-5.98 830.60,-7.05 830.77,-8.12 831.17,-9.26 831.57,-10.41 832.32,-11.37 833.07,-12.33 834.08,-13.01 835.10,-13.68 836.27,-13.99 837.45,-14.30 838.66,-14.22 839.88,-14.14 841.00,-13.68 842.13,-13.21 843.05,-12.42 843.97,-11.62 844.58,-10.57 845.20,-9.52 845.44,-8.32 845.69,-7.13 845.55,-5.92 845.40,-4.72 844.88,-3.62 844.35,-2.52 843.51,-1.65 842.66,-0.77 841.58,-0.21 840.50,0.33 839.29,0.52 838.09,0.70 836.89,0.49 835.69,0.28 834.62,-0.30 833.55,-0.88 832.73,-1.77 831.90,-2.66 831.40,-3.78 830.91,-4.89 830.79,-6.10 830.67,-7.31 830.95,-8.49 831.22,-9.68 831.86,-10.71 832.50,-11.75 833.44,-12.53 834.37,-13.30 835.51,-13.74 836.65,-14.18 837.86,-14.23 839.08,-14.28 840.25,-13.94 841.42,-13.60 842.41,-12.91 843.41,-12.21 844.14,-11.24 844.86,-10.26 845.24,-9.10 845.61,-7.94 845.60,-6.73 845.59,-5.51 845.59,-5.51 845.59,-5.51 845.09,-2.19 844.60,1.12 844.41,3.71 844.22,6.29 843.93,8.82 843.63,11.34 844.32,14.06 845.00,16.78 844.98,19.29 844.96,21.79 845.44,24.48 845.91,27.16 847.44,30.05 848.98,32.95 851.06,32.33 853.15,31.71 855.54,31.20 857.93,30.68 860.79,28.72 863.65,26.76 865.99,25.24 868.33,23.71 868.35,21.22 868.38,18.72 868.20,16.26 868.02,13.81 866.94,11.65 865.87,9.49 863.03,7.43 860.20,5.38 858.02,4.57 855.84,3.75 852.81,3.73 849.78,3.70 845.89,3.73 842.00,3.77 838.50,3.83 835.00,3.88 832.69,4.03 830.38,4.19 827.97,5.11 825.55,6.03 822.64,6.48 819.73,6.93 816.50,6.59 813.26,6.24 811.06,5.78 808.86,5.32 805.75,5.13 802.63,4.95 799.12,5.32 795.60,5.69 791.85,6.31 788.11,6.94 785.24,7.51 782.36,8.09 779.75,8.21 777.13,8.33 774.27,8.18 771.41,8.03 767.76,7.97 764.11,7.92 759.84,8.01 755.57,8.10 749.44,8.16 743.32,8.21 739.06,8.15 734.81,8.09 730.95,8.02 727.10,7.96 723.49,7.57 719.88,7.19 716.52,6.52 713.16,5.86 707.84,4.36 702.52,2.85 699.33,2.53 696.14,2.20 693.02,2.72 689.90,3.23 687.57,5.14 685.23,7.05 683.30,8.80 681.37,10.55 678.97,13.21 676.58,15.86 673.02,18.19 669.47,20.51 667.05,21.20 664.62,21.89 662.18,21.83 659.75,21.77 656.52,21.61 653.30,21.44 649.37,21.29 645.45,21.15 641.59,20.78 637.73,20.40 634.01,19.81 630.29,19.21 626.88,18.36 623.46,17.52 620.05,16.39 616.63,15.26 613.64,14.17 610.66,13.08 606.89,12.21 603.12,11.35 599.24,10.38 595.36,9.41 591.18,8.48 587.01,7.55 582.26,6.85 577.52,6.16 572.81,5.70 568.11,5.25 564.07,5.29 560.03,5.34 556.05,5.44 552.07,5.55 547.95,5.88 543.82,6.21 539.76,6.96 535.71,7.71 531.77,8.83 527.83,9.95 523.76,11.40 519.69,12.86 515.77,13.94 511.84,15.02 507.76,16.02 503.69,17.01 500.06,17.87 496.43,18.72 492.67,19.51 488.91,20.29 485.55,20.43 482.19,20.57 477.47,20.39 472.75,20.21 468.64,19.57 464.53,18.93 460.02,17.79 455.51,16.66 452.16,15.24 448.80,13.83 446.53,12.52 444.27,11.21 442.13,10.39 440.00,9.57 437.62,9.19 435.24,8.81 431.95,8.84 428.66,8.87 424.00,9.33 419.34,9.80 413.43,10.89 407.53,11.97 401.13,13.62 394.72,15.26 387.55,17.26 380.38,19.25 373.38,21.12 366.37,22.98 359.39,24.81 352.40,26.65 346.78,28.07 341.17,29.48 336.04,30.84 330.91,32.20 327.07,32.75 323.22,33.29 320.44,33.06 317.66,32.83 315.25,32.35 312.85,31.87 310.51,31.04 308.16,30.20 305.57,29.16 302.98,28.11 299.57,26.92 296.15,25.72 291.36,24.36 286.57,23.01 281.26,21.62 275.95,20.24 271.15,19.59 266.34,18.95 261.99,18.54 257.64,18.14 253.96,18.40 250.27,18.65 247.21,19.03 244.15,19.41 241.17,20.08 238.19,20.76 235.43,21.50 232.67,22.24 229.79,23.38 226.90,24.51 223.43,25.94 219.96,27.37 215.57,28.75 211.19,30.13 206.76,31.15 202.34,32.16 197.75,32.58 193.17,33.00 189.18,32.88 185.19,32.76 180.38,32.56 175.57,32.37 170.84,31.79 166.11,31.22 161.12,30.07 156.14,28.92 151.03,27.25 145.93,25.58 142.75,23.94 139.57,22.30 136.15,20.58 132.73,18.87 128.76,16.71 124.78,14.55 122.50,14.15 120.21,13.74 117.84,13.79 115.46,13.84 112.64,14.10 109.82,14.36 106.57,15.08 103.33,15.80 100.18,16.78 97.03,17.75 94.37,18.59 91.71,19.43 88.67,20.55 85.62,21.67 82.17,23.04 78.71,24.40 76.14,25.24 73.56,26.08 71.15,26.61 68.75,27.15 65.14,27.23 61.53,27.32 57.96,26.99 54.39,26.67 51.18,25.75 47.97,24.83 44.32,23.87 40.66,22.92 37.92,22.20 35.17,21.49 31.60,19.75 28.02,18.00 24.86,16.35 21.70,14.70 19.70,13.74 17.69,12.78 14.96,11.17 12.22,9.57 8.91,8.45 5.59,7.33 1.92,7.27 -1.74,7.21 -5.50,7.32 -9.26,7.43 -11.65,7.51 -14.05,7.59 -16.49,8.20 -18.93,8.81 -21.73,10.90 -24.53,12.99 -26.26,15.21 -27.99,17.43 -29.50,20.12 -31.01,22.81 -32.60,24.81 -34.18,26.81 -30.88,28.32 -27.59,29.84 -25.37,30.64 -23.16,31.44 -20.23,31.69 -17.30,31.94 -15.10,31.18 -12.91,30.42 -10.81,29.25 -8.70,28.07 -7.37,26.16 -6.05,24.25 -4.85,22.27 -3.64,20.28 -3.54,17.79 -3.43,15.30 -3.32,12.95 -3.20,10.59 -3.48,8.03 -3.76,5.47 -4.35,3.61 -4.94,1.76 -5.08,1.14 -5.22,0.53 -5.21,-0.10 -5.20,-0.73 -5.04,-1.34 -4.87,-1.95 -4.57,-2.51 -4.26,-3.06 -3.83,-3.53 -3.40,-4.00 -2.87,-4.35 -2.35,-4.70 -1.75,-4.91 -1.15,-5.12 -0.52,-5.19 0.10,-5.25 0.72,-5.16 1.35,-5.07 1.94,-4.84 2.53,-4.60 3.04,-4.23 3.56,-3.86 3.97,-3.38 4.38,-2.90 4.66,-2.33 4.94,-1.76 4.94,-1.76 L 4.94,-1.76 Z"></path></g></svg>